<?xml version="1.0" encoding="utf-8" standalone="no"?>
<!DOCTYPE svg PUBLIC "-//W3C//DTD SVG 1.1//EN"
  "http://www.w3.org/Graphics/SVG/1.1/DTD/svg11.dtd">
<!-- Created with matplotlib (https://matplotlib.org/) -->
<svg height="345.6pt" version="1.1" viewBox="0 0 460.8 345.6" width="460.8pt" xmlns="http://www.w3.org/2000/svg" xmlns:xlink="http://www.w3.org/1999/xlink">
 <defs>
  <style type="text/css">
*{stroke-linecap:butt;stroke-linejoin:round;}
  </style>
 </defs>
 <g id="figure_1">
  <g id="patch_1">
   <path d="M 0 345.6 
L 460.8 345.6 
L 460.8 0 
L 0 0 
z
" style="fill:#ffffff;"/>
  </g>
  <g id="axes_1">
   <g id="patch_2">
    <path d="M 58.17 163.195278 
L 230.465 163.195278 
L 230.465 51.84 
L 58.17 51.84 
z
" style="fill:#ffffff;"/>
   </g>
   <g id="patch_3">
    <path clip-path="url(#p6a85fab43f)" d="M 59.031475 163.195278 
L 65.923275 163.195278 
L 65.923275 157.172243 
L 59.031475 157.172243 
z
" style="fill:#440154;opacity:0.2;"/>
   </g>
   <g id="patch_4">
    <path clip-path="url(#p6a85fab43f)" d="M 67.646225 163.195278 
L 74.538025 163.195278 
L 74.538025 148.363707 
L 67.646225 148.363707 
z
" style="fill:#440154;opacity:0.2;"/>
   </g>
   <g id="patch_5">
    <path clip-path="url(#p6a85fab43f)" d="M 76.260975 163.195278 
L 83.152775 163.195278 
L 83.152775 77.202814 
L 76.260975 77.202814 
z
" style="fill:#440154;opacity:0.2;"/>
   </g>
   <g id="patch_6">
    <path clip-path="url(#p6a85fab43f)" d="M 84.875725 163.195278 
L 91.767525 163.195278 
L 91.767525 57.142632 
L 84.875725 57.142632 
z
" style="fill:#440154;opacity:0.2;"/>
   </g>
   <g id="patch_7">
    <path clip-path="url(#p6a85fab43f)" d="M 93.490475 163.195278 
L 100.382275 163.195278 
L 100.382275 116.396464 
L 93.490475 116.396464 
z
" style="fill:#440154;opacity:0.2;"/>
   </g>
   <g id="patch_8">
    <path clip-path="url(#p6a85fab43f)" d="M 102.105225 163.195278 
L 108.997025 163.195278 
L 108.997025 146.046697 
L 102.105225 146.046697 
z
" style="fill:#440154;opacity:0.2;"/>
   </g>
   <g id="patch_9">
    <path clip-path="url(#p6a85fab43f)" d="M 110.719975 163.195278 
L 117.611775 163.195278 
L 117.611775 155.930182 
L 110.719975 155.930182 
z
" style="fill:#440154;opacity:0.2;"/>
   </g>
   <g id="patch_10">
    <path clip-path="url(#p6a85fab43f)" d="M 119.334725 163.195278 
L 126.226525 163.195278 
L 126.226525 158.73028 
L 119.334725 158.73028 
z
" style="fill:#440154;opacity:0.2;"/>
   </g>
   <g id="patch_11">
    <path clip-path="url(#p6a85fab43f)" d="M 127.949475 163.195278 
L 134.841275 163.195278 
L 134.841275 160.205047 
L 127.949475 160.205047 
z
" style="fill:#440154;opacity:0.2;"/>
   </g>
   <g id="patch_12">
    <path clip-path="url(#p6a85fab43f)" d="M 136.564225 163.195278 
L 143.456025 163.195278 
L 143.456025 160.800918 
L 136.564225 160.800918 
z
" style="fill:#440154;opacity:0.2;"/>
   </g>
   <g id="patch_13">
    <path clip-path="url(#p6a85fab43f)" d="M 145.178975 163.195278 
L 152.070775 163.195278 
L 152.070775 161.204953 
L 145.178975 161.204953 
z
" style="fill:#440154;opacity:0.2;"/>
   </g>
   <g id="patch_14">
    <path clip-path="url(#p6a85fab43f)" d="M 153.793725 163.195278 
L 160.685525 163.195278 
L 160.685525 161.80667 
L 153.793725 161.80667 
z
" style="fill:#440154;opacity:0.2;"/>
   </g>
   <g id="patch_15">
    <path clip-path="url(#p6a85fab43f)" d="M 162.408475 163.195278 
L 169.300275 163.195278 
L 169.300275 162.27677 
L 162.408475 162.27677 
z
" style="fill:#440154;opacity:0.2;"/>
   </g>
   <g id="patch_16">
    <path clip-path="url(#p6a85fab43f)" d="M 171.023225 163.195278 
L 177.915025 163.195278 
L 177.915025 161.93059 
L 171.023225 161.93059 
z
" style="fill:#440154;opacity:0.2;"/>
   </g>
   <g id="patch_17">
    <path clip-path="url(#p6a85fab43f)" d="M 179.637975 163.195278 
L 186.529775 163.195278 
L 186.529775 162.353665 
L 179.637975 162.353665 
z
" style="fill:#440154;opacity:0.2;"/>
   </g>
   <g id="patch_18">
    <path clip-path="url(#p6a85fab43f)" d="M 188.252725 163.195278 
L 195.144525 163.195278 
L 195.144525 162.390518 
L 188.252725 162.390518 
z
" style="fill:#440154;opacity:0.2;"/>
   </g>
   <g id="patch_19">
    <path clip-path="url(#p6a85fab43f)" d="M 196.867475 163.195278 
L 203.759275 163.195278 
L 203.759275 162.192533 
L 196.867475 162.192533 
z
" style="fill:#440154;opacity:0.2;"/>
   </g>
   <g id="patch_20">
    <path clip-path="url(#p6a85fab43f)" d="M 205.482225 163.195278 
L 212.374025 163.195278 
L 212.374025 162.661019 
L 205.482225 162.661019 
z
" style="fill:#440154;opacity:0.2;"/>
   </g>
   <g id="patch_21">
    <path clip-path="url(#p6a85fab43f)" d="M 214.096975 163.195278 
L 220.988775 163.195278 
L 220.988775 162.503518 
L 214.096975 162.503518 
z
" style="fill:#440154;opacity:0.2;"/>
   </g>
   <g id="patch_22">
    <path clip-path="url(#p6a85fab43f)" d="M 222.711725 163.195278 
L 229.603525 163.195278 
L 229.603525 162.604007 
L 222.711725 162.604007 
z
" style="fill:#440154;opacity:0.2;"/>
   </g>
   <g id="patch_23">
    <path clip-path="url(#p6a85fab43f)" d="M 231.326475 163.195278 
L 238.218275 163.195278 
L 238.218275 162.962109 
L 231.326475 162.962109 
z
" style="fill:#440154;opacity:0.2;"/>
   </g>
   <g id="patch_24">
    <path clip-path="url(#p6a85fab43f)" d="M 239.941225 163.195278 
L 246.833025 163.195278 
L 246.833025 162.940392 
L 239.941225 162.940392 
z
" style="fill:#440154;opacity:0.2;"/>
   </g>
   <g id="patch_25">
    <path clip-path="url(#p6a85fab43f)" d="M 248.555975 163.195278 
L 255.447775 163.195278 
L 255.447775 163.07676 
L 248.555975 163.07676 
z
" style="fill:#440154;opacity:0.2;"/>
   </g>
   <g id="patch_26">
    <path clip-path="url(#p6a85fab43f)" d="M 257.170725 163.195278 
L 264.062525 163.195278 
L 264.062525 163.128435 
L 257.170725 163.128435 
z
" style="fill:#440154;opacity:0.2;"/>
   </g>
   <g id="patch_27">
    <path clip-path="url(#p6a85fab43f)" d="M 265.785475 163.195278 
L 272.677275 163.195278 
L 272.677275 163.061763 
L 265.785475 163.061763 
z
" style="fill:#440154;opacity:0.2;"/>
   </g>
   <g id="patch_28">
    <path clip-path="url(#p6a85fab43f)" d="M 274.400225 163.195278 
L 281.292025 163.195278 
L 281.292025 163.093601 
L 274.400225 163.093601 
z
" style="fill:#440154;opacity:0.2;"/>
   </g>
   <g id="patch_29">
    <path clip-path="url(#p6a85fab43f)" d="M 283.014975 163.195278 
L 289.906775 163.195278 
L 289.906775 163.082438 
L 283.014975 163.082438 
z
" style="fill:#440154;opacity:0.2;"/>
   </g>
   <g id="patch_30">
    <path clip-path="url(#p6a85fab43f)" d="M 291.629725 163.195278 
L 298.521525 163.195278 
L 298.521525 163.068551 
L 291.629725 163.068551 
z
" style="fill:#440154;opacity:0.2;"/>
   </g>
   <g id="patch_31">
    <path clip-path="url(#p6a85fab43f)" d="M 300.244475 163.195278 
L 307.136275 163.195278 
L 307.136275 163.152321 
L 300.244475 163.152321 
z
" style="fill:#440154;opacity:0.2;"/>
   </g>
   <g id="patch_32">
    <path clip-path="url(#p6a85fab43f)" d="M 308.859225 163.195278 
L 315.751025 163.195278 
L 315.751025 163.171069 
L 308.859225 163.171069 
z
" style="fill:#440154;opacity:0.2;"/>
   </g>
   <g id="patch_33">
    <path clip-path="url(#p6a85fab43f)" d="M 317.473975 163.195278 
L 324.365775 163.195278 
L 324.365775 163.167841 
L 317.473975 163.167841 
z
" style="fill:#440154;opacity:0.2;"/>
   </g>
   <g id="patch_34">
    <path clip-path="url(#p6a85fab43f)" d="M 326.088725 163.195278 
L 332.980525 163.195278 
L 332.980525 163.122152 
L 326.088725 163.122152 
z
" style="fill:#440154;opacity:0.2;"/>
   </g>
   <g id="patch_35">
    <path clip-path="url(#p6a85fab43f)" d="M 334.703475 163.195278 
L 341.595275 163.195278 
L 341.595275 163.15147 
L 334.703475 163.15147 
z
" style="fill:#440154;opacity:0.2;"/>
   </g>
   <g id="patch_36">
    <path clip-path="url(#p6a85fab43f)" d="M 343.318225 163.195278 
L 350.210025 163.195278 
L 350.210025 163.135966 
L 343.318225 163.135966 
z
" style="fill:#440154;opacity:0.2;"/>
   </g>
   <g id="patch_37">
    <path clip-path="url(#p6a85fab43f)" d="M 351.932975 163.195278 
L 358.824775 163.195278 
L 358.824775 163.11902 
L 351.932975 163.11902 
z
" style="fill:#440154;opacity:0.2;"/>
   </g>
   <g id="patch_38">
    <path clip-path="url(#p6a85fab43f)" d="M 360.547725 163.195278 
L 367.439525 163.195278 
L 367.439525 163.156083 
L 360.547725 163.156083 
z
" style="fill:#440154;opacity:0.2;"/>
   </g>
   <g id="patch_39">
    <path clip-path="url(#p6a85fab43f)" d="M 369.162475 163.195278 
L 376.054275 163.195278 
L 376.054275 163.128704 
L 369.162475 163.128704 
z
" style="fill:#440154;opacity:0.2;"/>
   </g>
   <g id="patch_40">
    <path clip-path="url(#p6a85fab43f)" d="M 377.777225 163.195278 
L 384.669025 163.195278 
L 384.669025 163.134756 
L 377.777225 163.134756 
z
" style="fill:#440154;opacity:0.2;"/>
   </g>
   <g id="patch_41">
    <path clip-path="url(#p6a85fab43f)" d="M 386.391975 163.195278 
L 393.283775 163.195278 
L 393.283775 163.133949 
L 386.391975 163.133949 
z
" style="fill:#440154;opacity:0.2;"/>
   </g>
   <g id="patch_42">
    <path clip-path="url(#p6a85fab43f)" d="M 395.006725 163.195278 
L 401.898525 163.195278 
L 401.898525 163.11902 
L 395.006725 163.11902 
z
" style="fill:#440154;opacity:0.2;"/>
   </g>
   <g id="patch_43">
    <path clip-path="url(#p6a85fab43f)" d="M 403.621475 163.195278 
L 410.513275 163.195278 
L 410.513275 163.167303 
L 403.621475 163.167303 
z
" style="fill:#440154;opacity:0.2;"/>
   </g>
   <g id="patch_44">
    <path clip-path="url(#p6a85fab43f)" d="M 412.236225 163.195278 
L 419.128025 163.195278 
L 419.128025 163.171069 
L 412.236225 163.171069 
z
" style="fill:#440154;opacity:0.2;"/>
   </g>
   <g id="patch_45">
    <path clip-path="url(#p6a85fab43f)" d="M 420.850975 163.195278 
L 427.742775 163.195278 
L 427.742775 163.19326 
L 420.850975 163.19326 
z
" style="fill:#440154;opacity:0.2;"/>
   </g>
   <g id="patch_46">
    <path clip-path="url(#p6a85fab43f)" d="M 429.465725 163.195278 
L 436.357525 163.195278 
L 436.357525 163.162999 
L 429.465725 163.162999 
z
" style="fill:#440154;opacity:0.2;"/>
   </g>
   <g id="patch_47">
    <path clip-path="url(#p6a85fab43f)" d="M 438.080475 163.195278 
L 444.972275 163.195278 
L 444.972275 163.188553 
L 438.080475 163.188553 
z
" style="fill:#440154;opacity:0.2;"/>
   </g>
   <g id="patch_48">
    <path clip-path="url(#p6a85fab43f)" d="M 446.695225 163.195278 
L 453.587025 163.195278 
L 453.587025 163.191404 
L 446.695225 163.191404 
z
" style="fill:#440154;opacity:0.2;"/>
   </g>
   <g id="patch_49">
    <path clip-path="url(#p6a85fab43f)" d="M 455.309975 163.195278 
L 462.201775 163.195278 
L 462.201775 163.108557 
L 455.309975 163.108557 
z
" style="fill:#440154;opacity:0.2;"/>
   </g>
   <g id="patch_50">
    <path clip-path="url(#p6a85fab43f)" d="M 463.924725 163.195278 
L 470.816525 163.195278 
L 470.816525 163.166533 
L 463.924725 163.166533 
z
" style="fill:#440154;opacity:0.2;"/>
   </g>
   <g id="patch_51">
    <path clip-path="url(#p6a85fab43f)" d="M 472.539475 163.195278 
L 479.431275 163.195278 
L 479.431275 163.157351 
L 472.539475 163.157351 
z
" style="fill:#440154;opacity:0.2;"/>
   </g>
   <g id="patch_52">
    <path clip-path="url(#p6a85fab43f)" d="M 481.154225 163.195278 
L 488.046025 163.195278 
L 488.046025 163.187746 
L 481.154225 163.187746 
z
" style="fill:#440154;opacity:0.2;"/>
   </g>
   <g id="matplotlib.axis_1">
    <g id="xtick_1">
     <g id="line2d_1">
      <defs>
       <path d="M 0 0 
L 0 3.5 
" id="m25b0de0252" style="stroke:#000000;stroke-width:0.8;"/>
      </defs>
      <g>
       <use style="stroke:#000000;stroke-width:0.8;" x="58.17" xlink:href="#m25b0de0252" y="164.195278"/>
      </g>
     </g>
     <g id="text_1">
      <!-- 0 -->
      <defs>
       <path d="M 31.78125 66.40625 
Q 24.171875 66.40625 20.328125 58.90625 
Q 16.5 51.421875 16.5 36.375 
Q 16.5 21.390625 20.328125 13.890625 
Q 24.171875 6.390625 31.78125 6.390625 
Q 39.453125 6.390625 43.28125 13.890625 
Q 47.125 21.390625 47.125 36.375 
Q 47.125 51.421875 43.28125 58.90625 
Q 39.453125 66.40625 31.78125 66.40625 
z
M 31.78125 74.21875 
Q 44.046875 74.21875 50.515625 64.515625 
Q 56.984375 54.828125 56.984375 36.375 
Q 56.984375 17.96875 50.515625 8.265625 
Q 44.046875 -1.421875 31.78125 -1.421875 
Q 19.53125 -1.421875 13.0625 8.265625 
Q 6.59375 17.96875 6.59375 36.375 
Q 6.59375 54.828125 13.0625 64.515625 
Q 19.53125 74.21875 31.78125 74.21875 
z
" id="DejaVuSans-48"/>
      </defs>
      <g transform="translate(54.98875 178.793715)scale(0.1 -0.1)">
       <use xlink:href="#DejaVuSans-48"/>
      </g>
     </g>
    </g>
    <g id="xtick_2">
     <g id="line2d_2">
      <g>
       <use style="stroke:#000000;stroke-width:0.8;" x="144.3175" xlink:href="#m25b0de0252" y="164.195278"/>
      </g>
     </g>
     <g id="text_2">
      <!-- 1 -->
      <defs>
       <path d="M 12.40625 8.296875 
L 28.515625 8.296875 
L 28.515625 63.921875 
L 10.984375 60.40625 
L 10.984375 69.390625 
L 28.421875 72.90625 
L 38.28125 72.90625 
L 38.28125 8.296875 
L 54.390625 8.296875 
L 54.390625 0 
L 12.40625 0 
z
" id="DejaVuSans-49"/>
      </defs>
      <g transform="translate(141.13625 178.793715)scale(0.1 -0.1)">
       <use xlink:href="#DejaVuSans-49"/>
      </g>
     </g>
    </g>
    <g id="xtick_3">
     <g id="line2d_3">
      <g>
       <use style="stroke:#000000;stroke-width:0.8;" x="230.465" xlink:href="#m25b0de0252" y="164.195278"/>
      </g>
     </g>
     <g id="text_3">
      <!-- 2 -->
      <defs>
       <path d="M 19.1875 8.296875 
L 53.609375 8.296875 
L 53.609375 0 
L 7.328125 0 
L 7.328125 8.296875 
Q 12.9375 14.109375 22.625 23.890625 
Q 32.328125 33.6875 34.8125 36.53125 
Q 39.546875 41.84375 41.421875 45.53125 
Q 43.3125 49.21875 43.3125 52.78125 
Q 43.3125 58.59375 39.234375 62.25 
Q 35.15625 65.921875 28.609375 65.921875 
Q 23.96875 65.921875 18.8125 64.3125 
Q 13.671875 62.703125 7.8125 59.421875 
L 7.8125 69.390625 
Q 13.765625 71.78125 18.9375 73 
Q 24.125 74.21875 28.421875 74.21875 
Q 39.75 74.21875 46.484375 68.546875 
Q 53.21875 62.890625 53.21875 53.421875 
Q 53.21875 48.921875 51.53125 44.890625 
Q 49.859375 40.875 45.40625 35.40625 
Q 44.1875 33.984375 37.640625 27.21875 
Q 31.109375 20.453125 19.1875 8.296875 
z
" id="DejaVuSans-50"/>
      </defs>
      <g transform="translate(227.28375 178.793715)scale(0.1 -0.1)">
       <use xlink:href="#DejaVuSans-50"/>
      </g>
     </g>
    </g>
   </g>
   <g id="matplotlib.axis_2">
    <g id="ytick_1">
     <g id="line2d_4">
      <defs>
       <path d="M 0 0 
L -3.5 0 
" id="m1733f4b5b5" style="stroke:#000000;stroke-width:0.8;"/>
      </defs>
      <g>
       <use style="stroke:#000000;stroke-width:0.8;" x="57.17" xlink:href="#m1733f4b5b5" y="163.195278"/>
      </g>
     </g>
     <g id="text_4">
      <!-- 0 -->
      <g transform="translate(43.8075 166.994497)scale(0.1 -0.1)">
       <use xlink:href="#DejaVuSans-48"/>
      </g>
     </g>
    </g>
    <g id="ytick_2">
     <g id="line2d_5">
      <g>
       <use style="stroke:#000000;stroke-width:0.8;" x="57.17" xlink:href="#m1733f4b5b5" y="138.98649"/>
      </g>
     </g>
     <g id="text_5">
      <!-- 500 -->
      <defs>
       <path d="M 10.796875 72.90625 
L 49.515625 72.90625 
L 49.515625 64.59375 
L 19.828125 64.59375 
L 19.828125 46.734375 
Q 21.96875 47.46875 24.109375 47.828125 
Q 26.265625 48.1875 28.421875 48.1875 
Q 40.625 48.1875 47.75 41.5 
Q 54.890625 34.8125 54.890625 23.390625 
Q 54.890625 11.625 47.5625 5.09375 
Q 40.234375 -1.421875 26.90625 -1.421875 
Q 22.3125 -1.421875 17.546875 -0.640625 
Q 12.796875 0.140625 7.71875 1.703125 
L 7.71875 11.625 
Q 12.109375 9.234375 16.796875 8.0625 
Q 21.484375 6.890625 26.703125 6.890625 
Q 35.15625 6.890625 40.078125 11.328125 
Q 45.015625 15.765625 45.015625 23.390625 
Q 45.015625 31 40.078125 35.4375 
Q 35.15625 39.890625 26.703125 39.890625 
Q 22.75 39.890625 18.8125 39.015625 
Q 14.890625 38.140625 10.796875 36.28125 
z
" id="DejaVuSans-53"/>
      </defs>
      <g transform="translate(31.0825 142.785709)scale(0.1 -0.1)">
       <use xlink:href="#DejaVuSans-53"/>
       <use x="63.623047" xlink:href="#DejaVuSans-48"/>
       <use x="127.246094" xlink:href="#DejaVuSans-48"/>
      </g>
     </g>
    </g>
    <g id="ytick_3">
     <g id="line2d_6">
      <g>
       <use style="stroke:#000000;stroke-width:0.8;" x="57.17" xlink:href="#m1733f4b5b5" y="114.777703"/>
      </g>
     </g>
     <g id="text_6">
      <!-- 1000 -->
      <g transform="translate(24.72 118.576922)scale(0.1 -0.1)">
       <use xlink:href="#DejaVuSans-49"/>
       <use x="63.623047" xlink:href="#DejaVuSans-48"/>
       <use x="127.246094" xlink:href="#DejaVuSans-48"/>
       <use x="190.869141" xlink:href="#DejaVuSans-48"/>
      </g>
     </g>
    </g>
    <g id="ytick_4">
     <g id="line2d_7">
      <g>
       <use style="stroke:#000000;stroke-width:0.8;" x="57.17" xlink:href="#m1733f4b5b5" y="90.568916"/>
      </g>
     </g>
     <g id="text_7">
      <!-- 1500 -->
      <g transform="translate(24.72 94.368134)scale(0.1 -0.1)">
       <use xlink:href="#DejaVuSans-49"/>
       <use x="63.623047" xlink:href="#DejaVuSans-53"/>
       <use x="127.246094" xlink:href="#DejaVuSans-48"/>
       <use x="190.869141" xlink:href="#DejaVuSans-48"/>
      </g>
     </g>
    </g>
    <g id="ytick_5">
     <g id="line2d_8">
      <g>
       <use style="stroke:#000000;stroke-width:0.8;" x="57.17" xlink:href="#m1733f4b5b5" y="66.360128"/>
      </g>
     </g>
     <g id="text_8">
      <!-- 2000 -->
      <g transform="translate(24.72 70.159347)scale(0.1 -0.1)">
       <use xlink:href="#DejaVuSans-50"/>
       <use x="63.623047" xlink:href="#DejaVuSans-48"/>
       <use x="127.246094" xlink:href="#DejaVuSans-48"/>
       <use x="190.869141" xlink:href="#DejaVuSans-48"/>
      </g>
     </g>
    </g>
    <g id="text_9">
     <!-- Duplication events -->
     <defs>
      <path d="M 19.671875 64.796875 
L 19.671875 8.109375 
L 31.59375 8.109375 
Q 46.6875 8.109375 53.6875 14.9375 
Q 60.6875 21.78125 60.6875 36.53125 
Q 60.6875 51.171875 53.6875 57.984375 
Q 46.6875 64.796875 31.59375 64.796875 
z
M 9.8125 72.90625 
L 30.078125 72.90625 
Q 51.265625 72.90625 61.171875 64.09375 
Q 71.09375 55.28125 71.09375 36.53125 
Q 71.09375 17.671875 61.125 8.828125 
Q 51.171875 0 30.078125 0 
L 9.8125 0 
z
" id="DejaVuSans-68"/>
      <path d="M 8.5 21.578125 
L 8.5 54.6875 
L 17.484375 54.6875 
L 17.484375 21.921875 
Q 17.484375 14.15625 20.5 10.265625 
Q 23.53125 6.390625 29.59375 6.390625 
Q 36.859375 6.390625 41.078125 11.03125 
Q 45.3125 15.671875 45.3125 23.6875 
L 45.3125 54.6875 
L 54.296875 54.6875 
L 54.296875 0 
L 45.3125 0 
L 45.3125 8.40625 
Q 42.046875 3.421875 37.71875 1 
Q 33.40625 -1.421875 27.6875 -1.421875 
Q 18.265625 -1.421875 13.375 4.4375 
Q 8.5 10.296875 8.5 21.578125 
z
M 31.109375 56 
z
" id="DejaVuSans-117"/>
      <path d="M 18.109375 8.203125 
L 18.109375 -20.796875 
L 9.078125 -20.796875 
L 9.078125 54.6875 
L 18.109375 54.6875 
L 18.109375 46.390625 
Q 20.953125 51.265625 25.265625 53.625 
Q 29.59375 56 35.59375 56 
Q 45.5625 56 51.78125 48.09375 
Q 58.015625 40.1875 58.015625 27.296875 
Q 58.015625 14.40625 51.78125 6.484375 
Q 45.5625 -1.421875 35.59375 -1.421875 
Q 29.59375 -1.421875 25.265625 0.953125 
Q 20.953125 3.328125 18.109375 8.203125 
z
M 48.6875 27.296875 
Q 48.6875 37.203125 44.609375 42.84375 
Q 40.53125 48.484375 33.40625 48.484375 
Q 26.265625 48.484375 22.1875 42.84375 
Q 18.109375 37.203125 18.109375 27.296875 
Q 18.109375 17.390625 22.1875 11.75 
Q 26.265625 6.109375 33.40625 6.109375 
Q 40.53125 6.109375 44.609375 11.75 
Q 48.6875 17.390625 48.6875 27.296875 
z
" id="DejaVuSans-112"/>
      <path d="M 9.421875 75.984375 
L 18.40625 75.984375 
L 18.40625 0 
L 9.421875 0 
z
" id="DejaVuSans-108"/>
      <path d="M 9.421875 54.6875 
L 18.40625 54.6875 
L 18.40625 0 
L 9.421875 0 
z
M 9.421875 75.984375 
L 18.40625 75.984375 
L 18.40625 64.59375 
L 9.421875 64.59375 
z
" id="DejaVuSans-105"/>
      <path d="M 48.78125 52.59375 
L 48.78125 44.1875 
Q 44.96875 46.296875 41.140625 47.34375 
Q 37.3125 48.390625 33.40625 48.390625 
Q 24.65625 48.390625 19.8125 42.84375 
Q 14.984375 37.3125 14.984375 27.296875 
Q 14.984375 17.28125 19.8125 11.734375 
Q 24.65625 6.203125 33.40625 6.203125 
Q 37.3125 6.203125 41.140625 7.25 
Q 44.96875 8.296875 48.78125 10.40625 
L 48.78125 2.09375 
Q 45.015625 0.34375 40.984375 -0.53125 
Q 36.96875 -1.421875 32.421875 -1.421875 
Q 20.0625 -1.421875 12.78125 6.34375 
Q 5.515625 14.109375 5.515625 27.296875 
Q 5.515625 40.671875 12.859375 48.328125 
Q 20.21875 56 33.015625 56 
Q 37.15625 56 41.109375 55.140625 
Q 45.0625 54.296875 48.78125 52.59375 
z
" id="DejaVuSans-99"/>
      <path d="M 34.28125 27.484375 
Q 23.390625 27.484375 19.1875 25 
Q 14.984375 22.515625 14.984375 16.5 
Q 14.984375 11.71875 18.140625 8.90625 
Q 21.296875 6.109375 26.703125 6.109375 
Q 34.1875 6.109375 38.703125 11.40625 
Q 43.21875 16.703125 43.21875 25.484375 
L 43.21875 27.484375 
z
M 52.203125 31.203125 
L 52.203125 0 
L 43.21875 0 
L 43.21875 8.296875 
Q 40.140625 3.328125 35.546875 0.953125 
Q 30.953125 -1.421875 24.3125 -1.421875 
Q 15.921875 -1.421875 10.953125 3.296875 
Q 6 8.015625 6 15.921875 
Q 6 25.140625 12.171875 29.828125 
Q 18.359375 34.515625 30.609375 34.515625 
L 43.21875 34.515625 
L 43.21875 35.40625 
Q 43.21875 41.609375 39.140625 45 
Q 35.0625 48.390625 27.6875 48.390625 
Q 23 48.390625 18.546875 47.265625 
Q 14.109375 46.140625 10.015625 43.890625 
L 10.015625 52.203125 
Q 14.9375 54.109375 19.578125 55.046875 
Q 24.21875 56 28.609375 56 
Q 40.484375 56 46.34375 49.84375 
Q 52.203125 43.703125 52.203125 31.203125 
z
" id="DejaVuSans-97"/>
      <path d="M 18.3125 70.21875 
L 18.3125 54.6875 
L 36.8125 54.6875 
L 36.8125 47.703125 
L 18.3125 47.703125 
L 18.3125 18.015625 
Q 18.3125 11.328125 20.140625 9.421875 
Q 21.96875 7.515625 27.59375 7.515625 
L 36.8125 7.515625 
L 36.8125 0 
L 27.59375 0 
Q 17.1875 0 13.234375 3.875 
Q 9.28125 7.765625 9.28125 18.015625 
L 9.28125 47.703125 
L 2.6875 47.703125 
L 2.6875 54.6875 
L 9.28125 54.6875 
L 9.28125 70.21875 
z
" id="DejaVuSans-116"/>
      <path d="M 30.609375 48.390625 
Q 23.390625 48.390625 19.1875 42.75 
Q 14.984375 37.109375 14.984375 27.296875 
Q 14.984375 17.484375 19.15625 11.84375 
Q 23.34375 6.203125 30.609375 6.203125 
Q 37.796875 6.203125 41.984375 11.859375 
Q 46.1875 17.53125 46.1875 27.296875 
Q 46.1875 37.015625 41.984375 42.703125 
Q 37.796875 48.390625 30.609375 48.390625 
z
M 30.609375 56 
Q 42.328125 56 49.015625 48.375 
Q 55.71875 40.765625 55.71875 27.296875 
Q 55.71875 13.875 49.015625 6.21875 
Q 42.328125 -1.421875 30.609375 -1.421875 
Q 18.84375 -1.421875 12.171875 6.21875 
Q 5.515625 13.875 5.515625 27.296875 
Q 5.515625 40.765625 12.171875 48.375 
Q 18.84375 56 30.609375 56 
z
" id="DejaVuSans-111"/>
      <path d="M 54.890625 33.015625 
L 54.890625 0 
L 45.90625 0 
L 45.90625 32.71875 
Q 45.90625 40.484375 42.875 44.328125 
Q 39.84375 48.1875 33.796875 48.1875 
Q 26.515625 48.1875 22.3125 43.546875 
Q 18.109375 38.921875 18.109375 30.90625 
L 18.109375 0 
L 9.078125 0 
L 9.078125 54.6875 
L 18.109375 54.6875 
L 18.109375 46.1875 
Q 21.34375 51.125 25.703125 53.5625 
Q 30.078125 56 35.796875 56 
Q 45.21875 56 50.046875 50.171875 
Q 54.890625 44.34375 54.890625 33.015625 
z
" id="DejaVuSans-110"/>
      <path id="DejaVuSans-32"/>
      <path d="M 56.203125 29.59375 
L 56.203125 25.203125 
L 14.890625 25.203125 
Q 15.484375 15.921875 20.484375 11.0625 
Q 25.484375 6.203125 34.421875 6.203125 
Q 39.59375 6.203125 44.453125 7.46875 
Q 49.3125 8.734375 54.109375 11.28125 
L 54.109375 2.78125 
Q 49.265625 0.734375 44.1875 -0.34375 
Q 39.109375 -1.421875 33.890625 -1.421875 
Q 20.796875 -1.421875 13.15625 6.1875 
Q 5.515625 13.8125 5.515625 26.8125 
Q 5.515625 40.234375 12.765625 48.109375 
Q 20.015625 56 32.328125 56 
Q 43.359375 56 49.78125 48.890625 
Q 56.203125 41.796875 56.203125 29.59375 
z
M 47.21875 32.234375 
Q 47.125 39.59375 43.09375 43.984375 
Q 39.0625 48.390625 32.421875 48.390625 
Q 24.90625 48.390625 20.390625 44.140625 
Q 15.875 39.890625 15.1875 32.171875 
z
" id="DejaVuSans-101"/>
      <path d="M 2.984375 54.6875 
L 12.5 54.6875 
L 29.59375 8.796875 
L 46.6875 54.6875 
L 56.203125 54.6875 
L 35.6875 0 
L 23.484375 0 
z
" id="DejaVuSans-118"/>
      <path d="M 44.28125 53.078125 
L 44.28125 44.578125 
Q 40.484375 46.53125 36.375 47.5 
Q 32.28125 48.484375 27.875 48.484375 
Q 21.1875 48.484375 17.84375 46.4375 
Q 14.5 44.390625 14.5 40.28125 
Q 14.5 37.15625 16.890625 35.375 
Q 19.28125 33.59375 26.515625 31.984375 
L 29.59375 31.296875 
Q 39.15625 29.25 43.1875 25.515625 
Q 47.21875 21.78125 47.21875 15.09375 
Q 47.21875 7.46875 41.1875 3.015625 
Q 35.15625 -1.421875 24.609375 -1.421875 
Q 20.21875 -1.421875 15.453125 -0.5625 
Q 10.6875 0.296875 5.421875 2 
L 5.421875 11.28125 
Q 10.40625 8.6875 15.234375 7.390625 
Q 20.0625 6.109375 24.8125 6.109375 
Q 31.15625 6.109375 34.5625 8.28125 
Q 37.984375 10.453125 37.984375 14.40625 
Q 37.984375 18.0625 35.515625 20.015625 
Q 33.0625 21.96875 24.703125 23.78125 
L 21.578125 24.515625 
Q 13.234375 26.265625 9.515625 29.90625 
Q 5.8125 33.546875 5.8125 39.890625 
Q 5.8125 47.609375 11.28125 51.796875 
Q 16.75 56 26.8125 56 
Q 31.78125 56 36.171875 55.265625 
Q 40.578125 54.546875 44.28125 53.078125 
z
" id="DejaVuSans-115"/>
     </defs>
     <g transform="translate(18.640313 154.314514)rotate(-90)scale(0.1 -0.1)">
      <use xlink:href="#DejaVuSans-68"/>
      <use x="77.001953" xlink:href="#DejaVuSans-117"/>
      <use x="140.380859" xlink:href="#DejaVuSans-112"/>
      <use x="203.857422" xlink:href="#DejaVuSans-108"/>
      <use x="231.640625" xlink:href="#DejaVuSans-105"/>
      <use x="259.423828" xlink:href="#DejaVuSans-99"/>
      <use x="314.404297" xlink:href="#DejaVuSans-97"/>
      <use x="375.683594" xlink:href="#DejaVuSans-116"/>
      <use x="414.892578" xlink:href="#DejaVuSans-105"/>
      <use x="442.675781" xlink:href="#DejaVuSans-111"/>
      <use x="503.857422" xlink:href="#DejaVuSans-110"/>
      <use x="567.236328" xlink:href="#DejaVuSans-32"/>
      <use x="599.023438" xlink:href="#DejaVuSans-101"/>
      <use x="660.546875" xlink:href="#DejaVuSans-118"/>
      <use x="719.726562" xlink:href="#DejaVuSans-101"/>
      <use x="781.25" xlink:href="#DejaVuSans-110"/>
      <use x="844.628906" xlink:href="#DejaVuSans-116"/>
      <use x="883.837891" xlink:href="#DejaVuSans-115"/>
     </g>
    </g>
   </g>
   <g id="line2d_9">
    <path clip-path="url(#p6a85fab43f)" d="M 58.17 159.337978 
L 59.203977 158.91019 
L 60.324118 158.688544 
L 63.167555 158.256042 
L 64.287696 157.777566 
L 65.407838 157.047907 
L 66.614144 155.976378 
L 67.734285 154.683658 
L 68.768262 153.147318 
L 69.716074 151.317043 
L 70.577722 149.159336 
L 71.439369 146.380998 
L 72.301016 142.835768 
L 73.248828 137.90039 
L 74.19664 131.77285 
L 75.316782 122.965526 
L 76.609253 110.912946 
L 78.677206 89.119533 
L 80.658995 69.071244 
L 81.779137 59.888088 
L 82.640784 54.441807 
L 83.416267 50.914197 
L 84.01942 49.107132 
L 84.536408 48.208305 
L 84.967232 47.90709 
L 85.311891 47.950281 
L 85.65655 48.237544 
L 86.087373 48.92618 
L 86.604362 50.210358 
L 87.29368 52.63951 
L 88.069162 56.244047 
L 89.103139 62.245221 
L 90.481775 71.791225 
L 95.479329 107.998023 
L 96.94413 116.153768 
L 98.495095 123.497412 
L 100.132225 130.209658 
L 101.769355 136.009801 
L 103.234155 140.396896 
L 104.612791 143.829214 
L 105.991427 146.658266 
L 107.370063 148.997789 
L 108.834863 151.051182 
L 110.213499 152.619423 
L 111.592134 153.855827 
L 113.1431 154.929037 
L 115.641877 156.326516 
L 118.226819 157.566373 
L 119.950114 158.138474 
L 122.62122 158.732129 
L 127.101786 159.566154 
L 137.872378 160.744037 
L 143.473086 160.970978 
L 147.264334 161.260271 
L 150.624758 161.215256 
L 153.123536 161.271878 
L 155.363819 161.565797 
L 158.810408 162.027303 
L 161.653844 162.113936 
L 166.479069 162.286486 
L 169.667164 162.304032 
L 176.646508 161.974067 
L 179.403779 161.946262 
L 182.419545 162.178643 
L 186.900111 162.508628 
L 189.571218 162.453789 
L 194.051784 162.324643 
L 198.015362 162.278858 
L 202.065104 162.160815 
L 205.511693 162.385326 
L 211.370895 162.712741 
L 214.386661 162.676773 
L 219.815039 162.53512 
L 227.569865 162.631072 
L 230.499466 162.74597 
L 230.499466 162.74597 
" style="fill:none;stroke:#440154;stroke-dasharray:3.7,1.6;stroke-dashoffset:0;stroke-opacity:0.4;"/>
   </g>
   <g id="line2d_10">
    <path clip-path="url(#p6a85fab43f)" d="M 85.053397 163.195278 
L 85.053397 51.84 
" style="fill:none;stroke:#440154;stroke-dasharray:1,1.65;stroke-dashoffset:0;stroke-opacity:0.8;"/>
   </g>
   <g id="patch_53">
    <path d="M 57.17 163.195278 
L 57.17 51.84 
" style="fill:none;stroke:#000000;stroke-linecap:square;stroke-linejoin:miter;stroke-width:0.8;"/>
   </g>
   <g id="patch_54">
    <path d="M 58.17 164.195278 
L 230.465 164.195278 
" style="fill:none;stroke:#000000;stroke-linecap:square;stroke-linejoin:miter;stroke-width:0.8;"/>
   </g>
   <g id="legend_1">
    <g id="patch_55">
     <path d="M 182.407969 60.139219 
L 192.407969 60.139219 
L 192.407969 56.639219 
L 182.407969 56.639219 
z
" style="fill:#440154;opacity:0.2;"/>
    </g>
    <g id="text_10">
     <!-- component 0 -->
     <defs>
      <path d="M 52 44.1875 
Q 55.375 50.25 60.0625 53.125 
Q 64.75 56 71.09375 56 
Q 79.640625 56 84.28125 50.015625 
Q 88.921875 44.046875 88.921875 33.015625 
L 88.921875 0 
L 79.890625 0 
L 79.890625 32.71875 
Q 79.890625 40.578125 77.09375 44.375 
Q 74.3125 48.1875 68.609375 48.1875 
Q 61.625 48.1875 57.5625 43.546875 
Q 53.515625 38.921875 53.515625 30.90625 
L 53.515625 0 
L 44.484375 0 
L 44.484375 32.71875 
Q 44.484375 40.625 41.703125 44.40625 
Q 38.921875 48.1875 33.109375 48.1875 
Q 26.21875 48.1875 22.15625 43.53125 
Q 18.109375 38.875 18.109375 30.90625 
L 18.109375 0 
L 9.078125 0 
L 9.078125 54.6875 
L 18.109375 54.6875 
L 18.109375 46.1875 
Q 21.1875 51.21875 25.484375 53.609375 
Q 29.78125 56 35.6875 56 
Q 41.65625 56 45.828125 52.96875 
Q 50 49.953125 52 44.1875 
z
" id="DejaVuSans-109"/>
     </defs>
     <g transform="translate(192.907969 60.139219)scale(0.05 -0.05)">
      <use xlink:href="#DejaVuSans-99"/>
      <use x="54.980469" xlink:href="#DejaVuSans-111"/>
      <use x="116.162109" xlink:href="#DejaVuSans-109"/>
      <use x="213.574219" xlink:href="#DejaVuSans-112"/>
      <use x="277.050781" xlink:href="#DejaVuSans-111"/>
      <use x="338.232422" xlink:href="#DejaVuSans-110"/>
      <use x="401.611328" xlink:href="#DejaVuSans-101"/>
      <use x="463.134766" xlink:href="#DejaVuSans-110"/>
      <use x="526.513672" xlink:href="#DejaVuSans-116"/>
      <use x="565.722656" xlink:href="#DejaVuSans-32"/>
      <use x="597.509766" xlink:href="#DejaVuSans-48"/>
     </g>
    </g>
   </g>
  </g>
  <g id="axes_2">
   <g id="patch_56">
    <path d="M 277.705 163.195278 
L 450 163.195278 
L 450 51.84 
L 277.705 51.84 
z
" style="fill:#ffffff;"/>
   </g>
   <g id="patch_57">
    <path clip-path="url(#p8e67abd7f4)" d="M 285.536591 163.195278 
L 287.331798 163.195278 
L 287.331798 163.195278 
L 285.536591 163.195278 
z
" style="fill:#440154;opacity:0.2;"/>
   </g>
   <g id="patch_58">
    <path clip-path="url(#p8e67abd7f4)" d="M 287.7806 163.195278 
L 289.575807 163.195278 
L 289.575807 163.195278 
L 287.7806 163.195278 
z
" style="fill:#440154;opacity:0.2;"/>
   </g>
   <g id="patch_59">
    <path clip-path="url(#p8e67abd7f4)" d="M 290.024609 163.195278 
L 291.819816 163.195278 
L 291.819816 163.195278 
L 290.024609 163.195278 
z
" style="fill:#440154;opacity:0.2;"/>
   </g>
   <g id="patch_60">
    <path clip-path="url(#p8e67abd7f4)" d="M 292.268617 163.195278 
L 294.063825 163.195278 
L 294.063825 163.195278 
L 292.268617 163.195278 
z
" style="fill:#440154;opacity:0.2;"/>
   </g>
   <g id="patch_61">
    <path clip-path="url(#p8e67abd7f4)" d="M 294.512626 163.195278 
L 296.307833 163.195278 
L 296.307833 163.195278 
L 294.512626 163.195278 
z
" style="fill:#440154;opacity:0.2;"/>
   </g>
   <g id="patch_62">
    <path clip-path="url(#p8e67abd7f4)" d="M 296.756635 163.195278 
L 298.551842 163.195278 
L 298.551842 163.195278 
L 296.756635 163.195278 
z
" style="fill:#440154;opacity:0.2;"/>
   </g>
   <g id="patch_63">
    <path clip-path="url(#p8e67abd7f4)" d="M 299.000644 163.195278 
L 300.795851 163.195278 
L 300.795851 163.195278 
L 299.000644 163.195278 
z
" style="fill:#440154;opacity:0.2;"/>
   </g>
   <g id="patch_64">
    <path clip-path="url(#p8e67abd7f4)" d="M 301.244653 163.195278 
L 303.03986 163.195278 
L 303.03986 163.195278 
L 301.244653 163.195278 
z
" style="fill:#440154;opacity:0.2;"/>
   </g>
   <g id="patch_65">
    <path clip-path="url(#p8e67abd7f4)" d="M 303.488662 163.195278 
L 305.283869 163.195278 
L 305.283869 163.195278 
L 303.488662 163.195278 
z
" style="fill:#440154;opacity:0.2;"/>
   </g>
   <g id="patch_66">
    <path clip-path="url(#p8e67abd7f4)" d="M 305.732671 163.195278 
L 307.527878 163.195278 
L 307.527878 163.195278 
L 305.732671 163.195278 
z
" style="fill:#440154;opacity:0.2;"/>
   </g>
   <g id="patch_67">
    <path clip-path="url(#p8e67abd7f4)" d="M 307.976679 163.195278 
L 309.771887 163.195278 
L 309.771887 162.668997 
L 307.976679 162.668997 
z
" style="fill:#440154;opacity:0.2;"/>
   </g>
   <g id="patch_68">
    <path clip-path="url(#p8e67abd7f4)" d="M 310.220688 163.195278 
L 312.015895 163.195278 
L 312.015895 163.195278 
L 310.220688 163.195278 
z
" style="fill:#440154;opacity:0.2;"/>
   </g>
   <g id="patch_69">
    <path clip-path="url(#p8e67abd7f4)" d="M 312.464697 163.195278 
L 314.259904 163.195278 
L 314.259904 163.195278 
L 312.464697 163.195278 
z
" style="fill:#440154;opacity:0.2;"/>
   </g>
   <g id="patch_70">
    <path clip-path="url(#p8e67abd7f4)" d="M 314.708706 163.195278 
L 316.503913 163.195278 
L 316.503913 162.985564 
L 314.708706 162.985564 
z
" style="fill:#440154;opacity:0.2;"/>
   </g>
   <g id="patch_71">
    <path clip-path="url(#p8e67abd7f4)" d="M 316.952715 163.195278 
L 318.747922 163.195278 
L 318.747922 163.015523 
L 316.952715 163.015523 
z
" style="fill:#440154;opacity:0.2;"/>
   </g>
   <g id="patch_72">
    <path clip-path="url(#p8e67abd7f4)" d="M 319.196724 163.195278 
L 320.991931 163.195278 
L 320.991931 163.195278 
L 319.196724 163.195278 
z
" style="fill:#440154;opacity:0.2;"/>
   </g>
   <g id="patch_73">
    <path clip-path="url(#p8e67abd7f4)" d="M 321.440733 163.195278 
L 323.23594 163.195278 
L 323.23594 162.925646 
L 321.440733 162.925646 
z
" style="fill:#440154;opacity:0.2;"/>
   </g>
   <g id="patch_74">
    <path clip-path="url(#p8e67abd7f4)" d="M 323.684741 163.195278 
L 325.479949 163.195278 
L 325.479949 163.13536 
L 323.684741 163.13536 
z
" style="fill:#440154;opacity:0.2;"/>
   </g>
   <g id="patch_75">
    <path clip-path="url(#p8e67abd7f4)" d="M 325.92875 163.195278 
L 327.723957 163.195278 
L 327.723957 163.105401 
L 325.92875 163.105401 
z
" style="fill:#440154;opacity:0.2;"/>
   </g>
   <g id="patch_76">
    <path clip-path="url(#p8e67abd7f4)" d="M 328.172759 163.195278 
L 329.967966 163.195278 
L 329.967966 163.075442 
L 328.172759 163.075442 
z
" style="fill:#440154;opacity:0.2;"/>
   </g>
   <g id="patch_77">
    <path clip-path="url(#p8e67abd7f4)" d="M 330.416768 163.195278 
L 332.211975 163.195278 
L 332.211975 163.075442 
L 330.416768 163.075442 
z
" style="fill:#440154;opacity:0.2;"/>
   </g>
   <g id="patch_78">
    <path clip-path="url(#p8e67abd7f4)" d="M 332.660777 163.195278 
L 334.455984 163.195278 
L 334.455984 163.015523 
L 332.660777 163.015523 
z
" style="fill:#440154;opacity:0.2;"/>
   </g>
   <g id="patch_79">
    <path clip-path="url(#p8e67abd7f4)" d="M 334.904786 163.195278 
L 336.699993 163.195278 
L 336.699993 163.060462 
L 334.904786 163.060462 
z
" style="fill:#440154;opacity:0.2;"/>
   </g>
   <g id="patch_80">
    <path clip-path="url(#p8e67abd7f4)" d="M 337.148795 163.195278 
L 338.944002 163.195278 
L 338.944002 163.105401 
L 337.148795 163.105401 
z
" style="fill:#440154;opacity:0.2;"/>
   </g>
   <g id="patch_81">
    <path clip-path="url(#p8e67abd7f4)" d="M 339.392803 163.195278 
L 341.188011 163.195278 
L 341.188011 163.018377 
L 339.392803 163.018377 
z
" style="fill:#440154;opacity:0.2;"/>
   </g>
   <g id="patch_82">
    <path clip-path="url(#p8e67abd7f4)" d="M 341.636812 163.195278 
L 343.432019 163.195278 
L 343.432019 163.195278 
L 341.636812 163.195278 
z
" style="fill:#440154;opacity:0.2;"/>
   </g>
   <g id="patch_83">
    <path clip-path="url(#p8e67abd7f4)" d="M 343.880821 163.195278 
L 345.676028 163.195278 
L 345.676028 163.180298 
L 343.880821 163.180298 
z
" style="fill:#440154;opacity:0.2;"/>
   </g>
   <g id="patch_84">
    <path clip-path="url(#p8e67abd7f4)" d="M 346.12483 163.195278 
L 347.920037 163.195278 
L 347.920037 163.165319 
L 346.12483 163.165319 
z
" style="fill:#440154;opacity:0.2;"/>
   </g>
   <g id="patch_85">
    <path clip-path="url(#p8e67abd7f4)" d="M 348.368839 163.195278 
L 350.164046 163.195278 
L 350.164046 163.195278 
L 348.368839 163.195278 
z
" style="fill:#440154;opacity:0.2;"/>
   </g>
   <g id="patch_86">
    <path clip-path="url(#p8e67abd7f4)" d="M 350.612848 163.195278 
L 352.408055 163.195278 
L 352.408055 163.195278 
L 350.612848 163.195278 
z
" style="fill:#440154;opacity:0.2;"/>
   </g>
   <g id="patch_87">
    <path clip-path="url(#p8e67abd7f4)" d="M 352.856857 163.195278 
L 354.652064 163.195278 
L 354.652064 163.193946 
L 352.856857 163.193946 
z
" style="fill:#440154;opacity:0.2;"/>
   </g>
   <g id="patch_88">
    <path clip-path="url(#p8e67abd7f4)" d="M 355.100865 163.195278 
L 356.896073 163.195278 
L 356.896073 163.095509 
L 355.100865 163.095509 
z
" style="fill:#440154;opacity:0.2;"/>
   </g>
   <g id="patch_89">
    <path clip-path="url(#p8e67abd7f4)" d="M 357.344874 163.195278 
L 359.140081 163.195278 
L 359.140081 163.045482 
L 357.344874 163.045482 
z
" style="fill:#440154;opacity:0.2;"/>
   </g>
   <g id="patch_90">
    <path clip-path="url(#p8e67abd7f4)" d="M 359.588883 163.195278 
L 361.38409 163.195278 
L 361.38409 163.030503 
L 359.588883 163.030503 
z
" style="fill:#440154;opacity:0.2;"/>
   </g>
   <g id="patch_91">
    <path clip-path="url(#p8e67abd7f4)" d="M 361.832892 163.195278 
L 363.628099 163.195278 
L 363.628099 162.913092 
L 361.832892 162.913092 
z
" style="fill:#440154;opacity:0.2;"/>
   </g>
   <g id="patch_92">
    <path clip-path="url(#p8e67abd7f4)" d="M 364.076901 163.195278 
L 365.872108 163.195278 
L 365.872108 162.845356 
L 364.076901 162.845356 
z
" style="fill:#440154;opacity:0.2;"/>
   </g>
   <g id="patch_93">
    <path clip-path="url(#p8e67abd7f4)" d="M 366.32091 163.195278 
L 368.116117 163.195278 
L 368.116117 162.609744 
L 366.32091 162.609744 
z
" style="fill:#440154;opacity:0.2;"/>
   </g>
   <g id="patch_94">
    <path clip-path="url(#p8e67abd7f4)" d="M 368.564919 163.195278 
L 370.360126 163.195278 
L 370.360126 162.577671 
L 368.564919 162.577671 
z
" style="fill:#440154;opacity:0.2;"/>
   </g>
   <g id="patch_95">
    <path clip-path="url(#p8e67abd7f4)" d="M 370.808927 163.195278 
L 372.604135 163.195278 
L 372.604135 162.089205 
L 370.808927 162.089205 
z
" style="fill:#440154;opacity:0.2;"/>
   </g>
   <g id="patch_96">
    <path clip-path="url(#p8e67abd7f4)" d="M 373.052936 163.195278 
L 374.848143 163.195278 
L 374.848143 161.758241 
L 373.052936 161.758241 
z
" style="fill:#440154;opacity:0.2;"/>
   </g>
   <g id="patch_97">
    <path clip-path="url(#p8e67abd7f4)" d="M 375.296945 163.195278 
L 377.092152 163.195278 
L 377.092152 160.521192 
L 375.296945 160.521192 
z
" style="fill:#440154;opacity:0.2;"/>
   </g>
   <g id="patch_98">
    <path clip-path="url(#p8e67abd7f4)" d="M 377.540954 163.195278 
L 379.336161 163.195278 
L 379.336161 158.870352 
L 377.540954 158.870352 
z
" style="fill:#440154;opacity:0.2;"/>
   </g>
   <g id="patch_99">
    <path clip-path="url(#p8e67abd7f4)" d="M 379.784963 163.195278 
L 381.58017 163.195278 
L 381.58017 152.019542 
L 379.784963 152.019542 
z
" style="fill:#440154;opacity:0.2;"/>
   </g>
   <g id="patch_100">
    <path clip-path="url(#p8e67abd7f4)" d="M 382.028972 163.195278 
L 383.824179 163.195278 
L 383.824179 124.571699 
L 382.028972 124.571699 
z
" style="fill:#440154;opacity:0.2;"/>
   </g>
   <g id="patch_101">
    <path clip-path="url(#p8e67abd7f4)" d="M 384.272981 163.195278 
L 386.068188 163.195278 
L 386.068188 71.603181 
L 384.272981 71.603181 
z
" style="fill:#440154;opacity:0.2;"/>
   </g>
   <g id="patch_102">
    <path clip-path="url(#p8e67abd7f4)" d="M 386.516989 163.195278 
L 388.312197 163.195278 
L 388.312197 57.142632 
L 386.516989 57.142632 
z
" style="fill:#440154;opacity:0.2;"/>
   </g>
   <g id="patch_103">
    <path clip-path="url(#p8e67abd7f4)" d="M 388.760998 163.195278 
L 390.556205 163.195278 
L 390.556205 103.40794 
L 388.760998 103.40794 
z
" style="fill:#440154;opacity:0.2;"/>
   </g>
   <g id="patch_104">
    <path clip-path="url(#p8e67abd7f4)" d="M 391.005007 163.195278 
L 392.800214 163.195278 
L 392.800214 139.197796 
L 391.005007 139.197796 
z
" style="fill:#440154;opacity:0.2;"/>
   </g>
   <g id="patch_105">
    <path clip-path="url(#p8e67abd7f4)" d="M 393.249016 163.195278 
L 395.044223 163.195278 
L 395.044223 152.0837 
L 393.249016 152.0837 
z
" style="fill:#440154;opacity:0.2;"/>
   </g>
   <g id="patch_106">
    <path clip-path="url(#p8e67abd7f4)" d="M 395.493025 163.195278 
L 397.288232 163.195278 
L 397.288232 156.20214 
L 395.493025 156.20214 
z
" style="fill:#440154;opacity:0.2;"/>
   </g>
   <g id="patch_107">
    <path clip-path="url(#p8e67abd7f4)" d="M 397.737034 163.195278 
L 399.532241 163.195278 
L 399.532241 158.212435 
L 397.737034 158.212435 
z
" style="fill:#440154;opacity:0.2;"/>
   </g>
   <g id="patch_108">
    <path clip-path="url(#p8e67abd7f4)" d="M 399.981043 163.195278 
L 401.77625 163.195278 
L 401.77625 159.348266 
L 399.981043 159.348266 
z
" style="fill:#440154;opacity:0.2;"/>
   </g>
   <g id="patch_109">
    <path clip-path="url(#p8e67abd7f4)" d="M 402.225051 163.195278 
L 404.020259 163.195278 
L 404.020259 159.614527 
L 402.225051 159.614527 
z
" style="fill:#440154;opacity:0.2;"/>
   </g>
   <g id="patch_110">
    <path clip-path="url(#p8e67abd7f4)" d="M 404.46906 163.195278 
L 406.264267 163.195278 
L 406.264267 162.196678 
L 404.46906 162.196678 
z
" style="fill:#440154;opacity:0.2;"/>
   </g>
   <g id="patch_111">
    <path clip-path="url(#p8e67abd7f4)" d="M 406.713069 163.195278 
L 408.508276 163.195278 
L 408.508276 162.599197 
L 406.713069 162.599197 
z
" style="fill:#440154;opacity:0.2;"/>
   </g>
   <g id="patch_112">
    <path clip-path="url(#p8e67abd7f4)" d="M 408.957078 163.195278 
L 410.752285 163.195278 
L 410.752285 162.585918 
L 408.957078 162.585918 
z
" style="fill:#440154;opacity:0.2;"/>
   </g>
   <g id="patch_113">
    <path clip-path="url(#p8e67abd7f4)" d="M 411.201087 163.195278 
L 412.996294 163.195278 
L 412.996294 162.853523 
L 411.201087 162.853523 
z
" style="fill:#440154;opacity:0.2;"/>
   </g>
   <g id="patch_114">
    <path clip-path="url(#p8e67abd7f4)" d="M 413.445096 163.195278 
L 415.240303 163.195278 
L 415.240303 163.195278 
L 413.445096 163.195278 
z
" style="fill:#440154;opacity:0.2;"/>
   </g>
   <g id="patch_115">
    <path clip-path="url(#p8e67abd7f4)" d="M 415.689105 163.195278 
L 417.484312 163.195278 
L 417.484312 163.195278 
L 415.689105 163.195278 
z
" style="fill:#440154;opacity:0.2;"/>
   </g>
   <g id="patch_116">
    <path clip-path="url(#p8e67abd7f4)" d="M 417.933113 163.195278 
L 419.728321 163.195278 
L 419.728321 163.195278 
L 417.933113 163.195278 
z
" style="fill:#440154;opacity:0.2;"/>
   </g>
   <g id="patch_117">
    <path clip-path="url(#p8e67abd7f4)" d="M 420.177122 163.195278 
L 421.972329 163.195278 
L 421.972329 163.195278 
L 420.177122 163.195278 
z
" style="fill:#440154;opacity:0.2;"/>
   </g>
   <g id="patch_118">
    <path clip-path="url(#p8e67abd7f4)" d="M 422.421131 163.195278 
L 424.216338 163.195278 
L 424.216338 163.195278 
L 422.421131 163.195278 
z
" style="fill:#440154;opacity:0.2;"/>
   </g>
   <g id="patch_119">
    <path clip-path="url(#p8e67abd7f4)" d="M 424.66514 163.195278 
L 426.460347 163.195278 
L 426.460347 163.195278 
L 424.66514 163.195278 
z
" style="fill:#440154;opacity:0.2;"/>
   </g>
   <g id="patch_120">
    <path clip-path="url(#p8e67abd7f4)" d="M 426.909149 163.195278 
L 428.704356 163.195278 
L 428.704356 163.195278 
L 426.909149 163.195278 
z
" style="fill:#440154;opacity:0.2;"/>
   </g>
   <g id="patch_121">
    <path clip-path="url(#p8e67abd7f4)" d="M 429.153158 163.195278 
L 430.948365 163.195278 
L 430.948365 163.195278 
L 429.153158 163.195278 
z
" style="fill:#440154;opacity:0.2;"/>
   </g>
   <g id="patch_122">
    <path clip-path="url(#p8e67abd7f4)" d="M 431.397167 163.195278 
L 433.192374 163.195278 
L 433.192374 163.195278 
L 431.397167 163.195278 
z
" style="fill:#440154;opacity:0.2;"/>
   </g>
   <g id="patch_123">
    <path clip-path="url(#p8e67abd7f4)" d="M 433.641175 163.195278 
L 435.436383 163.195278 
L 435.436383 163.195278 
L 433.641175 163.195278 
z
" style="fill:#440154;opacity:0.2;"/>
   </g>
   <g id="patch_124">
    <path clip-path="url(#p8e67abd7f4)" d="M 435.885184 163.195278 
L 437.680391 163.195278 
L 437.680391 163.195278 
L 435.885184 163.195278 
z
" style="fill:#440154;opacity:0.2;"/>
   </g>
   <g id="patch_125">
    <path clip-path="url(#p8e67abd7f4)" d="M 438.129193 163.195278 
L 439.9244 163.195278 
L 439.9244 163.195278 
L 438.129193 163.195278 
z
" style="fill:#440154;opacity:0.2;"/>
   </g>
   <g id="patch_126">
    <path clip-path="url(#p8e67abd7f4)" d="M 440.373202 163.195278 
L 442.168409 163.195278 
L 442.168409 163.195278 
L 440.373202 163.195278 
z
" style="fill:#440154;opacity:0.2;"/>
   </g>
   <g id="matplotlib.axis_3">
    <g id="xtick_4">
     <g id="line2d_11">
      <g>
       <use style="stroke:#000000;stroke-width:0.8;" x="307.752279" xlink:href="#m25b0de0252" y="164.195278"/>
      </g>
     </g>
     <g id="text_11">
      <!-- −4 -->
      <defs>
       <path d="M 10.59375 35.5 
L 73.1875 35.5 
L 73.1875 27.203125 
L 10.59375 27.203125 
z
" id="DejaVuSans-8722"/>
       <path d="M 37.796875 64.3125 
L 12.890625 25.390625 
L 37.796875 25.390625 
z
M 35.203125 72.90625 
L 47.609375 72.90625 
L 47.609375 25.390625 
L 58.015625 25.390625 
L 58.015625 17.1875 
L 47.609375 17.1875 
L 47.609375 0 
L 37.796875 0 
L 37.796875 17.1875 
L 4.890625 17.1875 
L 4.890625 26.703125 
z
" id="DejaVuSans-52"/>
      </defs>
      <g transform="translate(300.381185 178.793715)scale(0.1 -0.1)">
       <use xlink:href="#DejaVuSans-8722"/>
       <use x="83.789062" xlink:href="#DejaVuSans-52"/>
      </g>
     </g>
    </g>
    <g id="xtick_5">
     <g id="line2d_12">
      <g>
       <use style="stroke:#000000;stroke-width:0.8;" x="352.632456" xlink:href="#m25b0de0252" y="164.195278"/>
      </g>
     </g>
     <g id="text_12">
      <!-- −2 -->
      <g transform="translate(345.261362 178.793715)scale(0.1 -0.1)">
       <use xlink:href="#DejaVuSans-8722"/>
       <use x="83.789062" xlink:href="#DejaVuSans-50"/>
      </g>
     </g>
    </g>
    <g id="xtick_6">
     <g id="line2d_13">
      <g>
       <use style="stroke:#000000;stroke-width:0.8;" x="397.512633" xlink:href="#m25b0de0252" y="164.195278"/>
      </g>
     </g>
     <g id="text_13">
      <!-- 0 -->
      <g transform="translate(394.331383 178.793715)scale(0.1 -0.1)">
       <use xlink:href="#DejaVuSans-48"/>
      </g>
     </g>
    </g>
    <g id="xtick_7">
     <g id="line2d_14">
      <g>
       <use style="stroke:#000000;stroke-width:0.8;" x="442.39281" xlink:href="#m25b0de0252" y="164.195278"/>
      </g>
     </g>
     <g id="text_14">
      <!-- 2 -->
      <g transform="translate(439.21156 178.793715)scale(0.1 -0.1)">
       <use xlink:href="#DejaVuSans-50"/>
      </g>
     </g>
    </g>
   </g>
   <g id="matplotlib.axis_4">
    <g id="ytick_6">
     <g id="line2d_15">
      <g>
       <use style="stroke:#000000;stroke-width:0.8;" x="276.705" xlink:href="#m1733f4b5b5" y="163.195278"/>
      </g>
     </g>
     <g id="text_15">
      <!-- 0 -->
      <g transform="translate(263.3425 166.994497)scale(0.1 -0.1)">
       <use xlink:href="#DejaVuSans-48"/>
      </g>
     </g>
    </g>
    <g id="ytick_7">
     <g id="line2d_16">
      <g>
       <use style="stroke:#000000;stroke-width:0.8;" x="276.705" xlink:href="#m1733f4b5b5" y="133.236198"/>
      </g>
     </g>
     <g id="text_16">
      <!-- 500 -->
      <g transform="translate(250.6175 137.035417)scale(0.1 -0.1)">
       <use xlink:href="#DejaVuSans-53"/>
       <use x="63.623047" xlink:href="#DejaVuSans-48"/>
       <use x="127.246094" xlink:href="#DejaVuSans-48"/>
      </g>
     </g>
    </g>
    <g id="ytick_8">
     <g id="line2d_17">
      <g>
       <use style="stroke:#000000;stroke-width:0.8;" x="276.705" xlink:href="#m1733f4b5b5" y="103.277118"/>
      </g>
     </g>
     <g id="text_17">
      <!-- 1000 -->
      <g transform="translate(244.255 107.076337)scale(0.1 -0.1)">
       <use xlink:href="#DejaVuSans-49"/>
       <use x="63.623047" xlink:href="#DejaVuSans-48"/>
       <use x="127.246094" xlink:href="#DejaVuSans-48"/>
       <use x="190.869141" xlink:href="#DejaVuSans-48"/>
      </g>
     </g>
    </g>
    <g id="ytick_9">
     <g id="line2d_18">
      <g>
       <use style="stroke:#000000;stroke-width:0.8;" x="276.705" xlink:href="#m1733f4b5b5" y="73.318039"/>
      </g>
     </g>
     <g id="text_18">
      <!-- 1500 -->
      <g transform="translate(244.255 77.117257)scale(0.1 -0.1)">
       <use xlink:href="#DejaVuSans-49"/>
       <use x="63.623047" xlink:href="#DejaVuSans-53"/>
       <use x="127.246094" xlink:href="#DejaVuSans-48"/>
       <use x="190.869141" xlink:href="#DejaVuSans-48"/>
      </g>
     </g>
    </g>
   </g>
   <g id="patch_127">
    <path d="M 276.705 163.195278 
L 276.705 51.84 
" style="fill:none;stroke:#000000;stroke-linecap:square;stroke-linejoin:miter;stroke-width:0.8;"/>
   </g>
   <g id="patch_128">
    <path d="M 277.705 164.195278 
L 450 164.195278 
" style="fill:none;stroke:#000000;stroke-linecap:square;stroke-linejoin:miter;stroke-width:0.8;"/>
   </g>
   <g id="legend_2">
    <g id="patch_129">
     <path d="M 282.205 60.139219 
L 292.205 60.139219 
L 292.205 56.639219 
L 282.205 56.639219 
z
" style="fill:#440154;opacity:0.2;"/>
    </g>
    <g id="text_19">
     <!-- component 0 -->
     <g transform="translate(292.705 60.139219)scale(0.05 -0.05)">
      <use xlink:href="#DejaVuSans-99"/>
      <use x="54.980469" xlink:href="#DejaVuSans-111"/>
      <use x="116.162109" xlink:href="#DejaVuSans-109"/>
      <use x="213.574219" xlink:href="#DejaVuSans-112"/>
      <use x="277.050781" xlink:href="#DejaVuSans-111"/>
      <use x="338.232422" xlink:href="#DejaVuSans-110"/>
      <use x="401.611328" xlink:href="#DejaVuSans-101"/>
      <use x="463.134766" xlink:href="#DejaVuSans-110"/>
      <use x="526.513672" xlink:href="#DejaVuSans-116"/>
      <use x="565.722656" xlink:href="#DejaVuSans-32"/>
      <use x="597.509766" xlink:href="#DejaVuSans-48"/>
     </g>
    </g>
   </g>
  </g>
  <g id="axes_3">
   <g id="patch_130">
    <path d="M 58.17 299.76 
L 230.465 299.76 
L 230.465 188.404722 
L 58.17 188.404722 
z
" style="fill:#ffffff;"/>
   </g>
   <g id="patch_131">
    <path clip-path="url(#p21a5e9811c)" d="M 66.001591 299.76 
L 67.796798 299.76 
L 67.796798 299.76 
L 66.001591 299.76 
z
" style="fill:#440154;opacity:0.2;"/>
   </g>
   <g id="patch_132">
    <path clip-path="url(#p21a5e9811c)" d="M 68.2456 299.76 
L 70.040807 299.76 
L 70.040807 299.76 
L 68.2456 299.76 
z
" style="fill:#440154;opacity:0.2;"/>
   </g>
   <g id="patch_133">
    <path clip-path="url(#p21a5e9811c)" d="M 70.489609 299.76 
L 72.284816 299.76 
L 72.284816 299.76 
L 70.489609 299.76 
z
" style="fill:#440154;opacity:0.2;"/>
   </g>
   <g id="patch_134">
    <path clip-path="url(#p21a5e9811c)" d="M 72.733617 299.76 
L 74.528825 299.76 
L 74.528825 299.76 
L 72.733617 299.76 
z
" style="fill:#440154;opacity:0.2;"/>
   </g>
   <g id="patch_135">
    <path clip-path="url(#p21a5e9811c)" d="M 74.977626 299.76 
L 76.772833 299.76 
L 76.772833 299.76 
L 74.977626 299.76 
z
" style="fill:#440154;opacity:0.2;"/>
   </g>
   <g id="patch_136">
    <path clip-path="url(#p21a5e9811c)" d="M 77.221635 299.76 
L 79.016842 299.76 
L 79.016842 299.76 
L 77.221635 299.76 
z
" style="fill:#440154;opacity:0.2;"/>
   </g>
   <g id="patch_137">
    <path clip-path="url(#p21a5e9811c)" d="M 79.465644 299.76 
L 81.260851 299.76 
L 81.260851 299.76 
L 79.465644 299.76 
z
" style="fill:#440154;opacity:0.2;"/>
   </g>
   <g id="patch_138">
    <path clip-path="url(#p21a5e9811c)" d="M 81.709653 299.76 
L 83.50486 299.76 
L 83.50486 299.76 
L 81.709653 299.76 
z
" style="fill:#440154;opacity:0.2;"/>
   </g>
   <g id="patch_139">
    <path clip-path="url(#p21a5e9811c)" d="M 83.953662 299.76 
L 85.748869 299.76 
L 85.748869 299.76 
L 83.953662 299.76 
z
" style="fill:#440154;opacity:0.2;"/>
   </g>
   <g id="patch_140">
    <path clip-path="url(#p21a5e9811c)" d="M 86.197671 299.76 
L 87.992878 299.76 
L 87.992878 299.76 
L 86.197671 299.76 
z
" style="fill:#440154;opacity:0.2;"/>
   </g>
   <g id="patch_141">
    <path clip-path="url(#p21a5e9811c)" d="M 88.441679 299.76 
L 90.236887 299.76 
L 90.236887 290.555992 
L 88.441679 290.555992 
z
" style="fill:#440154;opacity:0.2;"/>
   </g>
   <g id="patch_142">
    <path clip-path="url(#p21a5e9811c)" d="M 90.685688 299.76 
L 92.480895 299.76 
L 92.480895 299.76 
L 90.685688 299.76 
z
" style="fill:#440154;opacity:0.2;"/>
   </g>
   <g id="patch_143">
    <path clip-path="url(#p21a5e9811c)" d="M 92.929697 299.76 
L 94.724904 299.76 
L 94.724904 299.76 
L 92.929697 299.76 
z
" style="fill:#440154;opacity:0.2;"/>
   </g>
   <g id="patch_144">
    <path clip-path="url(#p21a5e9811c)" d="M 95.173706 299.76 
L 96.968913 299.76 
L 96.968913 284.739455 
L 95.173706 284.739455 
z
" style="fill:#440154;opacity:0.2;"/>
   </g>
   <g id="patch_145">
    <path clip-path="url(#p21a5e9811c)" d="M 97.417715 299.76 
L 99.212922 299.76 
L 99.212922 289.762828 
L 97.417715 289.762828 
z
" style="fill:#440154;opacity:0.2;"/>
   </g>
   <g id="patch_146">
    <path clip-path="url(#p21a5e9811c)" d="M 99.661724 299.76 
L 101.456931 299.76 
L 101.456931 299.76 
L 99.661724 299.76 
z
" style="fill:#440154;opacity:0.2;"/>
   </g>
   <g id="patch_147">
    <path clip-path="url(#p21a5e9811c)" d="M 101.905733 299.76 
L 103.70094 299.76 
L 103.70094 292.02665 
L 101.905733 292.02665 
z
" style="fill:#440154;opacity:0.2;"/>
   </g>
   <g id="patch_148">
    <path clip-path="url(#p21a5e9811c)" d="M 104.149741 299.76 
L 105.944949 299.76 
L 105.944949 297.77709 
L 104.149741 297.77709 
z
" style="fill:#440154;opacity:0.2;"/>
   </g>
   <g id="patch_149">
    <path clip-path="url(#p21a5e9811c)" d="M 106.39375 299.76 
L 108.188957 299.76 
L 108.188957 298.55373 
L 106.39375 298.55373 
z
" style="fill:#440154;opacity:0.2;"/>
   </g>
   <g id="patch_150">
    <path clip-path="url(#p21a5e9811c)" d="M 108.637759 299.76 
L 110.432966 299.76 
L 110.432966 297.198741 
L 108.637759 297.198741 
z
" style="fill:#440154;opacity:0.2;"/>
   </g>
   <g id="patch_151">
    <path clip-path="url(#p21a5e9811c)" d="M 110.881768 299.76 
L 112.676975 299.76 
L 112.676975 293.646027 
L 110.881768 293.646027 
z
" style="fill:#440154;opacity:0.2;"/>
   </g>
   <g id="patch_152">
    <path clip-path="url(#p21a5e9811c)" d="M 113.125777 299.76 
L 114.920984 299.76 
L 114.920984 295.113381 
L 113.125777 295.113381 
z
" style="fill:#440154;opacity:0.2;"/>
   </g>
   <g id="patch_153">
    <path clip-path="url(#p21a5e9811c)" d="M 115.369786 299.76 
L 117.164993 299.76 
L 117.164993 291.606934 
L 115.369786 291.606934 
z
" style="fill:#440154;opacity:0.2;"/>
   </g>
   <g id="patch_154">
    <path clip-path="url(#p21a5e9811c)" d="M 117.613795 299.76 
L 119.409002 299.76 
L 119.409002 288.083492 
L 117.613795 288.083492 
z
" style="fill:#440154;opacity:0.2;"/>
   </g>
   <g id="patch_155">
    <path clip-path="url(#p21a5e9811c)" d="M 119.857803 299.76 
L 121.653011 299.76 
L 121.653011 289.052285 
L 119.857803 289.052285 
z
" style="fill:#440154;opacity:0.2;"/>
   </g>
   <g id="patch_156">
    <path clip-path="url(#p21a5e9811c)" d="M 122.101812 299.76 
L 123.897019 299.76 
L 123.897019 282.782984 
L 122.101812 282.782984 
z
" style="fill:#440154;opacity:0.2;"/>
   </g>
   <g id="patch_157">
    <path clip-path="url(#p21a5e9811c)" d="M 124.345821 299.76 
L 126.141028 299.76 
L 126.141028 279.170783 
L 124.345821 279.170783 
z
" style="fill:#440154;opacity:0.2;"/>
   </g>
   <g id="patch_158">
    <path clip-path="url(#p21a5e9811c)" d="M 126.58983 299.76 
L 128.385037 299.76 
L 128.385037 270.412929 
L 126.58983 270.412929 
z
" style="fill:#440154;opacity:0.2;"/>
   </g>
   <g id="patch_159">
    <path clip-path="url(#p21a5e9811c)" d="M 128.833839 299.76 
L 130.629046 299.76 
L 130.629046 264.365053 
L 128.833839 264.365053 
z
" style="fill:#440154;opacity:0.2;"/>
   </g>
   <g id="patch_160">
    <path clip-path="url(#p21a5e9811c)" d="M 131.077848 299.76 
L 132.873055 299.76 
L 132.873055 259.093817 
L 131.077848 259.093817 
z
" style="fill:#440154;opacity:0.2;"/>
   </g>
   <g id="patch_161">
    <path clip-path="url(#p21a5e9811c)" d="M 133.321857 299.76 
L 135.117064 299.76 
L 135.117064 245.279543 
L 133.321857 245.279543 
z
" style="fill:#440154;opacity:0.2;"/>
   </g>
   <g id="patch_162">
    <path clip-path="url(#p21a5e9811c)" d="M 135.565865 299.76 
L 137.361073 299.76 
L 137.361073 231.349599 
L 135.565865 231.349599 
z
" style="fill:#440154;opacity:0.2;"/>
   </g>
   <g id="patch_163">
    <path clip-path="url(#p21a5e9811c)" d="M 137.809874 299.76 
L 139.605081 299.76 
L 139.605081 227.218536 
L 137.809874 227.218536 
z
" style="fill:#440154;opacity:0.2;"/>
   </g>
   <g id="patch_164">
    <path clip-path="url(#p21a5e9811c)" d="M 140.053883 299.76 
L 141.84909 299.76 
L 141.84909 209.174054 
L 140.053883 209.174054 
z
" style="fill:#440154;opacity:0.2;"/>
   </g>
   <g id="patch_165">
    <path clip-path="url(#p21a5e9811c)" d="M 142.297892 299.76 
L 144.093099 299.76 
L 144.093099 193.707354 
L 142.297892 193.707354 
z
" style="fill:#440154;opacity:0.2;"/>
   </g>
   <g id="patch_166">
    <path clip-path="url(#p21a5e9811c)" d="M 144.541901 299.76 
L 146.337108 299.76 
L 146.337108 195.442401 
L 144.541901 195.442401 
z
" style="fill:#440154;opacity:0.2;"/>
   </g>
   <g id="patch_167">
    <path clip-path="url(#p21a5e9811c)" d="M 146.78591 299.76 
L 148.581117 299.76 
L 148.581117 203.539284 
L 146.78591 203.539284 
z
" style="fill:#440154;opacity:0.2;"/>
   </g>
   <g id="patch_168">
    <path clip-path="url(#p21a5e9811c)" d="M 149.029919 299.76 
L 150.825126 299.76 
L 150.825126 200.201385 
L 149.029919 200.201385 
z
" style="fill:#440154;opacity:0.2;"/>
   </g>
   <g id="patch_169">
    <path clip-path="url(#p21a5e9811c)" d="M 151.273927 299.76 
L 153.069135 299.76 
L 153.069135 224.59779 
L 151.273927 224.59779 
z
" style="fill:#440154;opacity:0.2;"/>
   </g>
   <g id="patch_170">
    <path clip-path="url(#p21a5e9811c)" d="M 153.517936 299.76 
L 155.313143 299.76 
L 155.313143 231.365022 
L 153.517936 231.365022 
z
" style="fill:#440154;opacity:0.2;"/>
   </g>
   <g id="patch_171">
    <path clip-path="url(#p21a5e9811c)" d="M 155.761945 299.76 
L 157.557152 299.76 
L 157.557152 244.376375 
L 155.761945 244.376375 
z
" style="fill:#440154;opacity:0.2;"/>
   </g>
   <g id="patch_172">
    <path clip-path="url(#p21a5e9811c)" d="M 158.005954 299.76 
L 159.801161 299.76 
L 159.801161 265.389636 
L 158.005954 265.389636 
z
" style="fill:#440154;opacity:0.2;"/>
   </g>
   <g id="patch_173">
    <path clip-path="url(#p21a5e9811c)" d="M 160.249963 299.76 
L 162.04517 299.76 
L 162.04517 274.696763 
L 160.249963 274.696763 
z
" style="fill:#440154;opacity:0.2;"/>
   </g>
   <g id="patch_174">
    <path clip-path="url(#p21a5e9811c)" d="M 162.493972 299.76 
L 164.289179 299.76 
L 164.289179 283.138799 
L 162.493972 283.138799 
z
" style="fill:#440154;opacity:0.2;"/>
   </g>
   <g id="patch_175">
    <path clip-path="url(#p21a5e9811c)" d="M 164.737981 299.76 
L 166.533188 299.76 
L 166.533188 286.86682 
L 164.737981 286.86682 
z
" style="fill:#440154;opacity:0.2;"/>
   </g>
   <g id="patch_176">
    <path clip-path="url(#p21a5e9811c)" d="M 166.981989 299.76 
L 168.777197 299.76 
L 168.777197 291.494441 
L 166.981989 291.494441 
z
" style="fill:#440154;opacity:0.2;"/>
   </g>
   <g id="patch_177">
    <path clip-path="url(#p21a5e9811c)" d="M 169.225998 299.76 
L 171.021205 299.76 
L 171.021205 293.985826 
L 169.225998 293.985826 
z
" style="fill:#440154;opacity:0.2;"/>
   </g>
   <g id="patch_178">
    <path clip-path="url(#p21a5e9811c)" d="M 171.470007 299.76 
L 173.265214 299.76 
L 173.265214 294.387065 
L 171.470007 294.387065 
z
" style="fill:#440154;opacity:0.2;"/>
   </g>
   <g id="patch_179">
    <path clip-path="url(#p21a5e9811c)" d="M 173.714016 299.76 
L 175.509223 299.76 
L 175.509223 297.70595 
L 173.714016 297.70595 
z
" style="fill:#440154;opacity:0.2;"/>
   </g>
   <g id="patch_180">
    <path clip-path="url(#p21a5e9811c)" d="M 175.958025 299.76 
L 177.753232 299.76 
L 177.753232 298.85067 
L 175.958025 298.85067 
z
" style="fill:#440154;opacity:0.2;"/>
   </g>
   <g id="patch_181">
    <path clip-path="url(#p21a5e9811c)" d="M 178.202034 299.76 
L 179.997241 299.76 
L 179.997241 298.830235 
L 178.202034 298.830235 
z
" style="fill:#440154;opacity:0.2;"/>
   </g>
   <g id="patch_182">
    <path clip-path="url(#p21a5e9811c)" d="M 180.446043 299.76 
L 182.24125 299.76 
L 182.24125 298.515362 
L 180.446043 298.515362 
z
" style="fill:#440154;opacity:0.2;"/>
   </g>
   <g id="patch_183">
    <path clip-path="url(#p21a5e9811c)" d="M 182.690051 299.76 
L 184.485259 299.76 
L 184.485259 298.897529 
L 182.690051 298.897529 
z
" style="fill:#440154;opacity:0.2;"/>
   </g>
   <g id="patch_184">
    <path clip-path="url(#p21a5e9811c)" d="M 184.93406 299.76 
L 186.729267 299.76 
L 186.729267 298.974642 
L 184.93406 298.974642 
z
" style="fill:#440154;opacity:0.2;"/>
   </g>
   <g id="patch_185">
    <path clip-path="url(#p21a5e9811c)" d="M 187.178069 299.76 
L 188.973276 299.76 
L 188.973276 299.193643 
L 187.178069 299.193643 
z
" style="fill:#440154;opacity:0.2;"/>
   </g>
   <g id="patch_186">
    <path clip-path="url(#p21a5e9811c)" d="M 189.422078 299.76 
L 191.217285 299.76 
L 191.217285 298.749817 
L 189.422078 298.749817 
z
" style="fill:#440154;opacity:0.2;"/>
   </g>
   <g id="patch_187">
    <path clip-path="url(#p21a5e9811c)" d="M 191.666087 299.76 
L 193.461294 299.76 
L 193.461294 299.173814 
L 191.666087 299.173814 
z
" style="fill:#440154;opacity:0.2;"/>
   </g>
   <g id="patch_188">
    <path clip-path="url(#p21a5e9811c)" d="M 193.910096 299.76 
L 195.705303 299.76 
L 195.705303 298.85787 
L 193.910096 298.85787 
z
" style="fill:#440154;opacity:0.2;"/>
   </g>
   <g id="patch_189">
    <path clip-path="url(#p21a5e9811c)" d="M 196.154105 299.76 
L 197.949312 299.76 
L 197.949312 298.454309 
L 196.154105 298.454309 
z
" style="fill:#440154;opacity:0.2;"/>
   </g>
   <g id="patch_190">
    <path clip-path="url(#p21a5e9811c)" d="M 198.398113 299.76 
L 200.193321 299.76 
L 200.193321 298.977301 
L 198.398113 298.977301 
z
" style="fill:#440154;opacity:0.2;"/>
   </g>
   <g id="patch_191">
    <path clip-path="url(#p21a5e9811c)" d="M 200.642122 299.76 
L 202.437329 299.76 
L 202.437329 299.250502 
L 200.642122 299.250502 
z
" style="fill:#440154;opacity:0.2;"/>
   </g>
   <g id="patch_192">
    <path clip-path="url(#p21a5e9811c)" d="M 202.886131 299.76 
L 204.681338 299.76 
L 204.681338 299.24224 
L 202.886131 299.24224 
z
" style="fill:#440154;opacity:0.2;"/>
   </g>
   <g id="patch_193">
    <path clip-path="url(#p21a5e9811c)" d="M 205.13014 299.76 
L 206.925347 299.76 
L 206.925347 298.74497 
L 205.13014 298.74497 
z
" style="fill:#440154;opacity:0.2;"/>
   </g>
   <g id="patch_194">
    <path clip-path="url(#p21a5e9811c)" d="M 207.374149 299.76 
L 209.169356 299.76 
L 209.169356 298.296502 
L 207.374149 298.296502 
z
" style="fill:#440154;opacity:0.2;"/>
   </g>
   <g id="patch_195">
    <path clip-path="url(#p21a5e9811c)" d="M 209.618158 299.76 
L 211.413365 299.76 
L 211.413365 299.190244 
L 209.618158 299.190244 
z
" style="fill:#440154;opacity:0.2;"/>
   </g>
   <g id="patch_196">
    <path clip-path="url(#p21a5e9811c)" d="M 211.862167 299.76 
L 213.657374 299.76 
L 213.657374 299.76 
L 211.862167 299.76 
z
" style="fill:#440154;opacity:0.2;"/>
   </g>
   <g id="patch_197">
    <path clip-path="url(#p21a5e9811c)" d="M 214.106175 299.76 
L 215.901383 299.76 
L 215.901383 299.76 
L 214.106175 299.76 
z
" style="fill:#440154;opacity:0.2;"/>
   </g>
   <g id="patch_198">
    <path clip-path="url(#p21a5e9811c)" d="M 216.350184 299.76 
L 218.145391 299.76 
L 218.145391 299.561709 
L 216.350184 299.561709 
z
" style="fill:#440154;opacity:0.2;"/>
   </g>
   <g id="patch_199">
    <path clip-path="url(#p21a5e9811c)" d="M 218.594193 299.76 
L 220.3894 299.76 
L 220.3894 299.76 
L 218.594193 299.76 
z
" style="fill:#440154;opacity:0.2;"/>
   </g>
   <g id="patch_200">
    <path clip-path="url(#p21a5e9811c)" d="M 220.838202 299.76 
L 222.633409 299.76 
L 222.633409 299.76 
L 220.838202 299.76 
z
" style="fill:#440154;opacity:0.2;"/>
   </g>
   <g id="matplotlib.axis_5">
    <g id="xtick_8">
     <g id="line2d_19">
      <g>
       <use style="stroke:#000000;stroke-width:0.8;" x="88.217279" xlink:href="#m25b0de0252" y="300.76"/>
      </g>
     </g>
     <g id="text_20">
      <!-- −4 -->
      <g transform="translate(80.846185 315.358437)scale(0.1 -0.1)">
       <use xlink:href="#DejaVuSans-8722"/>
       <use x="83.789062" xlink:href="#DejaVuSans-52"/>
      </g>
     </g>
    </g>
    <g id="xtick_9">
     <g id="line2d_20">
      <g>
       <use style="stroke:#000000;stroke-width:0.8;" x="133.097456" xlink:href="#m25b0de0252" y="300.76"/>
      </g>
     </g>
     <g id="text_21">
      <!-- −2 -->
      <g transform="translate(125.726362 315.358437)scale(0.1 -0.1)">
       <use xlink:href="#DejaVuSans-8722"/>
       <use x="83.789062" xlink:href="#DejaVuSans-50"/>
      </g>
     </g>
    </g>
    <g id="xtick_10">
     <g id="line2d_21">
      <g>
       <use style="stroke:#000000;stroke-width:0.8;" x="177.977633" xlink:href="#m25b0de0252" y="300.76"/>
      </g>
     </g>
     <g id="text_22">
      <!-- 0 -->
      <g transform="translate(174.796383 315.358437)scale(0.1 -0.1)">
       <use xlink:href="#DejaVuSans-48"/>
      </g>
     </g>
    </g>
    <g id="xtick_11">
     <g id="line2d_22">
      <g>
       <use style="stroke:#000000;stroke-width:0.8;" x="222.85781" xlink:href="#m25b0de0252" y="300.76"/>
      </g>
     </g>
     <g id="text_23">
      <!-- 2 -->
      <g transform="translate(219.67656 315.358437)scale(0.1 -0.1)">
       <use xlink:href="#DejaVuSans-50"/>
      </g>
     </g>
    </g>
   </g>
   <g id="matplotlib.axis_6">
    <g id="ytick_10">
     <g id="line2d_23">
      <g>
       <use style="stroke:#000000;stroke-width:0.8;" x="57.17" xlink:href="#m1733f4b5b5" y="299.76"/>
      </g>
     </g>
     <g id="text_24">
      <!-- 0 -->
      <g transform="translate(43.8075 303.559219)scale(0.1 -0.1)">
       <use xlink:href="#DejaVuSans-48"/>
      </g>
     </g>
    </g>
    <g id="ytick_11">
     <g id="line2d_24">
      <g>
       <use style="stroke:#000000;stroke-width:0.8;" x="57.17" xlink:href="#m1733f4b5b5" y="260.101797"/>
      </g>
     </g>
     <g id="text_25">
      <!-- 200 -->
      <g transform="translate(31.0825 263.901015)scale(0.1 -0.1)">
       <use xlink:href="#DejaVuSans-50"/>
       <use x="63.623047" xlink:href="#DejaVuSans-48"/>
       <use x="127.246094" xlink:href="#DejaVuSans-48"/>
      </g>
     </g>
    </g>
    <g id="ytick_12">
     <g id="line2d_25">
      <g>
       <use style="stroke:#000000;stroke-width:0.8;" x="57.17" xlink:href="#m1733f4b5b5" y="220.443593"/>
      </g>
     </g>
     <g id="text_26">
      <!-- 400 -->
      <g transform="translate(31.0825 224.242812)scale(0.1 -0.1)">
       <use xlink:href="#DejaVuSans-52"/>
       <use x="63.623047" xlink:href="#DejaVuSans-48"/>
       <use x="127.246094" xlink:href="#DejaVuSans-48"/>
      </g>
     </g>
    </g>
    <g id="text_27">
     <!-- Duplication events -->
     <g transform="translate(25.002813 290.879236)rotate(-90)scale(0.1 -0.1)">
      <use xlink:href="#DejaVuSans-68"/>
      <use x="77.001953" xlink:href="#DejaVuSans-117"/>
      <use x="140.380859" xlink:href="#DejaVuSans-112"/>
      <use x="203.857422" xlink:href="#DejaVuSans-108"/>
      <use x="231.640625" xlink:href="#DejaVuSans-105"/>
      <use x="259.423828" xlink:href="#DejaVuSans-99"/>
      <use x="314.404297" xlink:href="#DejaVuSans-97"/>
      <use x="375.683594" xlink:href="#DejaVuSans-116"/>
      <use x="414.892578" xlink:href="#DejaVuSans-105"/>
      <use x="442.675781" xlink:href="#DejaVuSans-111"/>
      <use x="503.857422" xlink:href="#DejaVuSans-110"/>
      <use x="567.236328" xlink:href="#DejaVuSans-32"/>
      <use x="599.023438" xlink:href="#DejaVuSans-101"/>
      <use x="660.546875" xlink:href="#DejaVuSans-118"/>
      <use x="719.726562" xlink:href="#DejaVuSans-101"/>
      <use x="781.25" xlink:href="#DejaVuSans-110"/>
      <use x="844.628906" xlink:href="#DejaVuSans-116"/>
      <use x="883.837891" xlink:href="#DejaVuSans-115"/>
     </g>
    </g>
   </g>
   <g id="patch_201">
    <path d="M 57.17 299.76 
L 57.17 188.404722 
" style="fill:none;stroke:#000000;stroke-linecap:square;stroke-linejoin:miter;stroke-width:0.8;"/>
   </g>
   <g id="patch_202">
    <path d="M 58.17 300.76 
L 230.465 300.76 
" style="fill:none;stroke:#000000;stroke-linecap:square;stroke-linejoin:miter;stroke-width:0.8;"/>
   </g>
   <g id="legend_3">
    <g id="patch_203">
     <path d="M 62.67 196.703941 
L 72.67 196.703941 
L 72.67 193.203941 
L 62.67 193.203941 
z
" style="fill:#440154;opacity:0.2;"/>
    </g>
    <g id="text_28">
     <!-- component 0 -->
     <g transform="translate(73.17 196.703941)scale(0.05 -0.05)">
      <use xlink:href="#DejaVuSans-99"/>
      <use x="54.980469" xlink:href="#DejaVuSans-111"/>
      <use x="116.162109" xlink:href="#DejaVuSans-109"/>
      <use x="213.574219" xlink:href="#DejaVuSans-112"/>
      <use x="277.050781" xlink:href="#DejaVuSans-111"/>
      <use x="338.232422" xlink:href="#DejaVuSans-110"/>
      <use x="401.611328" xlink:href="#DejaVuSans-101"/>
      <use x="463.134766" xlink:href="#DejaVuSans-110"/>
      <use x="526.513672" xlink:href="#DejaVuSans-116"/>
      <use x="565.722656" xlink:href="#DejaVuSans-32"/>
      <use x="597.509766" xlink:href="#DejaVuSans-48"/>
     </g>
    </g>
   </g>
  </g>
  <g id="axes_4">
   <g id="patch_204">
    <path d="M 277.705 299.76 
L 450 299.76 
L 450 188.404722 
L 277.705 188.404722 
z
" style="fill:#ffffff;"/>
   </g>
   <g id="patch_205">
    <path clip-path="url(#p3a1f977de8)" d="M 285.536591 299.76 
L 287.331798 299.76 
L 287.331798 299.76 
L 285.536591 299.76 
z
" style="fill:#440154;opacity:0.2;"/>
   </g>
   <g id="patch_206">
    <path clip-path="url(#p3a1f977de8)" d="M 287.7806 299.76 
L 289.575807 299.76 
L 289.575807 299.76 
L 287.7806 299.76 
z
" style="fill:#440154;opacity:0.2;"/>
   </g>
   <g id="patch_207">
    <path clip-path="url(#p3a1f977de8)" d="M 290.024609 299.76 
L 291.819816 299.76 
L 291.819816 299.76 
L 290.024609 299.76 
z
" style="fill:#440154;opacity:0.2;"/>
   </g>
   <g id="patch_208">
    <path clip-path="url(#p3a1f977de8)" d="M 292.268617 299.76 
L 294.063825 299.76 
L 294.063825 299.76 
L 292.268617 299.76 
z
" style="fill:#440154;opacity:0.2;"/>
   </g>
   <g id="patch_209">
    <path clip-path="url(#p3a1f977de8)" d="M 294.512626 299.76 
L 296.307833 299.76 
L 296.307833 299.76 
L 294.512626 299.76 
z
" style="fill:#440154;opacity:0.2;"/>
   </g>
   <g id="patch_210">
    <path clip-path="url(#p3a1f977de8)" d="M 296.756635 299.76 
L 298.551842 299.76 
L 298.551842 299.76 
L 296.756635 299.76 
z
" style="fill:#440154;opacity:0.2;"/>
   </g>
   <g id="patch_211">
    <path clip-path="url(#p3a1f977de8)" d="M 299.000644 299.76 
L 300.795851 299.76 
L 300.795851 299.76 
L 299.000644 299.76 
z
" style="fill:#440154;opacity:0.2;"/>
   </g>
   <g id="patch_212">
    <path clip-path="url(#p3a1f977de8)" d="M 301.244653 299.76 
L 303.03986 299.76 
L 303.03986 299.76 
L 301.244653 299.76 
z
" style="fill:#440154;opacity:0.2;"/>
   </g>
   <g id="patch_213">
    <path clip-path="url(#p3a1f977de8)" d="M 303.488662 299.76 
L 305.283869 299.76 
L 305.283869 299.76 
L 303.488662 299.76 
z
" style="fill:#440154;opacity:0.2;"/>
   </g>
   <g id="patch_214">
    <path clip-path="url(#p3a1f977de8)" d="M 305.732671 299.76 
L 307.527878 299.76 
L 307.527878 299.76 
L 305.732671 299.76 
z
" style="fill:#440154;opacity:0.2;"/>
   </g>
   <g id="patch_215">
    <path clip-path="url(#p3a1f977de8)" d="M 307.976679 299.76 
L 309.771887 299.76 
L 309.771887 299.76 
L 307.976679 299.76 
z
" style="fill:#440154;opacity:0.2;"/>
   </g>
   <g id="patch_216">
    <path clip-path="url(#p3a1f977de8)" d="M 310.220688 299.76 
L 312.015895 299.76 
L 312.015895 299.76 
L 310.220688 299.76 
z
" style="fill:#440154;opacity:0.2;"/>
   </g>
   <g id="patch_217">
    <path clip-path="url(#p3a1f977de8)" d="M 312.464697 299.76 
L 314.259904 299.76 
L 314.259904 299.76 
L 312.464697 299.76 
z
" style="fill:#440154;opacity:0.2;"/>
   </g>
   <g id="patch_218">
    <path clip-path="url(#p3a1f977de8)" d="M 314.708706 299.76 
L 316.503913 299.76 
L 316.503913 299.76 
L 314.708706 299.76 
z
" style="fill:#440154;opacity:0.2;"/>
   </g>
   <g id="patch_219">
    <path clip-path="url(#p3a1f977de8)" d="M 316.952715 299.76 
L 318.747922 299.76 
L 318.747922 299.76 
L 316.952715 299.76 
z
" style="fill:#440154;opacity:0.2;"/>
   </g>
   <g id="patch_220">
    <path clip-path="url(#p3a1f977de8)" d="M 319.196724 299.76 
L 320.991931 299.76 
L 320.991931 299.76 
L 319.196724 299.76 
z
" style="fill:#440154;opacity:0.2;"/>
   </g>
   <g id="patch_221">
    <path clip-path="url(#p3a1f977de8)" d="M 321.440733 299.76 
L 323.23594 299.76 
L 323.23594 299.76 
L 321.440733 299.76 
z
" style="fill:#440154;opacity:0.2;"/>
   </g>
   <g id="patch_222">
    <path clip-path="url(#p3a1f977de8)" d="M 323.684741 299.76 
L 325.479949 299.76 
L 325.479949 299.76 
L 323.684741 299.76 
z
" style="fill:#440154;opacity:0.2;"/>
   </g>
   <g id="patch_223">
    <path clip-path="url(#p3a1f977de8)" d="M 325.92875 299.76 
L 327.723957 299.76 
L 327.723957 299.76 
L 325.92875 299.76 
z
" style="fill:#440154;opacity:0.2;"/>
   </g>
   <g id="patch_224">
    <path clip-path="url(#p3a1f977de8)" d="M 328.172759 299.76 
L 329.967966 299.76 
L 329.967966 299.76 
L 328.172759 299.76 
z
" style="fill:#440154;opacity:0.2;"/>
   </g>
   <g id="patch_225">
    <path clip-path="url(#p3a1f977de8)" d="M 330.416768 299.76 
L 332.211975 299.76 
L 332.211975 244.591667 
L 330.416768 244.591667 
z
" style="fill:#440154;opacity:0.2;"/>
   </g>
   <g id="patch_226">
    <path clip-path="url(#p3a1f977de8)" d="M 332.660777 299.76 
L 334.455984 299.76 
L 334.455984 299.579713 
L 332.660777 299.579713 
z
" style="fill:#440154;opacity:0.2;"/>
   </g>
   <g id="patch_227">
    <path clip-path="url(#p3a1f977de8)" d="M 334.904786 299.76 
L 336.699993 299.76 
L 336.699993 299.579713 
L 334.904786 299.579713 
z
" style="fill:#440154;opacity:0.2;"/>
   </g>
   <g id="patch_228">
    <path clip-path="url(#p3a1f977de8)" d="M 337.148795 299.76 
L 338.944002 299.76 
L 338.944002 299.219138 
L 337.148795 299.219138 
z
" style="fill:#440154;opacity:0.2;"/>
   </g>
   <g id="patch_229">
    <path clip-path="url(#p3a1f977de8)" d="M 339.392803 299.76 
L 341.188011 299.76 
L 341.188011 299.038851 
L 339.392803 299.038851 
z
" style="fill:#440154;opacity:0.2;"/>
   </g>
   <g id="patch_230">
    <path clip-path="url(#p3a1f977de8)" d="M 341.636812 299.76 
L 343.432019 299.76 
L 343.432019 298.497989 
L 341.636812 298.497989 
z
" style="fill:#440154;opacity:0.2;"/>
   </g>
   <g id="patch_231">
    <path clip-path="url(#p3a1f977de8)" d="M 343.880821 299.76 
L 345.676028 299.76 
L 345.676028 296.695116 
L 343.880821 296.695116 
z
" style="fill:#440154;opacity:0.2;"/>
   </g>
   <g id="patch_232">
    <path clip-path="url(#p3a1f977de8)" d="M 346.12483 299.76 
L 347.920037 299.76 
L 347.920037 296.274446 
L 346.12483 296.274446 
z
" style="fill:#440154;opacity:0.2;"/>
   </g>
   <g id="patch_233">
    <path clip-path="url(#p3a1f977de8)" d="M 348.368839 299.76 
L 350.164046 299.76 
L 350.164046 293.900664 
L 348.368839 293.900664 
z
" style="fill:#440154;opacity:0.2;"/>
   </g>
   <g id="patch_234">
    <path clip-path="url(#p3a1f977de8)" d="M 350.612848 299.76 
L 352.408055 299.76 
L 352.408055 289.438554 
L 350.612848 289.438554 
z
" style="fill:#440154;opacity:0.2;"/>
   </g>
   <g id="patch_235">
    <path clip-path="url(#p3a1f977de8)" d="M 352.856857 299.76 
L 354.652064 299.76 
L 354.652064 283.669361 
L 352.856857 283.669361 
z
" style="fill:#440154;opacity:0.2;"/>
   </g>
   <g id="patch_236">
    <path clip-path="url(#p3a1f977de8)" d="M 355.100865 299.76 
L 356.896073 299.76 
L 356.896073 279.725577 
L 355.100865 279.725577 
z
" style="fill:#440154;opacity:0.2;"/>
   </g>
   <g id="patch_237">
    <path clip-path="url(#p3a1f977de8)" d="M 357.344874 299.76 
L 359.140081 299.76 
L 359.140081 273.918825 
L 357.344874 273.918825 
z
" style="fill:#440154;opacity:0.2;"/>
   </g>
   <g id="patch_238">
    <path clip-path="url(#p3a1f977de8)" d="M 359.588883 299.76 
L 361.38409 299.76 
L 361.38409 263.774661 
L 359.588883 263.774661 
z
" style="fill:#440154;opacity:0.2;"/>
   </g>
   <g id="patch_239">
    <path clip-path="url(#p3a1f977de8)" d="M 361.832892 299.76 
L 363.628099 299.76 
L 363.628099 259.97661 
L 361.832892 259.97661 
z
" style="fill:#440154;opacity:0.2;"/>
   </g>
   <g id="patch_240">
    <path clip-path="url(#p3a1f977de8)" d="M 364.076901 299.76 
L 365.872108 299.76 
L 365.872108 244.62615 
L 364.076901 244.62615 
z
" style="fill:#440154;opacity:0.2;"/>
   </g>
   <g id="patch_241">
    <path clip-path="url(#p3a1f977de8)" d="M 366.32091 299.76 
L 368.116117 299.76 
L 368.116117 233.876522 
L 366.32091 233.876522 
z
" style="fill:#440154;opacity:0.2;"/>
   </g>
   <g id="patch_242">
    <path clip-path="url(#p3a1f977de8)" d="M 368.564919 299.76 
L 370.360126 299.76 
L 370.360126 232.749827 
L 368.564919 232.749827 
z
" style="fill:#440154;opacity:0.2;"/>
   </g>
   <g id="patch_243">
    <path clip-path="url(#p3a1f977de8)" d="M 370.808927 299.76 
L 372.604135 299.76 
L 372.604135 217.51395 
L 370.808927 217.51395 
z
" style="fill:#440154;opacity:0.2;"/>
   </g>
   <g id="patch_244">
    <path clip-path="url(#p3a1f977de8)" d="M 373.052936 299.76 
L 374.848143 299.76 
L 374.848143 200.178536 
L 373.052936 200.178536 
z
" style="fill:#440154;opacity:0.2;"/>
   </g>
   <g id="patch_245">
    <path clip-path="url(#p3a1f977de8)" d="M 375.296945 299.76 
L 377.092152 299.76 
L 377.092152 196.109809 
L 375.296945 196.109809 
z
" style="fill:#440154;opacity:0.2;"/>
   </g>
   <g id="patch_246">
    <path clip-path="url(#p3a1f977de8)" d="M 377.540954 299.76 
L 379.336161 299.76 
L 379.336161 193.707354 
L 377.540954 193.707354 
z
" style="fill:#440154;opacity:0.2;"/>
   </g>
   <g id="patch_247">
    <path clip-path="url(#p3a1f977de8)" d="M 379.784963 299.76 
L 381.58017 299.76 
L 381.58017 200.442964 
L 379.784963 200.442964 
z
" style="fill:#440154;opacity:0.2;"/>
   </g>
   <g id="patch_248">
    <path clip-path="url(#p3a1f977de8)" d="M 382.028972 299.76 
L 383.824179 299.76 
L 383.824179 219.730296 
L 382.028972 219.730296 
z
" style="fill:#440154;opacity:0.2;"/>
   </g>
   <g id="patch_249">
    <path clip-path="url(#p3a1f977de8)" d="M 384.272981 299.76 
L 386.068188 299.76 
L 386.068188 234.407491 
L 384.272981 234.407491 
z
" style="fill:#440154;opacity:0.2;"/>
   </g>
   <g id="patch_250">
    <path clip-path="url(#p3a1f977de8)" d="M 386.516989 299.76 
L 388.312197 299.76 
L 388.312197 257.505055 
L 386.516989 257.505055 
z
" style="fill:#440154;opacity:0.2;"/>
   </g>
   <g id="patch_251">
    <path clip-path="url(#p3a1f977de8)" d="M 388.760998 299.76 
L 390.556205 299.76 
L 390.556205 277.579289 
L 388.760998 277.579289 
z
" style="fill:#440154;opacity:0.2;"/>
   </g>
   <g id="patch_252">
    <path clip-path="url(#p3a1f977de8)" d="M 391.005007 299.76 
L 392.800214 299.76 
L 392.800214 288.309214 
L 391.005007 288.309214 
z
" style="fill:#440154;opacity:0.2;"/>
   </g>
   <g id="patch_253">
    <path clip-path="url(#p3a1f977de8)" d="M 393.249016 299.76 
L 395.044223 299.76 
L 395.044223 297.424028 
L 393.249016 297.424028 
z
" style="fill:#440154;opacity:0.2;"/>
   </g>
   <g id="patch_254">
    <path clip-path="url(#p3a1f977de8)" d="M 395.493025 299.76 
L 397.288232 299.76 
L 397.288232 298.649481 
L 395.493025 298.649481 
z
" style="fill:#440154;opacity:0.2;"/>
   </g>
   <g id="patch_255">
    <path clip-path="url(#p3a1f977de8)" d="M 397.737034 299.76 
L 399.532241 299.76 
L 399.532241 298.469744 
L 397.737034 298.469744 
z
" style="fill:#440154;opacity:0.2;"/>
   </g>
   <g id="patch_256">
    <path clip-path="url(#p3a1f977de8)" d="M 399.981043 299.76 
L 401.77625 299.76 
L 401.77625 298.878596 
L 399.981043 298.878596 
z
" style="fill:#440154;opacity:0.2;"/>
   </g>
   <g id="patch_257">
    <path clip-path="url(#p3a1f977de8)" d="M 402.225051 299.76 
L 404.020259 299.76 
L 404.020259 298.505286 
L 402.225051 298.505286 
z
" style="fill:#440154;opacity:0.2;"/>
   </g>
   <g id="patch_258">
    <path clip-path="url(#p3a1f977de8)" d="M 404.46906 299.76 
L 406.264267 299.76 
L 406.264267 299.149899 
L 404.46906 299.149899 
z
" style="fill:#440154;opacity:0.2;"/>
   </g>
   <g id="patch_259">
    <path clip-path="url(#p3a1f977de8)" d="M 406.713069 299.76 
L 408.508276 299.76 
L 408.508276 299.21921 
L 406.713069 299.21921 
z
" style="fill:#440154;opacity:0.2;"/>
   </g>
   <g id="patch_260">
    <path clip-path="url(#p3a1f977de8)" d="M 408.957078 299.76 
L 410.752285 299.76 
L 410.752285 299.17926 
L 408.957078 299.17926 
z
" style="fill:#440154;opacity:0.2;"/>
   </g>
   <g id="patch_261">
    <path clip-path="url(#p3a1f977de8)" d="M 411.201087 299.76 
L 412.996294 299.76 
L 412.996294 299.422612 
L 411.201087 299.422612 
z
" style="fill:#440154;opacity:0.2;"/>
   </g>
   <g id="patch_262">
    <path clip-path="url(#p3a1f977de8)" d="M 413.445096 299.76 
L 415.240303 299.76 
L 415.240303 299.650826 
L 413.445096 299.650826 
z
" style="fill:#440154;opacity:0.2;"/>
   </g>
   <g id="patch_263">
    <path clip-path="url(#p3a1f977de8)" d="M 415.689105 299.76 
L 417.484312 299.76 
L 417.484312 299.644816 
L 415.689105 299.644816 
z
" style="fill:#440154;opacity:0.2;"/>
   </g>
   <g id="patch_264">
    <path clip-path="url(#p3a1f977de8)" d="M 417.933113 299.76 
L 419.728321 299.76 
L 419.728321 299.233962 
L 417.933113 299.233962 
z
" style="fill:#440154;opacity:0.2;"/>
   </g>
   <g id="patch_265">
    <path clip-path="url(#p3a1f977de8)" d="M 420.177122 299.76 
L 421.972329 299.76 
L 421.972329 299.587225 
L 420.177122 299.587225 
z
" style="fill:#440154;opacity:0.2;"/>
   </g>
   <g id="patch_266">
    <path clip-path="url(#p3a1f977de8)" d="M 422.421131 299.76 
L 424.216338 299.76 
L 424.216338 299.661844 
L 422.421131 299.661844 
z
" style="fill:#440154;opacity:0.2;"/>
   </g>
   <g id="patch_267">
    <path clip-path="url(#p3a1f977de8)" d="M 424.66514 299.76 
L 426.460347 299.76 
L 426.460347 299.081419 
L 424.66514 299.081419 
z
" style="fill:#440154;opacity:0.2;"/>
   </g>
   <g id="patch_268">
    <path clip-path="url(#p3a1f977de8)" d="M 426.909149 299.76 
L 428.704356 299.76 
L 428.704356 299.532323 
L 426.909149 299.532323 
z
" style="fill:#440154;opacity:0.2;"/>
   </g>
   <g id="patch_269">
    <path clip-path="url(#p3a1f977de8)" d="M 429.153158 299.76 
L 430.948365 299.76 
L 430.948365 299.579713 
L 429.153158 299.579713 
z
" style="fill:#440154;opacity:0.2;"/>
   </g>
   <g id="patch_270">
    <path clip-path="url(#p3a1f977de8)" d="M 431.397167 299.76 
L 433.192374 299.76 
L 433.192374 299.667352 
L 431.397167 299.667352 
z
" style="fill:#440154;opacity:0.2;"/>
   </g>
   <g id="patch_271">
    <path clip-path="url(#p3a1f977de8)" d="M 433.641175 299.76 
L 435.436383 299.76 
L 435.436383 299.749984 
L 433.641175 299.749984 
z
" style="fill:#440154;opacity:0.2;"/>
   </g>
   <g id="patch_272">
    <path clip-path="url(#p3a1f977de8)" d="M 435.885184 299.76 
L 437.680391 299.76 
L 437.680391 299.76 
L 435.885184 299.76 
z
" style="fill:#440154;opacity:0.2;"/>
   </g>
   <g id="patch_273">
    <path clip-path="url(#p3a1f977de8)" d="M 438.129193 299.76 
L 439.9244 299.76 
L 439.9244 299.579713 
L 438.129193 299.579713 
z
" style="fill:#440154;opacity:0.2;"/>
   </g>
   <g id="patch_274">
    <path clip-path="url(#p3a1f977de8)" d="M 440.373202 299.76 
L 442.168409 299.76 
L 442.168409 290.429976 
L 440.373202 290.429976 
z
" style="fill:#440154;opacity:0.2;"/>
   </g>
   <g id="matplotlib.axis_7">
    <g id="xtick_12">
     <g id="line2d_26">
      <g>
       <use style="stroke:#000000;stroke-width:0.8;" x="307.752279" xlink:href="#m25b0de0252" y="300.76"/>
      </g>
     </g>
     <g id="text_29">
      <!-- −4 -->
      <g transform="translate(300.381185 315.358437)scale(0.1 -0.1)">
       <use xlink:href="#DejaVuSans-8722"/>
       <use x="83.789062" xlink:href="#DejaVuSans-52"/>
      </g>
     </g>
    </g>
    <g id="xtick_13">
     <g id="line2d_27">
      <g>
       <use style="stroke:#000000;stroke-width:0.8;" x="352.632456" xlink:href="#m25b0de0252" y="300.76"/>
      </g>
     </g>
     <g id="text_30">
      <!-- −2 -->
      <g transform="translate(345.261362 315.358437)scale(0.1 -0.1)">
       <use xlink:href="#DejaVuSans-8722"/>
       <use x="83.789062" xlink:href="#DejaVuSans-50"/>
      </g>
     </g>
    </g>
    <g id="xtick_14">
     <g id="line2d_28">
      <g>
       <use style="stroke:#000000;stroke-width:0.8;" x="397.512633" xlink:href="#m25b0de0252" y="300.76"/>
      </g>
     </g>
     <g id="text_31">
      <!-- 0 -->
      <g transform="translate(394.331383 315.358437)scale(0.1 -0.1)">
       <use xlink:href="#DejaVuSans-48"/>
      </g>
     </g>
    </g>
    <g id="xtick_15">
     <g id="line2d_29">
      <g>
       <use style="stroke:#000000;stroke-width:0.8;" x="442.39281" xlink:href="#m25b0de0252" y="300.76"/>
      </g>
     </g>
     <g id="text_32">
      <!-- 2 -->
      <g transform="translate(439.21156 315.358437)scale(0.1 -0.1)">
       <use xlink:href="#DejaVuSans-50"/>
      </g>
     </g>
    </g>
    <g id="text_33">
     <!-- $\log_{10}\omega$ -->
     <defs>
      <path d="M 45.40625 27.984375 
Q 45.40625 37.75 41.375 43.109375 
Q 37.359375 48.484375 30.078125 48.484375 
Q 22.859375 48.484375 18.828125 43.109375 
Q 14.796875 37.75 14.796875 27.984375 
Q 14.796875 18.265625 18.828125 12.890625 
Q 22.859375 7.515625 30.078125 7.515625 
Q 37.359375 7.515625 41.375 12.890625 
Q 45.40625 18.265625 45.40625 27.984375 
z
M 54.390625 6.78125 
Q 54.390625 -7.171875 48.1875 -13.984375 
Q 42 -20.796875 29.203125 -20.796875 
Q 24.46875 -20.796875 20.265625 -20.09375 
Q 16.0625 -19.390625 12.109375 -17.921875 
L 12.109375 -9.1875 
Q 16.0625 -11.328125 19.921875 -12.34375 
Q 23.78125 -13.375 27.78125 -13.375 
Q 36.625 -13.375 41.015625 -8.765625 
Q 45.40625 -4.15625 45.40625 5.171875 
L 45.40625 9.625 
Q 42.625 4.78125 38.28125 2.390625 
Q 33.9375 0 27.875 0 
Q 17.828125 0 11.671875 7.65625 
Q 5.515625 15.328125 5.515625 27.984375 
Q 5.515625 40.671875 11.671875 48.328125 
Q 17.828125 56 27.875 56 
Q 33.9375 56 38.28125 53.609375 
Q 42.625 51.21875 45.40625 46.390625 
L 45.40625 54.6875 
L 54.390625 54.6875 
z
" id="DejaVuSans-103"/>
      <path d="M 21.390625 -1.421875 
Q 1.125 -1.421875 6.78125 27.59375 
Q 8.984375 39.0625 19.625 54.6875 
L 29.296875 54.6875 
Q 19.234375 39.0625 17 27.34375 
Q 12.796875 6.203125 23.734375 6.203125 
Q 33.84375 6.203125 38.71875 32.46875 
L 47.015625 32.46875 
Q 41.703125 6.0625 51.8125 6.203125 
Q 62.703125 6.296875 66.796875 27.34375 
Q 69.046875 39.0625 65.140625 54.6875 
L 74.8125 54.6875 
Q 79.296875 39.0625 77.09375 27.59375 
Q 71.53125 -1.46875 51.21875 -1.421875 
Q 37.9375 -1.375 39.109375 13.1875 
Q 34.28125 -1.421875 21.390625 -1.421875 
z
" id="DejaVuSans-Oblique-969"/>
     </defs>
     <g transform="translate(347.4025 329.038125)scale(0.1 -0.1)">
      <use transform="translate(0 0.015625)" xlink:href="#DejaVuSans-108"/>
      <use transform="translate(27.783203 0.015625)" xlink:href="#DejaVuSans-111"/>
      <use transform="translate(88.964844 0.015625)" xlink:href="#DejaVuSans-103"/>
      <use transform="translate(153.398438 -16.390625)scale(0.7)" xlink:href="#DejaVuSans-49"/>
      <use transform="translate(197.93457 -16.390625)scale(0.7)" xlink:href="#DejaVuSans-48"/>
      <use transform="translate(245.205078 0.015625)" xlink:href="#DejaVuSans-Oblique-969"/>
     </g>
    </g>
   </g>
   <g id="matplotlib.axis_8">
    <g id="ytick_13">
     <g id="line2d_30">
      <g>
       <use style="stroke:#000000;stroke-width:0.8;" x="276.705" xlink:href="#m1733f4b5b5" y="299.76"/>
      </g>
     </g>
     <g id="text_34">
      <!-- 0 -->
      <g transform="translate(263.3425 303.559219)scale(0.1 -0.1)">
       <use xlink:href="#DejaVuSans-48"/>
      </g>
     </g>
    </g>
    <g id="ytick_14">
     <g id="line2d_31">
      <g>
       <use style="stroke:#000000;stroke-width:0.8;" x="276.705" xlink:href="#m1733f4b5b5" y="263.702546"/>
      </g>
     </g>
     <g id="text_35">
      <!-- 200 -->
      <g transform="translate(250.6175 267.501765)scale(0.1 -0.1)">
       <use xlink:href="#DejaVuSans-50"/>
       <use x="63.623047" xlink:href="#DejaVuSans-48"/>
       <use x="127.246094" xlink:href="#DejaVuSans-48"/>
      </g>
     </g>
    </g>
    <g id="ytick_15">
     <g id="line2d_32">
      <g>
       <use style="stroke:#000000;stroke-width:0.8;" x="276.705" xlink:href="#m1733f4b5b5" y="227.645093"/>
      </g>
     </g>
     <g id="text_36">
      <!-- 400 -->
      <g transform="translate(250.6175 231.444312)scale(0.1 -0.1)">
       <use xlink:href="#DejaVuSans-52"/>
       <use x="63.623047" xlink:href="#DejaVuSans-48"/>
       <use x="127.246094" xlink:href="#DejaVuSans-48"/>
      </g>
     </g>
    </g>
    <g id="ytick_16">
     <g id="line2d_33">
      <g>
       <use style="stroke:#000000;stroke-width:0.8;" x="276.705" xlink:href="#m1733f4b5b5" y="191.587639"/>
      </g>
     </g>
     <g id="text_37">
      <!-- 600 -->
      <defs>
       <path d="M 33.015625 40.375 
Q 26.375 40.375 22.484375 35.828125 
Q 18.609375 31.296875 18.609375 23.390625 
Q 18.609375 15.53125 22.484375 10.953125 
Q 26.375 6.390625 33.015625 6.390625 
Q 39.65625 6.390625 43.53125 10.953125 
Q 47.40625 15.53125 47.40625 23.390625 
Q 47.40625 31.296875 43.53125 35.828125 
Q 39.65625 40.375 33.015625 40.375 
z
M 52.59375 71.296875 
L 52.59375 62.3125 
Q 48.875 64.0625 45.09375 64.984375 
Q 41.3125 65.921875 37.59375 65.921875 
Q 27.828125 65.921875 22.671875 59.328125 
Q 17.53125 52.734375 16.796875 39.40625 
Q 19.671875 43.65625 24.015625 45.921875 
Q 28.375 48.1875 33.59375 48.1875 
Q 44.578125 48.1875 50.953125 41.515625 
Q 57.328125 34.859375 57.328125 23.390625 
Q 57.328125 12.15625 50.6875 5.359375 
Q 44.046875 -1.421875 33.015625 -1.421875 
Q 20.359375 -1.421875 13.671875 8.265625 
Q 6.984375 17.96875 6.984375 36.375 
Q 6.984375 53.65625 15.1875 63.9375 
Q 23.390625 74.21875 37.203125 74.21875 
Q 40.921875 74.21875 44.703125 73.484375 
Q 48.484375 72.75 52.59375 71.296875 
z
" id="DejaVuSans-54"/>
      </defs>
      <g transform="translate(250.6175 195.386858)scale(0.1 -0.1)">
       <use xlink:href="#DejaVuSans-54"/>
       <use x="63.623047" xlink:href="#DejaVuSans-48"/>
       <use x="127.246094" xlink:href="#DejaVuSans-48"/>
      </g>
     </g>
    </g>
   </g>
   <g id="patch_275">
    <path d="M 276.705 299.76 
L 276.705 188.404722 
" style="fill:none;stroke:#000000;stroke-linecap:square;stroke-linejoin:miter;stroke-width:0.8;"/>
   </g>
   <g id="patch_276">
    <path d="M 277.705 300.76 
L 450 300.76 
" style="fill:none;stroke:#000000;stroke-linecap:square;stroke-linejoin:miter;stroke-width:0.8;"/>
   </g>
   <g id="legend_4">
    <g id="patch_277">
     <path d="M 282.205 196.703941 
L 292.205 196.703941 
L 292.205 193.203941 
L 282.205 193.203941 
z
" style="fill:#440154;opacity:0.2;"/>
    </g>
    <g id="text_38">
     <!-- component 0 -->
     <g transform="translate(292.705 196.703941)scale(0.05 -0.05)">
      <use xlink:href="#DejaVuSans-99"/>
      <use x="54.980469" xlink:href="#DejaVuSans-111"/>
      <use x="116.162109" xlink:href="#DejaVuSans-109"/>
      <use x="213.574219" xlink:href="#DejaVuSans-112"/>
      <use x="277.050781" xlink:href="#DejaVuSans-111"/>
      <use x="338.232422" xlink:href="#DejaVuSans-110"/>
      <use x="401.611328" xlink:href="#DejaVuSans-101"/>
      <use x="463.134766" xlink:href="#DejaVuSans-110"/>
      <use x="526.513672" xlink:href="#DejaVuSans-116"/>
      <use x="565.722656" xlink:href="#DejaVuSans-32"/>
      <use x="597.509766" xlink:href="#DejaVuSans-48"/>
     </g>
    </g>
   </g>
  </g>
  <g id="text_39">
   <!-- Ks_gmm_1components_prediction.tsv -->
   <defs>
    <path d="M 9.8125 72.90625 
L 19.671875 72.90625 
L 19.671875 42.09375 
L 52.390625 72.90625 
L 65.09375 72.90625 
L 28.90625 38.921875 
L 67.671875 0 
L 54.6875 0 
L 19.671875 35.109375 
L 19.671875 0 
L 9.8125 0 
z
" id="DejaVuSans-75"/>
    <path d="M 50.984375 -16.609375 
L 50.984375 -23.578125 
L -0.984375 -23.578125 
L -0.984375 -16.609375 
z
" id="DejaVuSans-95"/>
    <path d="M 41.109375 46.296875 
Q 39.59375 47.171875 37.8125 47.578125 
Q 36.03125 48 33.890625 48 
Q 26.265625 48 22.1875 43.046875 
Q 18.109375 38.09375 18.109375 28.8125 
L 18.109375 0 
L 9.078125 0 
L 9.078125 54.6875 
L 18.109375 54.6875 
L 18.109375 46.1875 
Q 20.953125 51.171875 25.484375 53.578125 
Q 30.03125 56 36.53125 56 
Q 37.453125 56 38.578125 55.875 
Q 39.703125 55.765625 41.0625 55.515625 
z
" id="DejaVuSans-114"/>
    <path d="M 45.40625 46.390625 
L 45.40625 75.984375 
L 54.390625 75.984375 
L 54.390625 0 
L 45.40625 0 
L 45.40625 8.203125 
Q 42.578125 3.328125 38.25 0.953125 
Q 33.9375 -1.421875 27.875 -1.421875 
Q 17.96875 -1.421875 11.734375 6.484375 
Q 5.515625 14.40625 5.515625 27.296875 
Q 5.515625 40.1875 11.734375 48.09375 
Q 17.96875 56 27.875 56 
Q 33.9375 56 38.25 53.625 
Q 42.578125 51.265625 45.40625 46.390625 
z
M 14.796875 27.296875 
Q 14.796875 17.390625 18.875 11.75 
Q 22.953125 6.109375 30.078125 6.109375 
Q 37.203125 6.109375 41.296875 11.75 
Q 45.40625 17.390625 45.40625 27.296875 
Q 45.40625 37.203125 41.296875 42.84375 
Q 37.203125 48.484375 30.078125 48.484375 
Q 22.953125 48.484375 18.875 42.84375 
Q 14.796875 37.203125 14.796875 27.296875 
z
" id="DejaVuSans-100"/>
    <path d="M 10.6875 12.40625 
L 21 12.40625 
L 21 0 
L 10.6875 0 
z
" id="DejaVuSans-46"/>
   </defs>
   <g transform="translate(57.6 43.678125)scale(0.12 -0.12)">
    <use xlink:href="#DejaVuSans-75"/>
    <use x="65.576172" xlink:href="#DejaVuSans-115"/>
    <use x="117.675781" xlink:href="#DejaVuSans-95"/>
    <use x="167.675781" xlink:href="#DejaVuSans-103"/>
    <use x="231.152344" xlink:href="#DejaVuSans-109"/>
    <use x="328.564453" xlink:href="#DejaVuSans-109"/>
    <use x="425.976562" xlink:href="#DejaVuSans-95"/>
    <use x="475.976562" xlink:href="#DejaVuSans-49"/>
    <use x="539.599609" xlink:href="#DejaVuSans-99"/>
    <use x="594.580078" xlink:href="#DejaVuSans-111"/>
    <use x="655.761719" xlink:href="#DejaVuSans-109"/>
    <use x="753.173828" xlink:href="#DejaVuSans-112"/>
    <use x="816.650391" xlink:href="#DejaVuSans-111"/>
    <use x="877.832031" xlink:href="#DejaVuSans-110"/>
    <use x="941.210938" xlink:href="#DejaVuSans-101"/>
    <use x="1002.734375" xlink:href="#DejaVuSans-110"/>
    <use x="1066.113281" xlink:href="#DejaVuSans-116"/>
    <use x="1105.322266" xlink:href="#DejaVuSans-115"/>
    <use x="1157.421875" xlink:href="#DejaVuSans-95"/>
    <use x="1207.421875" xlink:href="#DejaVuSans-112"/>
    <use x="1270.898438" xlink:href="#DejaVuSans-114"/>
    <use x="1309.761719" xlink:href="#DejaVuSans-101"/>
    <use x="1371.285156" xlink:href="#DejaVuSans-100"/>
    <use x="1434.761719" xlink:href="#DejaVuSans-105"/>
    <use x="1462.544922" xlink:href="#DejaVuSans-99"/>
    <use x="1517.525391" xlink:href="#DejaVuSans-116"/>
    <use x="1556.734375" xlink:href="#DejaVuSans-105"/>
    <use x="1584.517578" xlink:href="#DejaVuSans-111"/>
    <use x="1645.699219" xlink:href="#DejaVuSans-110"/>
    <use x="1709.078125" xlink:href="#DejaVuSans-46"/>
    <use x="1740.865234" xlink:href="#DejaVuSans-116"/>
    <use x="1780.074219" xlink:href="#DejaVuSans-115"/>
    <use x="1832.173828" xlink:href="#DejaVuSans-118"/>
   </g>
  </g>
 </g>
 <defs>
  <clipPath id="p6a85fab43f">
   <rect height="111.355278" width="172.295" x="58.17" y="51.84"/>
  </clipPath>
  <clipPath id="p8e67abd7f4">
   <rect height="111.355278" width="172.295" x="277.705" y="51.84"/>
  </clipPath>
  <clipPath id="p21a5e9811c">
   <rect height="111.355278" width="172.295" x="58.17" y="188.404722"/>
  </clipPath>
  <clipPath id="p3a1f977de8">
   <rect height="111.355278" width="172.295" x="277.705" y="188.404722"/>
  </clipPath>
 </defs>
</svg>
