<?xml version="1.0" encoding="utf-8" standalone="no"?>
<!DOCTYPE svg PUBLIC "-//W3C//DTD SVG 1.1//EN"
  "http://www.w3.org/Graphics/SVG/1.1/DTD/svg11.dtd">
<!-- Created with matplotlib (https://matplotlib.org/) -->
<svg height="345.6pt" version="1.1" viewBox="0 0 460.8 345.6" width="460.8pt" xmlns="http://www.w3.org/2000/svg" xmlns:xlink="http://www.w3.org/1999/xlink">
 <defs>
  <style type="text/css">
*{stroke-linecap:butt;stroke-linejoin:round;}
  </style>
 </defs>
 <g id="figure_1">
  <g id="patch_1">
   <path d="M 0 345.6 
L 460.8 345.6 
L 460.8 0 
L 0 0 
z
" style="fill:#ffffff;"/>
  </g>
  <g id="axes_1">
   <g id="patch_2">
    <path d="M 58.17 163.410864 
L 230.465 163.410864 
L 230.465 51.84 
L 58.17 51.84 
z
" style="fill:#ffffff;"/>
   </g>
   <g id="patch_3">
    <path clip-path="url(#p6b1f6a87df)" d="M 59.031475 163.410864 
L 65.923275 163.410864 
L 65.923275 156.790973 
L 59.031475 156.790973 
z
" style="fill:#440154;opacity:0.2;"/>
   </g>
   <g id="patch_4">
    <path clip-path="url(#p6b1f6a87df)" d="M 67.646225 163.410864 
L 74.538025 163.410864 
L 74.538025 133.667362 
L 67.646225 133.667362 
z
" style="fill:#440154;opacity:0.2;"/>
   </g>
   <g id="patch_5">
    <path clip-path="url(#p6b1f6a87df)" d="M 76.260975 163.410864 
L 83.152775 163.410864 
L 83.152775 57.152898 
L 76.260975 57.152898 
z
" style="fill:#440154;opacity:0.2;"/>
   </g>
   <g id="patch_6">
    <path clip-path="url(#p6b1f6a87df)" d="M 84.875725 163.410864 
L 91.767525 163.410864 
L 91.767525 97.7872 
L 84.875725 97.7872 
z
" style="fill:#440154;opacity:0.2;"/>
   </g>
   <g id="patch_7">
    <path clip-path="url(#p6b1f6a87df)" d="M 93.490475 163.410864 
L 100.382275 163.410864 
L 100.382275 140.316302 
L 93.490475 140.316302 
z
" style="fill:#440154;opacity:0.2;"/>
   </g>
   <g id="patch_8">
    <path clip-path="url(#p6b1f6a87df)" d="M 102.105225 163.410864 
L 108.997025 163.410864 
L 108.997025 154.108458 
L 102.105225 154.108458 
z
" style="fill:#440154;opacity:0.2;"/>
   </g>
   <g id="patch_9">
    <path clip-path="url(#p6b1f6a87df)" d="M 110.719975 163.410864 
L 117.611775 163.410864 
L 117.611775 159.425272 
L 110.719975 159.425272 
z
" style="fill:#440154;opacity:0.2;"/>
   </g>
   <g id="patch_10">
    <path clip-path="url(#p6b1f6a87df)" d="M 119.334725 163.410864 
L 126.226525 163.410864 
L 126.226525 160.793644 
L 119.334725 160.793644 
z
" style="fill:#440154;opacity:0.2;"/>
   </g>
   <g id="patch_11">
    <path clip-path="url(#p6b1f6a87df)" d="M 127.949475 163.410864 
L 134.841275 163.410864 
L 134.841275 161.43506 
L 127.949475 161.43506 
z
" style="fill:#440154;opacity:0.2;"/>
   </g>
   <g id="patch_12">
    <path clip-path="url(#p6b1f6a87df)" d="M 136.564225 163.410864 
L 143.456025 163.410864 
L 143.456025 161.684167 
L 136.564225 161.684167 
z
" style="fill:#440154;opacity:0.2;"/>
   </g>
   <g id="patch_13">
    <path clip-path="url(#p6b1f6a87df)" d="M 145.178975 163.410864 
L 152.070775 163.410864 
L 152.070775 162.230245 
L 145.178975 162.230245 
z
" style="fill:#440154;opacity:0.2;"/>
   </g>
   <g id="patch_14">
    <path clip-path="url(#p6b1f6a87df)" d="M 153.793725 163.410864 
L 160.685525 163.410864 
L 160.685525 162.664789 
L 153.793725 162.664789 
z
" style="fill:#440154;opacity:0.2;"/>
   </g>
   <g id="patch_15">
    <path clip-path="url(#p6b1f6a87df)" d="M 162.408475 163.410864 
L 169.300275 163.410864 
L 169.300275 162.619094 
L 162.408475 162.619094 
z
" style="fill:#440154;opacity:0.2;"/>
   </g>
   <g id="patch_16">
    <path clip-path="url(#p6b1f6a87df)" d="M 171.023225 163.410864 
L 177.915025 163.410864 
L 177.915025 162.547749 
L 171.023225 162.547749 
z
" style="fill:#440154;opacity:0.2;"/>
   </g>
   <g id="patch_17">
    <path clip-path="url(#p6b1f6a87df)" d="M 179.637975 163.410864 
L 186.529775 163.410864 
L 186.529775 162.713426 
L 179.637975 162.713426 
z
" style="fill:#440154;opacity:0.2;"/>
   </g>
   <g id="patch_18">
    <path clip-path="url(#p6b1f6a87df)" d="M 188.252725 163.410864 
L 195.144525 163.410864 
L 195.144525 162.849643 
L 188.252725 162.849643 
z
" style="fill:#440154;opacity:0.2;"/>
   </g>
   <g id="patch_19">
    <path clip-path="url(#p6b1f6a87df)" d="M 196.867475 163.410864 
L 203.759275 163.410864 
L 203.759275 162.927211 
L 196.867475 162.927211 
z
" style="fill:#440154;opacity:0.2;"/>
   </g>
   <g id="patch_20">
    <path clip-path="url(#p6b1f6a87df)" d="M 205.482225 163.410864 
L 212.374025 163.410864 
L 212.374025 163.004978 
L 205.482225 163.004978 
z
" style="fill:#440154;opacity:0.2;"/>
   </g>
   <g id="patch_21">
    <path clip-path="url(#p6b1f6a87df)" d="M 214.096975 163.410864 
L 220.988775 163.410864 
L 220.988775 163.007902 
L 214.096975 163.007902 
z
" style="fill:#440154;opacity:0.2;"/>
   </g>
   <g id="patch_22">
    <path clip-path="url(#p6b1f6a87df)" d="M 222.711725 163.410864 
L 229.603525 163.410864 
L 229.603525 162.910627 
L 222.711725 162.910627 
z
" style="fill:#440154;opacity:0.2;"/>
   </g>
   <g id="patch_23">
    <path clip-path="url(#p6b1f6a87df)" d="M 231.326475 163.410864 
L 238.218275 163.410864 
L 238.218275 163.261798 
L 231.326475 163.261798 
z
" style="fill:#440154;opacity:0.2;"/>
   </g>
   <g id="patch_24">
    <path clip-path="url(#p6b1f6a87df)" d="M 239.941225 163.410864 
L 246.833025 163.410864 
L 246.833025 163.316979 
L 239.941225 163.316979 
z
" style="fill:#440154;opacity:0.2;"/>
   </g>
   <g id="patch_25">
    <path clip-path="url(#p6b1f6a87df)" d="M 248.555975 163.410864 
L 255.447775 163.410864 
L 255.447775 163.264824 
L 248.555975 163.264824 
z
" style="fill:#440154;opacity:0.2;"/>
   </g>
   <g id="patch_26">
    <path clip-path="url(#p6b1f6a87df)" d="M 257.170725 163.410864 
L 264.062525 163.410864 
L 264.062525 163.304959 
L 257.170725 163.304959 
z
" style="fill:#440154;opacity:0.2;"/>
   </g>
   <g id="patch_27">
    <path clip-path="url(#p6b1f6a87df)" d="M 265.785475 163.410864 
L 272.677275 163.410864 
L 272.677275 163.307638 
L 265.785475 163.307638 
z
" style="fill:#440154;opacity:0.2;"/>
   </g>
   <g id="patch_28">
    <path clip-path="url(#p6b1f6a87df)" d="M 274.400225 163.410864 
L 281.292025 163.410864 
L 281.292025 163.372961 
L 274.400225 163.372961 
z
" style="fill:#440154;opacity:0.2;"/>
   </g>
   <g id="patch_29">
    <path clip-path="url(#p6b1f6a87df)" d="M 283.014975 163.410864 
L 289.906775 163.410864 
L 289.906775 163.308377 
L 283.014975 163.308377 
z
" style="fill:#440154;opacity:0.2;"/>
   </g>
   <g id="patch_30">
    <path clip-path="url(#p6b1f6a87df)" d="M 291.629725 163.410864 
L 298.521525 163.410864 
L 298.521525 163.31595 
L 291.629725 163.31595 
z
" style="fill:#440154;opacity:0.2;"/>
   </g>
   <g id="patch_31">
    <path clip-path="url(#p6b1f6a87df)" d="M 300.244475 163.410864 
L 307.136275 163.410864 
L 307.136275 163.389559 
L 300.244475 163.389559 
z
" style="fill:#440154;opacity:0.2;"/>
   </g>
   <g id="patch_32">
    <path clip-path="url(#p6b1f6a87df)" d="M 308.859225 163.410864 
L 315.751025 163.410864 
L 315.751025 163.367582 
L 308.859225 163.367582 
z
" style="fill:#440154;opacity:0.2;"/>
   </g>
   <g id="patch_33">
    <path clip-path="url(#p6b1f6a87df)" d="M 317.473975 163.410864 
L 324.365775 163.410864 
L 324.365775 163.396946 
L 317.473975 163.396946 
z
" style="fill:#440154;opacity:0.2;"/>
   </g>
   <g id="patch_34">
    <path clip-path="url(#p6b1f6a87df)" d="M 326.088725 163.410864 
L 332.980525 163.410864 
L 332.980525 163.353862 
L 326.088725 163.353862 
z
" style="fill:#440154;opacity:0.2;"/>
   </g>
   <g id="patch_35">
    <path clip-path="url(#p6b1f6a87df)" d="M 334.703475 163.410864 
L 341.595275 163.410864 
L 341.595275 163.32884 
L 334.703475 163.32884 
z
" style="fill:#440154;opacity:0.2;"/>
   </g>
   <g id="patch_36">
    <path clip-path="url(#p6b1f6a87df)" d="M 343.318225 163.410864 
L 350.210025 163.410864 
L 350.210025 163.369873 
L 343.318225 163.369873 
z
" style="fill:#440154;opacity:0.2;"/>
   </g>
   <g id="patch_37">
    <path clip-path="url(#p6b1f6a87df)" d="M 351.932975 163.410864 
L 358.824775 163.410864 
L 358.824775 163.383372 
L 351.932975 163.383372 
z
" style="fill:#440154;opacity:0.2;"/>
   </g>
   <g id="patch_38">
    <path clip-path="url(#p6b1f6a87df)" d="M 360.547725 163.410864 
L 367.439525 163.410864 
L 367.439525 163.363682 
L 360.547725 163.363682 
z
" style="fill:#440154;opacity:0.2;"/>
   </g>
   <g id="patch_39">
    <path clip-path="url(#p6b1f6a87df)" d="M 369.162475 163.410864 
L 376.054275 163.410864 
L 376.054275 163.35171 
L 369.162475 163.35171 
z
" style="fill:#440154;opacity:0.2;"/>
   </g>
   <g id="patch_40">
    <path clip-path="url(#p6b1f6a87df)" d="M 377.777225 163.410864 
L 384.669025 163.410864 
L 384.669025 163.364273 
L 377.777225 163.364273 
z
" style="fill:#440154;opacity:0.2;"/>
   </g>
   <g id="patch_41">
    <path clip-path="url(#p6b1f6a87df)" d="M 386.391975 163.410864 
L 393.283775 163.410864 
L 393.283775 163.387747 
L 386.391975 163.387747 
z
" style="fill:#440154;opacity:0.2;"/>
   </g>
   <g id="patch_42">
    <path clip-path="url(#p6b1f6a87df)" d="M 395.006725 163.410864 
L 401.898525 163.410864 
L 401.898525 163.380768 
L 395.006725 163.380768 
z
" style="fill:#440154;opacity:0.2;"/>
   </g>
   <g id="patch_43">
    <path clip-path="url(#p6b1f6a87df)" d="M 403.621475 163.410864 
L 410.513275 163.410864 
L 410.513275 163.380357 
L 403.621475 163.380357 
z
" style="fill:#440154;opacity:0.2;"/>
   </g>
   <g id="patch_44">
    <path clip-path="url(#p6b1f6a87df)" d="M 412.236225 163.410864 
L 419.128025 163.410864 
L 419.128025 163.386694 
L 412.236225 163.386694 
z
" style="fill:#440154;opacity:0.2;"/>
   </g>
   <g id="patch_45">
    <path clip-path="url(#p6b1f6a87df)" d="M 420.850975 163.410864 
L 427.742775 163.410864 
L 427.742775 163.405838 
L 420.850975 163.405838 
z
" style="fill:#440154;opacity:0.2;"/>
   </g>
   <g id="patch_46">
    <path clip-path="url(#p6b1f6a87df)" d="M 429.465725 163.410864 
L 436.357525 163.410864 
L 436.357525 163.385737 
L 429.465725 163.385737 
z
" style="fill:#440154;opacity:0.2;"/>
   </g>
   <g id="patch_47">
    <path clip-path="url(#p6b1f6a87df)" d="M 438.080475 163.410864 
L 444.972275 163.410864 
L 444.972275 163.393634 
L 438.080475 163.393634 
z
" style="fill:#440154;opacity:0.2;"/>
   </g>
   <g id="patch_48">
    <path clip-path="url(#p6b1f6a87df)" d="M 446.695225 163.410864 
L 453.587025 163.410864 
L 453.587025 163.378758 
L 446.695225 163.378758 
z
" style="fill:#440154;opacity:0.2;"/>
   </g>
   <g id="patch_49">
    <path clip-path="url(#p6b1f6a87df)" d="M 455.309975 163.410864 
L 462.201775 163.410864 
L 462.201775 163.39949 
L 455.309975 163.39949 
z
" style="fill:#440154;opacity:0.2;"/>
   </g>
   <g id="patch_50">
    <path clip-path="url(#p6b1f6a87df)" d="M 463.924725 163.410864 
L 470.816525 163.410864 
L 470.816525 163.369299 
L 463.924725 163.369299 
z
" style="fill:#440154;opacity:0.2;"/>
   </g>
   <g id="patch_51">
    <path clip-path="url(#p6b1f6a87df)" d="M 472.539475 163.410864 
L 479.431275 163.410864 
L 479.431275 163.410864 
L 472.539475 163.410864 
z
" style="fill:#440154;opacity:0.2;"/>
   </g>
   <g id="patch_52">
    <path clip-path="url(#p6b1f6a87df)" d="M 481.154225 163.410864 
L 488.046025 163.410864 
L 488.046025 163.398859 
L 481.154225 163.398859 
z
" style="fill:#440154;opacity:0.2;"/>
   </g>
   <g id="matplotlib.axis_1">
    <g id="xtick_1">
     <g id="line2d_1">
      <defs>
       <path d="M 0 0 
L 0 3.5 
" id="mb6e2578e4a" style="stroke:#000000;stroke-width:0.8;"/>
      </defs>
      <g>
       <use style="stroke:#000000;stroke-width:0.8;" x="58.17" xlink:href="#mb6e2578e4a" y="164.410864"/>
      </g>
     </g>
     <g id="text_1">
      <!-- 0 -->
      <defs>
       <path d="M 31.78125 66.40625 
Q 24.171875 66.40625 20.328125 58.90625 
Q 16.5 51.421875 16.5 36.375 
Q 16.5 21.390625 20.328125 13.890625 
Q 24.171875 6.390625 31.78125 6.390625 
Q 39.453125 6.390625 43.28125 13.890625 
Q 47.125 21.390625 47.125 36.375 
Q 47.125 51.421875 43.28125 58.90625 
Q 39.453125 66.40625 31.78125 66.40625 
z
M 31.78125 74.21875 
Q 44.046875 74.21875 50.515625 64.515625 
Q 56.984375 54.828125 56.984375 36.375 
Q 56.984375 17.96875 50.515625 8.265625 
Q 44.046875 -1.421875 31.78125 -1.421875 
Q 19.53125 -1.421875 13.0625 8.265625 
Q 6.59375 17.96875 6.59375 36.375 
Q 6.59375 54.828125 13.0625 64.515625 
Q 19.53125 74.21875 31.78125 74.21875 
z
" id="DejaVuSans-48"/>
      </defs>
      <g transform="translate(54.98875 179.009301)scale(0.1 -0.1)">
       <use xlink:href="#DejaVuSans-48"/>
      </g>
     </g>
    </g>
    <g id="xtick_2">
     <g id="line2d_2">
      <g>
       <use style="stroke:#000000;stroke-width:0.8;" x="144.3175" xlink:href="#mb6e2578e4a" y="164.410864"/>
      </g>
     </g>
     <g id="text_2">
      <!-- 1 -->
      <defs>
       <path d="M 12.40625 8.296875 
L 28.515625 8.296875 
L 28.515625 63.921875 
L 10.984375 60.40625 
L 10.984375 69.390625 
L 28.421875 72.90625 
L 38.28125 72.90625 
L 38.28125 8.296875 
L 54.390625 8.296875 
L 54.390625 0 
L 12.40625 0 
z
" id="DejaVuSans-49"/>
      </defs>
      <g transform="translate(141.13625 179.009301)scale(0.1 -0.1)">
       <use xlink:href="#DejaVuSans-49"/>
      </g>
     </g>
    </g>
    <g id="xtick_3">
     <g id="line2d_3">
      <g>
       <use style="stroke:#000000;stroke-width:0.8;" x="230.465" xlink:href="#mb6e2578e4a" y="164.410864"/>
      </g>
     </g>
     <g id="text_3">
      <!-- 2 -->
      <defs>
       <path d="M 19.1875 8.296875 
L 53.609375 8.296875 
L 53.609375 0 
L 7.328125 0 
L 7.328125 8.296875 
Q 12.9375 14.109375 22.625 23.890625 
Q 32.328125 33.6875 34.8125 36.53125 
Q 39.546875 41.84375 41.421875 45.53125 
Q 43.3125 49.21875 43.3125 52.78125 
Q 43.3125 58.59375 39.234375 62.25 
Q 35.15625 65.921875 28.609375 65.921875 
Q 23.96875 65.921875 18.8125 64.3125 
Q 13.671875 62.703125 7.8125 59.421875 
L 7.8125 69.390625 
Q 13.765625 71.78125 18.9375 73 
Q 24.125 74.21875 28.421875 74.21875 
Q 39.75 74.21875 46.484375 68.546875 
Q 53.21875 62.890625 53.21875 53.421875 
Q 53.21875 48.921875 51.53125 44.890625 
Q 49.859375 40.875 45.40625 35.40625 
Q 44.1875 33.984375 37.640625 27.21875 
Q 31.109375 20.453125 19.1875 8.296875 
z
" id="DejaVuSans-50"/>
      </defs>
      <g transform="translate(227.28375 179.009301)scale(0.1 -0.1)">
       <use xlink:href="#DejaVuSans-50"/>
      </g>
     </g>
    </g>
   </g>
   <g id="matplotlib.axis_2">
    <g id="ytick_1">
     <g id="line2d_4">
      <defs>
       <path d="M 0 0 
L -3.5 0 
" id="m4e26108eb5" style="stroke:#000000;stroke-width:0.8;"/>
      </defs>
      <g>
       <use style="stroke:#000000;stroke-width:0.8;" x="57.17" xlink:href="#m4e26108eb5" y="163.410864"/>
      </g>
     </g>
     <g id="text_4">
      <!-- 0 -->
      <g transform="translate(43.8075 167.210083)scale(0.1 -0.1)">
       <use xlink:href="#DejaVuSans-48"/>
      </g>
     </g>
    </g>
    <g id="ytick_2">
     <g id="line2d_5">
      <g>
       <use style="stroke:#000000;stroke-width:0.8;" x="57.17" xlink:href="#m4e26108eb5" y="143.309626"/>
      </g>
     </g>
     <g id="text_5">
      <!-- 500 -->
      <defs>
       <path d="M 10.796875 72.90625 
L 49.515625 72.90625 
L 49.515625 64.59375 
L 19.828125 64.59375 
L 19.828125 46.734375 
Q 21.96875 47.46875 24.109375 47.828125 
Q 26.265625 48.1875 28.421875 48.1875 
Q 40.625 48.1875 47.75 41.5 
Q 54.890625 34.8125 54.890625 23.390625 
Q 54.890625 11.625 47.5625 5.09375 
Q 40.234375 -1.421875 26.90625 -1.421875 
Q 22.3125 -1.421875 17.546875 -0.640625 
Q 12.796875 0.140625 7.71875 1.703125 
L 7.71875 11.625 
Q 12.109375 9.234375 16.796875 8.0625 
Q 21.484375 6.890625 26.703125 6.890625 
Q 35.15625 6.890625 40.078125 11.328125 
Q 45.015625 15.765625 45.015625 23.390625 
Q 45.015625 31 40.078125 35.4375 
Q 35.15625 39.890625 26.703125 39.890625 
Q 22.75 39.890625 18.8125 39.015625 
Q 14.890625 38.140625 10.796875 36.28125 
z
" id="DejaVuSans-53"/>
      </defs>
      <g transform="translate(31.0825 147.108844)scale(0.1 -0.1)">
       <use xlink:href="#DejaVuSans-53"/>
       <use x="63.623047" xlink:href="#DejaVuSans-48"/>
       <use x="127.246094" xlink:href="#DejaVuSans-48"/>
      </g>
     </g>
    </g>
    <g id="ytick_3">
     <g id="line2d_6">
      <g>
       <use style="stroke:#000000;stroke-width:0.8;" x="57.17" xlink:href="#m4e26108eb5" y="123.208388"/>
      </g>
     </g>
     <g id="text_6">
      <!-- 1000 -->
      <g transform="translate(24.72 127.007606)scale(0.1 -0.1)">
       <use xlink:href="#DejaVuSans-49"/>
       <use x="63.623047" xlink:href="#DejaVuSans-48"/>
       <use x="127.246094" xlink:href="#DejaVuSans-48"/>
       <use x="190.869141" xlink:href="#DejaVuSans-48"/>
      </g>
     </g>
    </g>
    <g id="ytick_4">
     <g id="line2d_7">
      <g>
       <use style="stroke:#000000;stroke-width:0.8;" x="57.17" xlink:href="#m4e26108eb5" y="103.10715"/>
      </g>
     </g>
     <g id="text_7">
      <!-- 1500 -->
      <g transform="translate(24.72 106.906368)scale(0.1 -0.1)">
       <use xlink:href="#DejaVuSans-49"/>
       <use x="63.623047" xlink:href="#DejaVuSans-53"/>
       <use x="127.246094" xlink:href="#DejaVuSans-48"/>
       <use x="190.869141" xlink:href="#DejaVuSans-48"/>
      </g>
     </g>
    </g>
    <g id="ytick_5">
     <g id="line2d_8">
      <g>
       <use style="stroke:#000000;stroke-width:0.8;" x="57.17" xlink:href="#m4e26108eb5" y="83.005912"/>
      </g>
     </g>
     <g id="text_8">
      <!-- 2000 -->
      <g transform="translate(24.72 86.80513)scale(0.1 -0.1)">
       <use xlink:href="#DejaVuSans-50"/>
       <use x="63.623047" xlink:href="#DejaVuSans-48"/>
       <use x="127.246094" xlink:href="#DejaVuSans-48"/>
       <use x="190.869141" xlink:href="#DejaVuSans-48"/>
      </g>
     </g>
    </g>
    <g id="ytick_6">
     <g id="line2d_9">
      <g>
       <use style="stroke:#000000;stroke-width:0.8;" x="57.17" xlink:href="#m4e26108eb5" y="62.904674"/>
      </g>
     </g>
     <g id="text_9">
      <!-- 2500 -->
      <g transform="translate(24.72 66.703892)scale(0.1 -0.1)">
       <use xlink:href="#DejaVuSans-50"/>
       <use x="63.623047" xlink:href="#DejaVuSans-53"/>
       <use x="127.246094" xlink:href="#DejaVuSans-48"/>
       <use x="190.869141" xlink:href="#DejaVuSans-48"/>
      </g>
     </g>
    </g>
    <g id="text_10">
     <!-- Duplication events -->
     <defs>
      <path d="M 19.671875 64.796875 
L 19.671875 8.109375 
L 31.59375 8.109375 
Q 46.6875 8.109375 53.6875 14.9375 
Q 60.6875 21.78125 60.6875 36.53125 
Q 60.6875 51.171875 53.6875 57.984375 
Q 46.6875 64.796875 31.59375 64.796875 
z
M 9.8125 72.90625 
L 30.078125 72.90625 
Q 51.265625 72.90625 61.171875 64.09375 
Q 71.09375 55.28125 71.09375 36.53125 
Q 71.09375 17.671875 61.125 8.828125 
Q 51.171875 0 30.078125 0 
L 9.8125 0 
z
" id="DejaVuSans-68"/>
      <path d="M 8.5 21.578125 
L 8.5 54.6875 
L 17.484375 54.6875 
L 17.484375 21.921875 
Q 17.484375 14.15625 20.5 10.265625 
Q 23.53125 6.390625 29.59375 6.390625 
Q 36.859375 6.390625 41.078125 11.03125 
Q 45.3125 15.671875 45.3125 23.6875 
L 45.3125 54.6875 
L 54.296875 54.6875 
L 54.296875 0 
L 45.3125 0 
L 45.3125 8.40625 
Q 42.046875 3.421875 37.71875 1 
Q 33.40625 -1.421875 27.6875 -1.421875 
Q 18.265625 -1.421875 13.375 4.4375 
Q 8.5 10.296875 8.5 21.578125 
z
M 31.109375 56 
z
" id="DejaVuSans-117"/>
      <path d="M 18.109375 8.203125 
L 18.109375 -20.796875 
L 9.078125 -20.796875 
L 9.078125 54.6875 
L 18.109375 54.6875 
L 18.109375 46.390625 
Q 20.953125 51.265625 25.265625 53.625 
Q 29.59375 56 35.59375 56 
Q 45.5625 56 51.78125 48.09375 
Q 58.015625 40.1875 58.015625 27.296875 
Q 58.015625 14.40625 51.78125 6.484375 
Q 45.5625 -1.421875 35.59375 -1.421875 
Q 29.59375 -1.421875 25.265625 0.953125 
Q 20.953125 3.328125 18.109375 8.203125 
z
M 48.6875 27.296875 
Q 48.6875 37.203125 44.609375 42.84375 
Q 40.53125 48.484375 33.40625 48.484375 
Q 26.265625 48.484375 22.1875 42.84375 
Q 18.109375 37.203125 18.109375 27.296875 
Q 18.109375 17.390625 22.1875 11.75 
Q 26.265625 6.109375 33.40625 6.109375 
Q 40.53125 6.109375 44.609375 11.75 
Q 48.6875 17.390625 48.6875 27.296875 
z
" id="DejaVuSans-112"/>
      <path d="M 9.421875 75.984375 
L 18.40625 75.984375 
L 18.40625 0 
L 9.421875 0 
z
" id="DejaVuSans-108"/>
      <path d="M 9.421875 54.6875 
L 18.40625 54.6875 
L 18.40625 0 
L 9.421875 0 
z
M 9.421875 75.984375 
L 18.40625 75.984375 
L 18.40625 64.59375 
L 9.421875 64.59375 
z
" id="DejaVuSans-105"/>
      <path d="M 48.78125 52.59375 
L 48.78125 44.1875 
Q 44.96875 46.296875 41.140625 47.34375 
Q 37.3125 48.390625 33.40625 48.390625 
Q 24.65625 48.390625 19.8125 42.84375 
Q 14.984375 37.3125 14.984375 27.296875 
Q 14.984375 17.28125 19.8125 11.734375 
Q 24.65625 6.203125 33.40625 6.203125 
Q 37.3125 6.203125 41.140625 7.25 
Q 44.96875 8.296875 48.78125 10.40625 
L 48.78125 2.09375 
Q 45.015625 0.34375 40.984375 -0.53125 
Q 36.96875 -1.421875 32.421875 -1.421875 
Q 20.0625 -1.421875 12.78125 6.34375 
Q 5.515625 14.109375 5.515625 27.296875 
Q 5.515625 40.671875 12.859375 48.328125 
Q 20.21875 56 33.015625 56 
Q 37.15625 56 41.109375 55.140625 
Q 45.0625 54.296875 48.78125 52.59375 
z
" id="DejaVuSans-99"/>
      <path d="M 34.28125 27.484375 
Q 23.390625 27.484375 19.1875 25 
Q 14.984375 22.515625 14.984375 16.5 
Q 14.984375 11.71875 18.140625 8.90625 
Q 21.296875 6.109375 26.703125 6.109375 
Q 34.1875 6.109375 38.703125 11.40625 
Q 43.21875 16.703125 43.21875 25.484375 
L 43.21875 27.484375 
z
M 52.203125 31.203125 
L 52.203125 0 
L 43.21875 0 
L 43.21875 8.296875 
Q 40.140625 3.328125 35.546875 0.953125 
Q 30.953125 -1.421875 24.3125 -1.421875 
Q 15.921875 -1.421875 10.953125 3.296875 
Q 6 8.015625 6 15.921875 
Q 6 25.140625 12.171875 29.828125 
Q 18.359375 34.515625 30.609375 34.515625 
L 43.21875 34.515625 
L 43.21875 35.40625 
Q 43.21875 41.609375 39.140625 45 
Q 35.0625 48.390625 27.6875 48.390625 
Q 23 48.390625 18.546875 47.265625 
Q 14.109375 46.140625 10.015625 43.890625 
L 10.015625 52.203125 
Q 14.9375 54.109375 19.578125 55.046875 
Q 24.21875 56 28.609375 56 
Q 40.484375 56 46.34375 49.84375 
Q 52.203125 43.703125 52.203125 31.203125 
z
" id="DejaVuSans-97"/>
      <path d="M 18.3125 70.21875 
L 18.3125 54.6875 
L 36.8125 54.6875 
L 36.8125 47.703125 
L 18.3125 47.703125 
L 18.3125 18.015625 
Q 18.3125 11.328125 20.140625 9.421875 
Q 21.96875 7.515625 27.59375 7.515625 
L 36.8125 7.515625 
L 36.8125 0 
L 27.59375 0 
Q 17.1875 0 13.234375 3.875 
Q 9.28125 7.765625 9.28125 18.015625 
L 9.28125 47.703125 
L 2.6875 47.703125 
L 2.6875 54.6875 
L 9.28125 54.6875 
L 9.28125 70.21875 
z
" id="DejaVuSans-116"/>
      <path d="M 30.609375 48.390625 
Q 23.390625 48.390625 19.1875 42.75 
Q 14.984375 37.109375 14.984375 27.296875 
Q 14.984375 17.484375 19.15625 11.84375 
Q 23.34375 6.203125 30.609375 6.203125 
Q 37.796875 6.203125 41.984375 11.859375 
Q 46.1875 17.53125 46.1875 27.296875 
Q 46.1875 37.015625 41.984375 42.703125 
Q 37.796875 48.390625 30.609375 48.390625 
z
M 30.609375 56 
Q 42.328125 56 49.015625 48.375 
Q 55.71875 40.765625 55.71875 27.296875 
Q 55.71875 13.875 49.015625 6.21875 
Q 42.328125 -1.421875 30.609375 -1.421875 
Q 18.84375 -1.421875 12.171875 6.21875 
Q 5.515625 13.875 5.515625 27.296875 
Q 5.515625 40.765625 12.171875 48.375 
Q 18.84375 56 30.609375 56 
z
" id="DejaVuSans-111"/>
      <path d="M 54.890625 33.015625 
L 54.890625 0 
L 45.90625 0 
L 45.90625 32.71875 
Q 45.90625 40.484375 42.875 44.328125 
Q 39.84375 48.1875 33.796875 48.1875 
Q 26.515625 48.1875 22.3125 43.546875 
Q 18.109375 38.921875 18.109375 30.90625 
L 18.109375 0 
L 9.078125 0 
L 9.078125 54.6875 
L 18.109375 54.6875 
L 18.109375 46.1875 
Q 21.34375 51.125 25.703125 53.5625 
Q 30.078125 56 35.796875 56 
Q 45.21875 56 50.046875 50.171875 
Q 54.890625 44.34375 54.890625 33.015625 
z
" id="DejaVuSans-110"/>
      <path id="DejaVuSans-32"/>
      <path d="M 56.203125 29.59375 
L 56.203125 25.203125 
L 14.890625 25.203125 
Q 15.484375 15.921875 20.484375 11.0625 
Q 25.484375 6.203125 34.421875 6.203125 
Q 39.59375 6.203125 44.453125 7.46875 
Q 49.3125 8.734375 54.109375 11.28125 
L 54.109375 2.78125 
Q 49.265625 0.734375 44.1875 -0.34375 
Q 39.109375 -1.421875 33.890625 -1.421875 
Q 20.796875 -1.421875 13.15625 6.1875 
Q 5.515625 13.8125 5.515625 26.8125 
Q 5.515625 40.234375 12.765625 48.109375 
Q 20.015625 56 32.328125 56 
Q 43.359375 56 49.78125 48.890625 
Q 56.203125 41.796875 56.203125 29.59375 
z
M 47.21875 32.234375 
Q 47.125 39.59375 43.09375 43.984375 
Q 39.0625 48.390625 32.421875 48.390625 
Q 24.90625 48.390625 20.390625 44.140625 
Q 15.875 39.890625 15.1875 32.171875 
z
" id="DejaVuSans-101"/>
      <path d="M 2.984375 54.6875 
L 12.5 54.6875 
L 29.59375 8.796875 
L 46.6875 54.6875 
L 56.203125 54.6875 
L 35.6875 0 
L 23.484375 0 
z
" id="DejaVuSans-118"/>
      <path d="M 44.28125 53.078125 
L 44.28125 44.578125 
Q 40.484375 46.53125 36.375 47.5 
Q 32.28125 48.484375 27.875 48.484375 
Q 21.1875 48.484375 17.84375 46.4375 
Q 14.5 44.390625 14.5 40.28125 
Q 14.5 37.15625 16.890625 35.375 
Q 19.28125 33.59375 26.515625 31.984375 
L 29.59375 31.296875 
Q 39.15625 29.25 43.1875 25.515625 
Q 47.21875 21.78125 47.21875 15.09375 
Q 47.21875 7.46875 41.1875 3.015625 
Q 35.15625 -1.421875 24.609375 -1.421875 
Q 20.21875 -1.421875 15.453125 -0.5625 
Q 10.6875 0.296875 5.421875 2 
L 5.421875 11.28125 
Q 10.40625 8.6875 15.234375 7.390625 
Q 20.0625 6.109375 24.8125 6.109375 
Q 31.15625 6.109375 34.5625 8.28125 
Q 37.984375 10.453125 37.984375 14.40625 
Q 37.984375 18.0625 35.515625 20.015625 
Q 33.0625 21.96875 24.703125 23.78125 
L 21.578125 24.515625 
Q 13.234375 26.265625 9.515625 29.90625 
Q 5.8125 33.546875 5.8125 39.890625 
Q 5.8125 47.609375 11.28125 51.796875 
Q 16.75 56 26.8125 56 
Q 31.78125 56 36.171875 55.265625 
Q 40.578125 54.546875 44.28125 53.078125 
z
" id="DejaVuSans-115"/>
     </defs>
     <g transform="translate(18.640313 154.422307)rotate(-90)scale(0.1 -0.1)">
      <use xlink:href="#DejaVuSans-68"/>
      <use x="77.001953" xlink:href="#DejaVuSans-117"/>
      <use x="140.380859" xlink:href="#DejaVuSans-112"/>
      <use x="203.857422" xlink:href="#DejaVuSans-108"/>
      <use x="231.640625" xlink:href="#DejaVuSans-105"/>
      <use x="259.423828" xlink:href="#DejaVuSans-99"/>
      <use x="314.404297" xlink:href="#DejaVuSans-97"/>
      <use x="375.683594" xlink:href="#DejaVuSans-116"/>
      <use x="414.892578" xlink:href="#DejaVuSans-105"/>
      <use x="442.675781" xlink:href="#DejaVuSans-111"/>
      <use x="503.857422" xlink:href="#DejaVuSans-110"/>
      <use x="567.236328" xlink:href="#DejaVuSans-32"/>
      <use x="599.023438" xlink:href="#DejaVuSans-101"/>
      <use x="660.546875" xlink:href="#DejaVuSans-118"/>
      <use x="719.726562" xlink:href="#DejaVuSans-101"/>
      <use x="781.25" xlink:href="#DejaVuSans-110"/>
      <use x="844.628906" xlink:href="#DejaVuSans-116"/>
      <use x="883.837891" xlink:href="#DejaVuSans-115"/>
     </g>
    </g>
   </g>
   <g id="line2d_10">
    <path clip-path="url(#p6b1f6a87df)" d="M 58.17 159.492761 
L 59.203977 158.987797 
L 60.496448 158.64092 
L 62.133578 158.194598 
L 63.167555 157.668295 
L 64.201531 156.879516 
L 65.235508 155.787559 
L 66.097155 154.565131 
L 66.872638 153.10948 
L 67.648121 151.180365 
L 68.423603 148.627474 
L 69.199086 145.306359 
L 70.060733 140.579215 
L 71.008545 134.035822 
L 72.128687 124.563743 
L 73.593487 109.95577 
L 77.298571 71.902395 
L 78.332548 64.030857 
L 79.10803 59.658613 
L 79.711183 57.306598 
L 80.228172 56.067177 
L 80.658995 55.590434 
L 81.003654 55.568794 
L 81.348313 55.857758 
L 81.779137 56.63554 
L 82.296125 58.134504 
L 82.985443 60.97423 
L 83.84709 65.607923 
L 85.053397 73.472763 
L 87.207515 89.322141 
L 89.878622 108.605462 
L 91.429587 118.211119 
L 92.808223 125.381849 
L 94.100694 130.992434 
L 95.393165 135.689825 
L 96.7718 139.869378 
L 98.150436 143.347017 
L 99.529072 146.257603 
L 100.993872 148.830622 
L 102.372508 150.817024 
L 103.837308 152.527626 
L 105.388274 153.995426 
L 107.283898 155.474217 
L 109.782675 157.125328 
L 112.367617 158.588376 
L 114.177076 159.363892 
L 115.814206 159.816729 
L 117.968325 160.148079 
L 125.550821 160.980325 
L 128.566587 161.218811 
L 132.099341 161.565998 
L 134.942777 161.500911 
L 137.35539 161.566356 
L 146.747345 162.120461 
L 150.883253 162.358157 
L 154.932995 162.687183 
L 157.431772 162.571264 
L 161.136856 162.435591 
L 164.841939 162.534294 
L 170.356482 162.756246 
L 180.523921 162.690994 
L 183.712016 162.65519 
L 187.07244 162.662132 
L 194.051784 162.878715 
L 197.929197 162.846155 
L 205.770188 163.007639 
L 210.509248 162.995273 
L 215.075979 163.00466 
L 220.676686 163.007073 
L 230.499466 163.091055 
L 230.499466 163.091055 
" style="fill:none;stroke:#440154;stroke-dasharray:3.7,1.6;stroke-dashoffset:0;stroke-opacity:0.4;"/>
   </g>
   <g id="line2d_11">
    <path clip-path="url(#p6b1f6a87df)" d="M 80.831325 163.410864 
L 80.831325 51.84 
" style="fill:none;stroke:#440154;stroke-dasharray:1,1.65;stroke-dashoffset:0;stroke-opacity:0.8;"/>
   </g>
   <g id="patch_53">
    <path d="M 57.17 163.410864 
L 57.17 51.84 
" style="fill:none;stroke:#000000;stroke-linecap:square;stroke-linejoin:miter;stroke-width:0.8;"/>
   </g>
   <g id="patch_54">
    <path d="M 58.17 164.410864 
L 230.465 164.410864 
" style="fill:none;stroke:#000000;stroke-linecap:square;stroke-linejoin:miter;stroke-width:0.8;"/>
   </g>
   <g id="legend_1">
    <g id="patch_55">
     <path d="M 182.407969 60.139219 
L 192.407969 60.139219 
L 192.407969 56.639219 
L 182.407969 56.639219 
z
" style="fill:#440154;opacity:0.2;"/>
    </g>
    <g id="text_11">
     <!-- component 0 -->
     <defs>
      <path d="M 52 44.1875 
Q 55.375 50.25 60.0625 53.125 
Q 64.75 56 71.09375 56 
Q 79.640625 56 84.28125 50.015625 
Q 88.921875 44.046875 88.921875 33.015625 
L 88.921875 0 
L 79.890625 0 
L 79.890625 32.71875 
Q 79.890625 40.578125 77.09375 44.375 
Q 74.3125 48.1875 68.609375 48.1875 
Q 61.625 48.1875 57.5625 43.546875 
Q 53.515625 38.921875 53.515625 30.90625 
L 53.515625 0 
L 44.484375 0 
L 44.484375 32.71875 
Q 44.484375 40.625 41.703125 44.40625 
Q 38.921875 48.1875 33.109375 48.1875 
Q 26.21875 48.1875 22.15625 43.53125 
Q 18.109375 38.875 18.109375 30.90625 
L 18.109375 0 
L 9.078125 0 
L 9.078125 54.6875 
L 18.109375 54.6875 
L 18.109375 46.1875 
Q 21.1875 51.21875 25.484375 53.609375 
Q 29.78125 56 35.6875 56 
Q 41.65625 56 45.828125 52.96875 
Q 50 49.953125 52 44.1875 
z
" id="DejaVuSans-109"/>
     </defs>
     <g transform="translate(192.907969 60.139219)scale(0.05 -0.05)">
      <use xlink:href="#DejaVuSans-99"/>
      <use x="54.980469" xlink:href="#DejaVuSans-111"/>
      <use x="116.162109" xlink:href="#DejaVuSans-109"/>
      <use x="213.574219" xlink:href="#DejaVuSans-112"/>
      <use x="277.050781" xlink:href="#DejaVuSans-111"/>
      <use x="338.232422" xlink:href="#DejaVuSans-110"/>
      <use x="401.611328" xlink:href="#DejaVuSans-101"/>
      <use x="463.134766" xlink:href="#DejaVuSans-110"/>
      <use x="526.513672" xlink:href="#DejaVuSans-116"/>
      <use x="565.722656" xlink:href="#DejaVuSans-32"/>
      <use x="597.509766" xlink:href="#DejaVuSans-48"/>
     </g>
    </g>
   </g>
  </g>
  <g id="axes_2">
   <g id="patch_56">
    <path d="M 277.705 163.410864 
L 450 163.410864 
L 450 51.84 
L 277.705 51.84 
z
" style="fill:#ffffff;"/>
   </g>
   <g id="patch_57">
    <path clip-path="url(#p38d133f331)" d="M 285.536591 163.410864 
L 287.331798 163.410864 
L 287.331798 163.410864 
L 285.536591 163.410864 
z
" style="fill:#440154;opacity:0.2;"/>
   </g>
   <g id="patch_58">
    <path clip-path="url(#p38d133f331)" d="M 287.7806 163.410864 
L 289.575807 163.410864 
L 289.575807 163.410864 
L 287.7806 163.410864 
z
" style="fill:#440154;opacity:0.2;"/>
   </g>
   <g id="patch_59">
    <path clip-path="url(#p38d133f331)" d="M 290.024609 163.410864 
L 291.819816 163.410864 
L 291.819816 163.410864 
L 290.024609 163.410864 
z
" style="fill:#440154;opacity:0.2;"/>
   </g>
   <g id="patch_60">
    <path clip-path="url(#p38d133f331)" d="M 292.268617 163.410864 
L 294.063825 163.410864 
L 294.063825 163.410864 
L 292.268617 163.410864 
z
" style="fill:#440154;opacity:0.2;"/>
   </g>
   <g id="patch_61">
    <path clip-path="url(#p38d133f331)" d="M 294.512626 163.410864 
L 296.307833 163.410864 
L 296.307833 163.410864 
L 294.512626 163.410864 
z
" style="fill:#440154;opacity:0.2;"/>
   </g>
   <g id="patch_62">
    <path clip-path="url(#p38d133f331)" d="M 296.756635 163.410864 
L 298.551842 163.410864 
L 298.551842 163.410864 
L 296.756635 163.410864 
z
" style="fill:#440154;opacity:0.2;"/>
   </g>
   <g id="patch_63">
    <path clip-path="url(#p38d133f331)" d="M 299.000644 163.410864 
L 300.795851 163.410864 
L 300.795851 163.410864 
L 299.000644 163.410864 
z
" style="fill:#440154;opacity:0.2;"/>
   </g>
   <g id="patch_64">
    <path clip-path="url(#p38d133f331)" d="M 301.244653 163.410864 
L 303.03986 163.410864 
L 303.03986 163.410864 
L 301.244653 163.410864 
z
" style="fill:#440154;opacity:0.2;"/>
   </g>
   <g id="patch_65">
    <path clip-path="url(#p38d133f331)" d="M 303.488662 163.410864 
L 305.283869 163.410864 
L 305.283869 163.410864 
L 303.488662 163.410864 
z
" style="fill:#440154;opacity:0.2;"/>
   </g>
   <g id="patch_66">
    <path clip-path="url(#p38d133f331)" d="M 305.732671 163.410864 
L 307.527878 163.410864 
L 307.527878 163.410864 
L 305.732671 163.410864 
z
" style="fill:#440154;opacity:0.2;"/>
   </g>
   <g id="patch_67">
    <path clip-path="url(#p38d133f331)" d="M 307.976679 163.410864 
L 309.771887 163.410864 
L 309.771887 162.666595 
L 307.976679 162.666595 
z
" style="fill:#440154;opacity:0.2;"/>
   </g>
   <g id="patch_68">
    <path clip-path="url(#p38d133f331)" d="M 310.220688 163.410864 
L 312.015895 163.410864 
L 312.015895 163.410864 
L 310.220688 163.410864 
z
" style="fill:#440154;opacity:0.2;"/>
   </g>
   <g id="patch_69">
    <path clip-path="url(#p38d133f331)" d="M 312.464697 163.410864 
L 314.259904 163.410864 
L 314.259904 163.410864 
L 312.464697 163.410864 
z
" style="fill:#440154;opacity:0.2;"/>
   </g>
   <g id="patch_70">
    <path clip-path="url(#p38d133f331)" d="M 314.708706 163.410864 
L 316.503913 163.410864 
L 316.503913 163.259999 
L 314.708706 163.259999 
z
" style="fill:#440154;opacity:0.2;"/>
   </g>
   <g id="patch_71">
    <path clip-path="url(#p38d133f331)" d="M 316.952715 163.410864 
L 318.747922 163.410864 
L 318.747922 163.290172 
L 316.952715 163.290172 
z
" style="fill:#440154;opacity:0.2;"/>
   </g>
   <g id="patch_72">
    <path clip-path="url(#p38d133f331)" d="M 319.196724 163.410864 
L 320.991931 163.410864 
L 320.991931 163.410864 
L 319.196724 163.410864 
z
" style="fill:#440154;opacity:0.2;"/>
   </g>
   <g id="patch_73">
    <path clip-path="url(#p38d133f331)" d="M 321.440733 163.410864 
L 323.23594 163.410864 
L 323.23594 163.229826 
L 321.440733 163.229826 
z
" style="fill:#440154;opacity:0.2;"/>
   </g>
   <g id="patch_74">
    <path clip-path="url(#p38d133f331)" d="M 323.684741 163.410864 
L 325.479949 163.410864 
L 325.479949 163.410864 
L 323.684741 163.410864 
z
" style="fill:#440154;opacity:0.2;"/>
   </g>
   <g id="patch_75">
    <path clip-path="url(#p38d133f331)" d="M 325.92875 163.410864 
L 327.723957 163.410864 
L 327.723957 163.229826 
L 325.92875 163.229826 
z
" style="fill:#440154;opacity:0.2;"/>
   </g>
   <g id="patch_76">
    <path clip-path="url(#p38d133f331)" d="M 328.172759 163.410864 
L 329.967966 163.410864 
L 329.967966 163.290172 
L 328.172759 163.290172 
z
" style="fill:#440154;opacity:0.2;"/>
   </g>
   <g id="patch_77">
    <path clip-path="url(#p38d133f331)" d="M 330.416768 163.410864 
L 332.211975 163.410864 
L 332.211975 163.350518 
L 330.416768 163.350518 
z
" style="fill:#440154;opacity:0.2;"/>
   </g>
   <g id="patch_78">
    <path clip-path="url(#p38d133f331)" d="M 332.660777 163.410864 
L 334.455984 163.410864 
L 334.455984 163.410864 
L 332.660777 163.410864 
z
" style="fill:#440154;opacity:0.2;"/>
   </g>
   <g id="patch_79">
    <path clip-path="url(#p38d133f331)" d="M 334.904786 163.410864 
L 336.699993 163.410864 
L 336.699993 163.410864 
L 334.904786 163.410864 
z
" style="fill:#440154;opacity:0.2;"/>
   </g>
   <g id="patch_80">
    <path clip-path="url(#p38d133f331)" d="M 337.148795 163.410864 
L 338.944002 163.410864 
L 338.944002 163.410864 
L 337.148795 163.410864 
z
" style="fill:#440154;opacity:0.2;"/>
   </g>
   <g id="patch_81">
    <path clip-path="url(#p38d133f331)" d="M 339.392803 163.410864 
L 341.188011 163.410864 
L 341.188011 163.118688 
L 339.392803 163.118688 
z
" style="fill:#440154;opacity:0.2;"/>
   </g>
   <g id="patch_82">
    <path clip-path="url(#p38d133f331)" d="M 341.636812 163.410864 
L 343.432019 163.410864 
L 343.432019 163.259999 
L 341.636812 163.259999 
z
" style="fill:#440154;opacity:0.2;"/>
   </g>
   <g id="patch_83">
    <path clip-path="url(#p38d133f331)" d="M 343.880821 163.410864 
L 345.676028 163.410864 
L 345.676028 163.330402 
L 343.880821 163.330402 
z
" style="fill:#440154;opacity:0.2;"/>
   </g>
   <g id="patch_84">
    <path clip-path="url(#p38d133f331)" d="M 346.12483 163.410864 
L 347.920037 163.410864 
L 347.920037 163.293155 
L 346.12483 163.293155 
z
" style="fill:#440154;opacity:0.2;"/>
   </g>
   <g id="patch_85">
    <path clip-path="url(#p38d133f331)" d="M 348.368839 163.410864 
L 350.164046 163.410864 
L 350.164046 163.350518 
L 348.368839 163.350518 
z
" style="fill:#440154;opacity:0.2;"/>
   </g>
   <g id="patch_86">
    <path clip-path="url(#p38d133f331)" d="M 350.612848 163.410864 
L 352.408055 163.410864 
L 352.408055 163.159422 
L 350.612848 163.159422 
z
" style="fill:#440154;opacity:0.2;"/>
   </g>
   <g id="patch_87">
    <path clip-path="url(#p38d133f331)" d="M 352.856857 163.410864 
L 354.652064 163.410864 
L 354.652064 163.28608 
L 352.856857 163.28608 
z
" style="fill:#440154;opacity:0.2;"/>
   </g>
   <g id="patch_88">
    <path clip-path="url(#p38d133f331)" d="M 355.100865 163.410864 
L 356.896073 163.410864 
L 356.896073 163.229826 
L 355.100865 163.229826 
z
" style="fill:#440154;opacity:0.2;"/>
   </g>
   <g id="patch_89">
    <path clip-path="url(#p38d133f331)" d="M 357.344874 163.410864 
L 359.140081 163.410864 
L 359.140081 163.247929 
L 357.344874 163.247929 
z
" style="fill:#440154;opacity:0.2;"/>
   </g>
   <g id="patch_90">
    <path clip-path="url(#p38d133f331)" d="M 359.588883 163.410864 
L 361.38409 163.410864 
L 361.38409 162.958268 
L 359.588883 162.958268 
z
" style="fill:#440154;opacity:0.2;"/>
   </g>
   <g id="patch_91">
    <path clip-path="url(#p38d133f331)" d="M 361.832892 163.410864 
L 363.628099 163.410864 
L 363.628099 163.051313 
L 361.832892 163.051313 
z
" style="fill:#440154;opacity:0.2;"/>
   </g>
   <g id="patch_92">
    <path clip-path="url(#p38d133f331)" d="M 364.076901 163.410864 
L 365.872108 163.410864 
L 365.872108 163.229826 
L 364.076901 163.229826 
z
" style="fill:#440154;opacity:0.2;"/>
   </g>
   <g id="patch_93">
    <path clip-path="url(#p38d133f331)" d="M 366.32091 163.410864 
L 368.116117 163.410864 
L 368.116117 163.033175 
L 366.32091 163.033175 
z
" style="fill:#440154;opacity:0.2;"/>
   </g>
   <g id="patch_94">
    <path clip-path="url(#p38d133f331)" d="M 368.564919 163.410864 
L 370.360126 163.410864 
L 370.360126 162.441777 
L 368.564919 162.441777 
z
" style="fill:#440154;opacity:0.2;"/>
   </g>
   <g id="patch_95">
    <path clip-path="url(#p38d133f331)" d="M 370.808927 163.410864 
L 372.604135 163.410864 
L 372.604135 161.719497 
L 370.808927 161.719497 
z
" style="fill:#440154;opacity:0.2;"/>
   </g>
   <g id="patch_96">
    <path clip-path="url(#p38d133f331)" d="M 373.052936 163.410864 
L 374.848143 163.410864 
L 374.848143 160.973368 
L 373.052936 160.973368 
z
" style="fill:#440154;opacity:0.2;"/>
   </g>
   <g id="patch_97">
    <path clip-path="url(#p38d133f331)" d="M 375.296945 163.410864 
L 377.092152 163.410864 
L 377.092152 160.086343 
L 375.296945 160.086343 
z
" style="fill:#440154;opacity:0.2;"/>
   </g>
   <g id="patch_98">
    <path clip-path="url(#p38d133f331)" d="M 377.540954 163.410864 
L 379.336161 163.410864 
L 379.336161 154.294547 
L 377.540954 154.294547 
z
" style="fill:#440154;opacity:0.2;"/>
   </g>
   <g id="patch_99">
    <path clip-path="url(#p38d133f331)" d="M 379.784963 163.410864 
L 381.58017 163.410864 
L 381.58017 131.808559 
L 379.784963 131.808559 
z
" style="fill:#440154;opacity:0.2;"/>
   </g>
   <g id="patch_100">
    <path clip-path="url(#p38d133f331)" d="M 382.028972 163.410864 
L 383.824179 163.410864 
L 383.824179 86.544392 
L 382.028972 86.544392 
z
" style="fill:#440154;opacity:0.2;"/>
   </g>
   <g id="patch_101">
    <path clip-path="url(#p38d133f331)" d="M 384.272981 163.410864 
L 386.068188 163.410864 
L 386.068188 57.152898 
L 384.272981 57.152898 
z
" style="fill:#440154;opacity:0.2;"/>
   </g>
   <g id="patch_102">
    <path clip-path="url(#p38d133f331)" d="M 386.516989 163.410864 
L 388.312197 163.410864 
L 388.312197 88.818338 
L 386.516989 88.818338 
z
" style="fill:#440154;opacity:0.2;"/>
   </g>
   <g id="patch_103">
    <path clip-path="url(#p38d133f331)" d="M 388.760998 163.410864 
L 390.556205 163.410864 
L 390.556205 127.537757 
L 388.760998 127.537757 
z
" style="fill:#440154;opacity:0.2;"/>
   </g>
   <g id="patch_104">
    <path clip-path="url(#p38d133f331)" d="M 391.005007 163.410864 
L 392.800214 163.410864 
L 392.800214 147.491231 
L 391.005007 147.491231 
z
" style="fill:#440154;opacity:0.2;"/>
   </g>
   <g id="patch_105">
    <path clip-path="url(#p38d133f331)" d="M 393.249016 163.410864 
L 395.044223 163.410864 
L 395.044223 156.134799 
L 393.249016 156.134799 
z
" style="fill:#440154;opacity:0.2;"/>
   </g>
   <g id="patch_106">
    <path clip-path="url(#p38d133f331)" d="M 395.493025 163.410864 
L 397.288232 163.410864 
L 397.288232 157.491133 
L 395.493025 157.491133 
z
" style="fill:#440154;opacity:0.2;"/>
   </g>
   <g id="patch_107">
    <path clip-path="url(#p38d133f331)" d="M 397.737034 163.410864 
L 399.532241 163.410864 
L 399.532241 159.654529 
L 397.737034 159.654529 
z
" style="fill:#440154;opacity:0.2;"/>
   </g>
   <g id="patch_108">
    <path clip-path="url(#p38d133f331)" d="M 399.981043 163.410864 
L 401.77625 163.410864 
L 401.77625 160.140587 
L 399.981043 160.140587 
z
" style="fill:#440154;opacity:0.2;"/>
   </g>
   <g id="patch_109">
    <path clip-path="url(#p38d133f331)" d="M 402.225051 163.410864 
L 404.020259 163.410864 
L 404.020259 160.565078 
L 402.225051 160.565078 
z
" style="fill:#440154;opacity:0.2;"/>
   </g>
   <g id="patch_110">
    <path clip-path="url(#p38d133f331)" d="M 404.46906 163.410864 
L 406.264267 163.410864 
L 406.264267 162.422294 
L 404.46906 162.422294 
z
" style="fill:#440154;opacity:0.2;"/>
   </g>
   <g id="patch_111">
    <path clip-path="url(#p38d133f331)" d="M 406.713069 163.410864 
L 408.508276 163.410864 
L 408.508276 162.886613 
L 406.713069 162.886613 
z
" style="fill:#440154;opacity:0.2;"/>
   </g>
   <g id="patch_112">
    <path clip-path="url(#p38d133f331)" d="M 408.957078 163.410864 
L 410.752285 163.410864 
L 410.752285 162.861942 
L 408.957078 162.861942 
z
" style="fill:#440154;opacity:0.2;"/>
   </g>
   <g id="patch_113">
    <path clip-path="url(#p38d133f331)" d="M 411.201087 163.410864 
L 412.996294 163.410864 
L 412.996294 163.099924 
L 411.201087 163.099924 
z
" style="fill:#440154;opacity:0.2;"/>
   </g>
   <g id="patch_114">
    <path clip-path="url(#p38d133f331)" d="M 413.445096 163.410864 
L 415.240303 163.410864 
L 415.240303 163.410864 
L 413.445096 163.410864 
z
" style="fill:#440154;opacity:0.2;"/>
   </g>
   <g id="patch_115">
    <path clip-path="url(#p38d133f331)" d="M 415.689105 163.410864 
L 417.484312 163.410864 
L 417.484312 163.410864 
L 415.689105 163.410864 
z
" style="fill:#440154;opacity:0.2;"/>
   </g>
   <g id="patch_116">
    <path clip-path="url(#p38d133f331)" d="M 417.933113 163.410864 
L 419.728321 163.410864 
L 419.728321 163.410864 
L 417.933113 163.410864 
z
" style="fill:#440154;opacity:0.2;"/>
   </g>
   <g id="patch_117">
    <path clip-path="url(#p38d133f331)" d="M 420.177122 163.410864 
L 421.972329 163.410864 
L 421.972329 163.410864 
L 420.177122 163.410864 
z
" style="fill:#440154;opacity:0.2;"/>
   </g>
   <g id="patch_118">
    <path clip-path="url(#p38d133f331)" d="M 422.421131 163.410864 
L 424.216338 163.410864 
L 424.216338 163.410864 
L 422.421131 163.410864 
z
" style="fill:#440154;opacity:0.2;"/>
   </g>
   <g id="patch_119">
    <path clip-path="url(#p38d133f331)" d="M 424.66514 163.410864 
L 426.460347 163.410864 
L 426.460347 163.410864 
L 424.66514 163.410864 
z
" style="fill:#440154;opacity:0.2;"/>
   </g>
   <g id="patch_120">
    <path clip-path="url(#p38d133f331)" d="M 426.909149 163.410864 
L 428.704356 163.410864 
L 428.704356 163.410864 
L 426.909149 163.410864 
z
" style="fill:#440154;opacity:0.2;"/>
   </g>
   <g id="patch_121">
    <path clip-path="url(#p38d133f331)" d="M 429.153158 163.410864 
L 430.948365 163.410864 
L 430.948365 163.410864 
L 429.153158 163.410864 
z
" style="fill:#440154;opacity:0.2;"/>
   </g>
   <g id="patch_122">
    <path clip-path="url(#p38d133f331)" d="M 431.397167 163.410864 
L 433.192374 163.410864 
L 433.192374 163.410864 
L 431.397167 163.410864 
z
" style="fill:#440154;opacity:0.2;"/>
   </g>
   <g id="patch_123">
    <path clip-path="url(#p38d133f331)" d="M 433.641175 163.410864 
L 435.436383 163.410864 
L 435.436383 163.410864 
L 433.641175 163.410864 
z
" style="fill:#440154;opacity:0.2;"/>
   </g>
   <g id="patch_124">
    <path clip-path="url(#p38d133f331)" d="M 435.885184 163.410864 
L 437.680391 163.410864 
L 437.680391 163.410864 
L 435.885184 163.410864 
z
" style="fill:#440154;opacity:0.2;"/>
   </g>
   <g id="patch_125">
    <path clip-path="url(#p38d133f331)" d="M 438.129193 163.410864 
L 439.9244 163.410864 
L 439.9244 163.410864 
L 438.129193 163.410864 
z
" style="fill:#440154;opacity:0.2;"/>
   </g>
   <g id="patch_126">
    <path clip-path="url(#p38d133f331)" d="M 440.373202 163.410864 
L 442.168409 163.410864 
L 442.168409 163.410864 
L 440.373202 163.410864 
z
" style="fill:#440154;opacity:0.2;"/>
   </g>
   <g id="matplotlib.axis_3">
    <g id="xtick_4">
     <g id="line2d_12">
      <g>
       <use style="stroke:#000000;stroke-width:0.8;" x="307.752279" xlink:href="#mb6e2578e4a" y="164.410864"/>
      </g>
     </g>
     <g id="text_12">
      <!-- −4 -->
      <defs>
       <path d="M 10.59375 35.5 
L 73.1875 35.5 
L 73.1875 27.203125 
L 10.59375 27.203125 
z
" id="DejaVuSans-8722"/>
       <path d="M 37.796875 64.3125 
L 12.890625 25.390625 
L 37.796875 25.390625 
z
M 35.203125 72.90625 
L 47.609375 72.90625 
L 47.609375 25.390625 
L 58.015625 25.390625 
L 58.015625 17.1875 
L 47.609375 17.1875 
L 47.609375 0 
L 37.796875 0 
L 37.796875 17.1875 
L 4.890625 17.1875 
L 4.890625 26.703125 
z
" id="DejaVuSans-52"/>
      </defs>
      <g transform="translate(300.381185 179.009301)scale(0.1 -0.1)">
       <use xlink:href="#DejaVuSans-8722"/>
       <use x="83.789062" xlink:href="#DejaVuSans-52"/>
      </g>
     </g>
    </g>
    <g id="xtick_5">
     <g id="line2d_13">
      <g>
       <use style="stroke:#000000;stroke-width:0.8;" x="352.632456" xlink:href="#mb6e2578e4a" y="164.410864"/>
      </g>
     </g>
     <g id="text_13">
      <!-- −2 -->
      <g transform="translate(345.261362 179.009301)scale(0.1 -0.1)">
       <use xlink:href="#DejaVuSans-8722"/>
       <use x="83.789062" xlink:href="#DejaVuSans-50"/>
      </g>
     </g>
    </g>
    <g id="xtick_6">
     <g id="line2d_14">
      <g>
       <use style="stroke:#000000;stroke-width:0.8;" x="397.512633" xlink:href="#mb6e2578e4a" y="164.410864"/>
      </g>
     </g>
     <g id="text_14">
      <!-- 0 -->
      <g transform="translate(394.331383 179.009301)scale(0.1 -0.1)">
       <use xlink:href="#DejaVuSans-48"/>
      </g>
     </g>
    </g>
    <g id="xtick_7">
     <g id="line2d_15">
      <g>
       <use style="stroke:#000000;stroke-width:0.8;" x="442.39281" xlink:href="#mb6e2578e4a" y="164.410864"/>
      </g>
     </g>
     <g id="text_15">
      <!-- 2 -->
      <g transform="translate(439.21156 179.009301)scale(0.1 -0.1)">
       <use xlink:href="#DejaVuSans-50"/>
      </g>
     </g>
    </g>
   </g>
   <g id="matplotlib.axis_4">
    <g id="ytick_7">
     <g id="line2d_16">
      <g>
       <use style="stroke:#000000;stroke-width:0.8;" x="276.705" xlink:href="#m4e26108eb5" y="163.410864"/>
      </g>
     </g>
     <g id="text_16">
      <!-- 0 -->
      <g transform="translate(263.3425 167.210083)scale(0.1 -0.1)">
       <use xlink:href="#DejaVuSans-48"/>
      </g>
     </g>
    </g>
    <g id="ytick_8">
     <g id="line2d_17">
      <g>
       <use style="stroke:#000000;stroke-width:0.8;" x="276.705" xlink:href="#m4e26108eb5" y="133.23782"/>
      </g>
     </g>
     <g id="text_17">
      <!-- 500 -->
      <g transform="translate(250.6175 137.037039)scale(0.1 -0.1)">
       <use xlink:href="#DejaVuSans-53"/>
       <use x="63.623047" xlink:href="#DejaVuSans-48"/>
       <use x="127.246094" xlink:href="#DejaVuSans-48"/>
      </g>
     </g>
    </g>
    <g id="ytick_9">
     <g id="line2d_18">
      <g>
       <use style="stroke:#000000;stroke-width:0.8;" x="276.705" xlink:href="#m4e26108eb5" y="103.064776"/>
      </g>
     </g>
     <g id="text_18">
      <!-- 1000 -->
      <g transform="translate(244.255 106.863995)scale(0.1 -0.1)">
       <use xlink:href="#DejaVuSans-49"/>
       <use x="63.623047" xlink:href="#DejaVuSans-48"/>
       <use x="127.246094" xlink:href="#DejaVuSans-48"/>
       <use x="190.869141" xlink:href="#DejaVuSans-48"/>
      </g>
     </g>
    </g>
    <g id="ytick_10">
     <g id="line2d_19">
      <g>
       <use style="stroke:#000000;stroke-width:0.8;" x="276.705" xlink:href="#m4e26108eb5" y="72.891733"/>
      </g>
     </g>
     <g id="text_19">
      <!-- 1500 -->
      <g transform="translate(244.255 76.690951)scale(0.1 -0.1)">
       <use xlink:href="#DejaVuSans-49"/>
       <use x="63.623047" xlink:href="#DejaVuSans-53"/>
       <use x="127.246094" xlink:href="#DejaVuSans-48"/>
       <use x="190.869141" xlink:href="#DejaVuSans-48"/>
      </g>
     </g>
    </g>
   </g>
   <g id="patch_127">
    <path d="M 276.705 163.410864 
L 276.705 51.84 
" style="fill:none;stroke:#000000;stroke-linecap:square;stroke-linejoin:miter;stroke-width:0.8;"/>
   </g>
   <g id="patch_128">
    <path d="M 277.705 164.410864 
L 450 164.410864 
" style="fill:none;stroke:#000000;stroke-linecap:square;stroke-linejoin:miter;stroke-width:0.8;"/>
   </g>
   <g id="legend_2">
    <g id="patch_129">
     <path d="M 282.205 60.139219 
L 292.205 60.139219 
L 292.205 56.639219 
L 282.205 56.639219 
z
" style="fill:#440154;opacity:0.2;"/>
    </g>
    <g id="text_20">
     <!-- component 0 -->
     <g transform="translate(292.705 60.139219)scale(0.05 -0.05)">
      <use xlink:href="#DejaVuSans-99"/>
      <use x="54.980469" xlink:href="#DejaVuSans-111"/>
      <use x="116.162109" xlink:href="#DejaVuSans-109"/>
      <use x="213.574219" xlink:href="#DejaVuSans-112"/>
      <use x="277.050781" xlink:href="#DejaVuSans-111"/>
      <use x="338.232422" xlink:href="#DejaVuSans-110"/>
      <use x="401.611328" xlink:href="#DejaVuSans-101"/>
      <use x="463.134766" xlink:href="#DejaVuSans-110"/>
      <use x="526.513672" xlink:href="#DejaVuSans-116"/>
      <use x="565.722656" xlink:href="#DejaVuSans-32"/>
      <use x="597.509766" xlink:href="#DejaVuSans-48"/>
     </g>
    </g>
   </g>
  </g>
  <g id="axes_3">
   <g id="patch_130">
    <path d="M 58.17 299.76 
L 230.465 299.76 
L 230.465 188.189136 
L 58.17 188.189136 
z
" style="fill:#ffffff;"/>
   </g>
   <g id="patch_131">
    <path clip-path="url(#p274825fa77)" d="M 66.001591 299.76 
L 67.796798 299.76 
L 67.796798 299.76 
L 66.001591 299.76 
z
" style="fill:#440154;opacity:0.2;"/>
   </g>
   <g id="patch_132">
    <path clip-path="url(#p274825fa77)" d="M 68.2456 299.76 
L 70.040807 299.76 
L 70.040807 299.76 
L 68.2456 299.76 
z
" style="fill:#440154;opacity:0.2;"/>
   </g>
   <g id="patch_133">
    <path clip-path="url(#p274825fa77)" d="M 70.489609 299.76 
L 72.284816 299.76 
L 72.284816 299.76 
L 70.489609 299.76 
z
" style="fill:#440154;opacity:0.2;"/>
   </g>
   <g id="patch_134">
    <path clip-path="url(#p274825fa77)" d="M 72.733617 299.76 
L 74.528825 299.76 
L 74.528825 299.76 
L 72.733617 299.76 
z
" style="fill:#440154;opacity:0.2;"/>
   </g>
   <g id="patch_135">
    <path clip-path="url(#p274825fa77)" d="M 74.977626 299.76 
L 76.772833 299.76 
L 76.772833 299.76 
L 74.977626 299.76 
z
" style="fill:#440154;opacity:0.2;"/>
   </g>
   <g id="patch_136">
    <path clip-path="url(#p274825fa77)" d="M 77.221635 299.76 
L 79.016842 299.76 
L 79.016842 299.76 
L 77.221635 299.76 
z
" style="fill:#440154;opacity:0.2;"/>
   </g>
   <g id="patch_137">
    <path clip-path="url(#p274825fa77)" d="M 79.465644 299.76 
L 81.260851 299.76 
L 81.260851 299.76 
L 79.465644 299.76 
z
" style="fill:#440154;opacity:0.2;"/>
   </g>
   <g id="patch_138">
    <path clip-path="url(#p274825fa77)" d="M 81.709653 299.76 
L 83.50486 299.76 
L 83.50486 299.76 
L 81.709653 299.76 
z
" style="fill:#440154;opacity:0.2;"/>
   </g>
   <g id="patch_139">
    <path clip-path="url(#p274825fa77)" d="M 83.953662 299.76 
L 85.748869 299.76 
L 85.748869 299.76 
L 83.953662 299.76 
z
" style="fill:#440154;opacity:0.2;"/>
   </g>
   <g id="patch_140">
    <path clip-path="url(#p274825fa77)" d="M 86.197671 299.76 
L 87.992878 299.76 
L 87.992878 299.76 
L 86.197671 299.76 
z
" style="fill:#440154;opacity:0.2;"/>
   </g>
   <g id="patch_141">
    <path clip-path="url(#p274825fa77)" d="M 88.441679 299.76 
L 90.236887 299.76 
L 90.236887 288.020722 
L 88.441679 288.020722 
z
" style="fill:#440154;opacity:0.2;"/>
   </g>
   <g id="patch_142">
    <path clip-path="url(#p274825fa77)" d="M 90.685688 299.76 
L 92.480895 299.76 
L 92.480895 299.76 
L 90.685688 299.76 
z
" style="fill:#440154;opacity:0.2;"/>
   </g>
   <g id="patch_143">
    <path clip-path="url(#p274825fa77)" d="M 92.929697 299.76 
L 94.724904 299.76 
L 94.724904 299.76 
L 92.929697 299.76 
z
" style="fill:#440154;opacity:0.2;"/>
   </g>
   <g id="patch_144">
    <path clip-path="url(#p274825fa77)" d="M 95.173706 299.76 
L 96.968913 299.76 
L 96.968913 284.441674 
L 95.173706 284.441674 
z
" style="fill:#440154;opacity:0.2;"/>
   </g>
   <g id="patch_145">
    <path clip-path="url(#p274825fa77)" d="M 97.417715 299.76 
L 99.212922 299.76 
L 99.212922 291.806559 
L 97.417715 291.806559 
z
" style="fill:#440154;opacity:0.2;"/>
   </g>
   <g id="patch_146">
    <path clip-path="url(#p274825fa77)" d="M 99.661724 299.76 
L 101.456931 299.76 
L 101.456931 299.76 
L 99.661724 299.76 
z
" style="fill:#440154;opacity:0.2;"/>
   </g>
   <g id="patch_147">
    <path clip-path="url(#p274825fa77)" d="M 101.905733 299.76 
L 103.70094 299.76 
L 103.70094 293.460875 
L 101.905733 293.460875 
z
" style="fill:#440154;opacity:0.2;"/>
   </g>
   <g id="patch_148">
    <path clip-path="url(#p274825fa77)" d="M 104.149741 299.76 
L 105.944949 299.76 
L 105.944949 296.981598 
L 104.149741 296.981598 
z
" style="fill:#440154;opacity:0.2;"/>
   </g>
   <g id="patch_149">
    <path clip-path="url(#p274825fa77)" d="M 106.39375 299.76 
L 108.188957 299.76 
L 108.188957 298.614705 
L 106.39375 298.614705 
z
" style="fill:#440154;opacity:0.2;"/>
   </g>
   <g id="patch_150">
    <path clip-path="url(#p274825fa77)" d="M 108.637759 299.76 
L 110.432966 299.76 
L 110.432966 298.423822 
L 108.637759 298.423822 
z
" style="fill:#440154;opacity:0.2;"/>
   </g>
   <g id="patch_151">
    <path clip-path="url(#p274825fa77)" d="M 110.881768 299.76 
L 112.676975 299.76 
L 112.676975 294.510729 
L 110.881768 294.510729 
z
" style="fill:#440154;opacity:0.2;"/>
   </g>
   <g id="patch_152">
    <path clip-path="url(#p274825fa77)" d="M 113.125777 299.76 
L 114.920984 299.76 
L 114.920984 295.603002 
L 113.125777 295.603002 
z
" style="fill:#440154;opacity:0.2;"/>
   </g>
   <g id="patch_153">
    <path clip-path="url(#p274825fa77)" d="M 115.369786 299.76 
L 117.164993 299.76 
L 117.164993 291.933815 
L 115.369786 291.933815 
z
" style="fill:#440154;opacity:0.2;"/>
   </g>
   <g id="patch_154">
    <path clip-path="url(#p274825fa77)" d="M 117.613795 299.76 
L 119.409002 299.76 
L 119.409002 288.816066 
L 117.613795 288.816066 
z
" style="fill:#440154;opacity:0.2;"/>
   </g>
   <g id="patch_155">
    <path clip-path="url(#p274825fa77)" d="M 119.857803 299.76 
L 121.653011 299.76 
L 121.653011 287.16175 
L 119.857803 287.16175 
z
" style="fill:#440154;opacity:0.2;"/>
   </g>
   <g id="patch_156">
    <path clip-path="url(#p274825fa77)" d="M 122.101812 299.76 
L 123.897019 299.76 
L 123.897019 282.660103 
L 122.101812 282.660103 
z
" style="fill:#440154;opacity:0.2;"/>
   </g>
   <g id="patch_157">
    <path clip-path="url(#p274825fa77)" d="M 124.345821 299.76 
L 126.141028 299.76 
L 126.141028 277.044974 
L 124.345821 277.044974 
z
" style="fill:#440154;opacity:0.2;"/>
   </g>
   <g id="patch_158">
    <path clip-path="url(#p274825fa77)" d="M 126.58983 299.76 
L 128.385037 299.76 
L 128.385037 268.264375 
L 126.58983 268.264375 
z
" style="fill:#440154;opacity:0.2;"/>
   </g>
   <g id="patch_159">
    <path clip-path="url(#p274825fa77)" d="M 128.833839 299.76 
L 130.629046 299.76 
L 130.629046 263.110546 
L 128.833839 263.110546 
z
" style="fill:#440154;opacity:0.2;"/>
   </g>
   <g id="patch_160">
    <path clip-path="url(#p274825fa77)" d="M 131.077848 299.76 
L 132.873055 299.76 
L 132.873055 253.280094 
L 131.077848 253.280094 
z
" style="fill:#440154;opacity:0.2;"/>
   </g>
   <g id="patch_161">
    <path clip-path="url(#p274825fa77)" d="M 133.321857 299.76 
L 135.117064 299.76 
L 135.117064 236.546055 
L 133.321857 236.546055 
z
" style="fill:#440154;opacity:0.2;"/>
   </g>
   <g id="patch_162">
    <path clip-path="url(#p274825fa77)" d="M 135.565865 299.76 
L 137.361073 299.76 
L 137.361073 229.228889 
L 135.565865 229.228889 
z
" style="fill:#440154;opacity:0.2;"/>
   </g>
   <g id="patch_163">
    <path clip-path="url(#p274825fa77)" d="M 137.809874 299.76 
L 139.605081 299.76 
L 139.605081 213.099312 
L 137.809874 213.099312 
z
" style="fill:#440154;opacity:0.2;"/>
   </g>
   <g id="patch_164">
    <path clip-path="url(#p274825fa77)" d="M 140.053883 299.76 
L 141.84909 299.76 
L 141.84909 202.918908 
L 140.053883 202.918908 
z
" style="fill:#440154;opacity:0.2;"/>
   </g>
   <g id="patch_165">
    <path clip-path="url(#p274825fa77)" d="M 142.297892 299.76 
L 144.093099 299.76 
L 144.093099 198.051402 
L 142.297892 198.051402 
z
" style="fill:#440154;opacity:0.2;"/>
   </g>
   <g id="patch_166">
    <path clip-path="url(#p274825fa77)" d="M 144.541901 299.76 
L 146.337108 299.76 
L 146.337108 193.502034 
L 144.541901 193.502034 
z
" style="fill:#440154;opacity:0.2;"/>
   </g>
   <g id="patch_167">
    <path clip-path="url(#p274825fa77)" d="M 146.78591 299.76 
L 148.581117 299.76 
L 148.581117 198.76191 
L 146.78591 198.76191 
z
" style="fill:#440154;opacity:0.2;"/>
   </g>
   <g id="patch_168">
    <path clip-path="url(#p274825fa77)" d="M 149.029919 299.76 
L 150.825126 299.76 
L 150.825126 214.737721 
L 149.029919 214.737721 
z
" style="fill:#440154;opacity:0.2;"/>
   </g>
   <g id="patch_169">
    <path clip-path="url(#p274825fa77)" d="M 151.273927 299.76 
L 153.069135 299.76 
L 153.069135 231.26497 
L 151.273927 231.26497 
z
" style="fill:#440154;opacity:0.2;"/>
   </g>
   <g id="patch_170">
    <path clip-path="url(#p274825fa77)" d="M 153.517936 299.76 
L 155.313143 299.76 
L 155.313143 240.077382 
L 153.517936 240.077382 
z
" style="fill:#440154;opacity:0.2;"/>
   </g>
   <g id="patch_171">
    <path clip-path="url(#p274825fa77)" d="M 155.761945 299.76 
L 157.557152 299.76 
L 157.557152 262.178403 
L 155.761945 262.178403 
z
" style="fill:#440154;opacity:0.2;"/>
   </g>
   <g id="patch_172">
    <path clip-path="url(#p274825fa77)" d="M 158.005954 299.76 
L 159.801161 299.76 
L 159.801161 274.213549 
L 158.005954 274.213549 
z
" style="fill:#440154;opacity:0.2;"/>
   </g>
   <g id="patch_173">
    <path clip-path="url(#p274825fa77)" d="M 160.249963 299.76 
L 162.04517 299.76 
L 162.04517 277.807866 
L 160.249963 277.807866 
z
" style="fill:#440154;opacity:0.2;"/>
   </g>
   <g id="patch_174">
    <path clip-path="url(#p274825fa77)" d="M 162.493972 299.76 
L 164.289179 299.76 
L 164.289179 286.900554 
L 162.493972 286.900554 
z
" style="fill:#440154;opacity:0.2;"/>
   </g>
   <g id="patch_175">
    <path clip-path="url(#p274825fa77)" d="M 164.737981 299.76 
L 166.533188 299.76 
L 166.533188 286.126861 
L 164.737981 286.126861 
z
" style="fill:#440154;opacity:0.2;"/>
   </g>
   <g id="patch_176">
    <path clip-path="url(#p274825fa77)" d="M 166.981989 299.76 
L 168.777197 299.76 
L 168.777197 292.098304 
L 166.981989 292.098304 
z
" style="fill:#440154;opacity:0.2;"/>
   </g>
   <g id="patch_177">
    <path clip-path="url(#p274825fa77)" d="M 169.225998 299.76 
L 171.021205 299.76 
L 171.021205 294.087078 
L 169.225998 294.087078 
z
" style="fill:#440154;opacity:0.2;"/>
   </g>
   <g id="patch_178">
    <path clip-path="url(#p274825fa77)" d="M 171.470007 299.76 
L 173.265214 299.76 
L 173.265214 296.040463 
L 171.470007 296.040463 
z
" style="fill:#440154;opacity:0.2;"/>
   </g>
   <g id="patch_179">
    <path clip-path="url(#p274825fa77)" d="M 173.714016 299.76 
L 175.509223 299.76 
L 175.509223 298.102703 
L 173.714016 298.102703 
z
" style="fill:#440154;opacity:0.2;"/>
   </g>
   <g id="patch_180">
    <path clip-path="url(#p274825fa77)" d="M 175.958025 299.76 
L 177.753232 299.76 
L 177.753232 297.567149 
L 175.958025 297.567149 
z
" style="fill:#440154;opacity:0.2;"/>
   </g>
   <g id="patch_181">
    <path clip-path="url(#p274825fa77)" d="M 178.202034 299.76 
L 179.997241 299.76 
L 179.997241 298.948318 
L 178.202034 298.948318 
z
" style="fill:#440154;opacity:0.2;"/>
   </g>
   <g id="patch_182">
    <path clip-path="url(#p274825fa77)" d="M 180.446043 299.76 
L 182.24125 299.76 
L 182.24125 298.581382 
L 180.446043 298.581382 
z
" style="fill:#440154;opacity:0.2;"/>
   </g>
   <g id="patch_183">
    <path clip-path="url(#p274825fa77)" d="M 182.690051 299.76 
L 184.485259 299.76 
L 184.485259 298.667891 
L 182.690051 298.667891 
z
" style="fill:#440154;opacity:0.2;"/>
   </g>
   <g id="patch_184">
    <path clip-path="url(#p274825fa77)" d="M 184.93406 299.76 
L 186.729267 299.76 
L 186.729267 299.233068 
L 184.93406 299.233068 
z
" style="fill:#440154;opacity:0.2;"/>
   </g>
   <g id="patch_185">
    <path clip-path="url(#p274825fa77)" d="M 187.178069 299.76 
L 188.973276 299.76 
L 188.973276 299.111869 
L 187.178069 299.111869 
z
" style="fill:#440154;opacity:0.2;"/>
   </g>
   <g id="patch_186">
    <path clip-path="url(#p274825fa77)" d="M 189.422078 299.76 
L 191.217285 299.76 
L 191.217285 299.640698 
L 189.422078 299.640698 
z
" style="fill:#440154;opacity:0.2;"/>
   </g>
   <g id="patch_187">
    <path clip-path="url(#p274825fa77)" d="M 191.666087 299.76 
L 193.461294 299.76 
L 193.461294 299.234681 
L 191.666087 299.234681 
z
" style="fill:#440154;opacity:0.2;"/>
   </g>
   <g id="patch_188">
    <path clip-path="url(#p274825fa77)" d="M 193.910096 299.76 
L 195.705303 299.76 
L 195.705303 299.496935 
L 193.910096 299.496935 
z
" style="fill:#440154;opacity:0.2;"/>
   </g>
   <g id="patch_189">
    <path clip-path="url(#p274825fa77)" d="M 196.154105 299.76 
L 197.949312 299.76 
L 197.949312 299.569117 
L 196.154105 299.569117 
z
" style="fill:#440154;opacity:0.2;"/>
   </g>
   <g id="patch_190">
    <path clip-path="url(#p274825fa77)" d="M 198.398113 299.76 
L 200.193321 299.76 
L 200.193321 299.732904 
L 198.398113 299.732904 
z
" style="fill:#440154;opacity:0.2;"/>
   </g>
   <g id="patch_191">
    <path clip-path="url(#p274825fa77)" d="M 200.642122 299.76 
L 202.437329 299.76 
L 202.437329 299.731419 
L 200.642122 299.731419 
z
" style="fill:#440154;opacity:0.2;"/>
   </g>
   <g id="patch_192">
    <path clip-path="url(#p274825fa77)" d="M 202.886131 299.76 
L 204.681338 299.76 
L 204.681338 299.40176 
L 202.886131 299.40176 
z
" style="fill:#440154;opacity:0.2;"/>
   </g>
   <g id="patch_193">
    <path clip-path="url(#p274825fa77)" d="M 205.13014 299.76 
L 206.925347 299.76 
L 206.925347 298.640403 
L 205.13014 298.640403 
z
" style="fill:#440154;opacity:0.2;"/>
   </g>
   <g id="patch_194">
    <path clip-path="url(#p274825fa77)" d="M 207.374149 299.76 
L 209.169356 299.76 
L 209.169356 297.770181 
L 207.374149 297.770181 
z
" style="fill:#440154;opacity:0.2;"/>
   </g>
   <g id="patch_195">
    <path clip-path="url(#p274825fa77)" d="M 209.618158 299.76 
L 211.413365 299.76 
L 211.413365 299.191389 
L 209.618158 299.191389 
z
" style="fill:#440154;opacity:0.2;"/>
   </g>
   <g id="patch_196">
    <path clip-path="url(#p274825fa77)" d="M 211.862167 299.76 
L 213.657374 299.76 
L 213.657374 299.519124 
L 211.862167 299.519124 
z
" style="fill:#440154;opacity:0.2;"/>
   </g>
   <g id="patch_197">
    <path clip-path="url(#p274825fa77)" d="M 214.106175 299.76 
L 215.901383 299.76 
L 215.901383 299.537304 
L 214.106175 299.537304 
z
" style="fill:#440154;opacity:0.2;"/>
   </g>
   <g id="patch_198">
    <path clip-path="url(#p274825fa77)" d="M 216.350184 299.76 
L 218.145391 299.76 
L 218.145391 299.732731 
L 216.350184 299.732731 
z
" style="fill:#440154;opacity:0.2;"/>
   </g>
   <g id="patch_199">
    <path clip-path="url(#p274825fa77)" d="M 218.594193 299.76 
L 220.3894 299.76 
L 220.3894 299.585024 
L 218.594193 299.585024 
z
" style="fill:#440154;opacity:0.2;"/>
   </g>
   <g id="patch_200">
    <path clip-path="url(#p274825fa77)" d="M 220.838202 299.76 
L 222.633409 299.76 
L 222.633409 299.76 
L 220.838202 299.76 
z
" style="fill:#440154;opacity:0.2;"/>
   </g>
   <g id="matplotlib.axis_5">
    <g id="xtick_8">
     <g id="line2d_20">
      <g>
       <use style="stroke:#000000;stroke-width:0.8;" x="88.217279" xlink:href="#mb6e2578e4a" y="300.76"/>
      </g>
     </g>
     <g id="text_21">
      <!-- −4 -->
      <g transform="translate(80.846185 315.358437)scale(0.1 -0.1)">
       <use xlink:href="#DejaVuSans-8722"/>
       <use x="83.789062" xlink:href="#DejaVuSans-52"/>
      </g>
     </g>
    </g>
    <g id="xtick_9">
     <g id="line2d_21">
      <g>
       <use style="stroke:#000000;stroke-width:0.8;" x="133.097456" xlink:href="#mb6e2578e4a" y="300.76"/>
      </g>
     </g>
     <g id="text_22">
      <!-- −2 -->
      <g transform="translate(125.726362 315.358437)scale(0.1 -0.1)">
       <use xlink:href="#DejaVuSans-8722"/>
       <use x="83.789062" xlink:href="#DejaVuSans-50"/>
      </g>
     </g>
    </g>
    <g id="xtick_10">
     <g id="line2d_22">
      <g>
       <use style="stroke:#000000;stroke-width:0.8;" x="177.977633" xlink:href="#mb6e2578e4a" y="300.76"/>
      </g>
     </g>
     <g id="text_23">
      <!-- 0 -->
      <g transform="translate(174.796383 315.358437)scale(0.1 -0.1)">
       <use xlink:href="#DejaVuSans-48"/>
      </g>
     </g>
    </g>
    <g id="xtick_11">
     <g id="line2d_23">
      <g>
       <use style="stroke:#000000;stroke-width:0.8;" x="222.85781" xlink:href="#mb6e2578e4a" y="300.76"/>
      </g>
     </g>
     <g id="text_24">
      <!-- 2 -->
      <g transform="translate(219.67656 315.358437)scale(0.1 -0.1)">
       <use xlink:href="#DejaVuSans-50"/>
      </g>
     </g>
    </g>
   </g>
   <g id="matplotlib.axis_6">
    <g id="ytick_11">
     <g id="line2d_24">
      <g>
       <use style="stroke:#000000;stroke-width:0.8;" x="57.17" xlink:href="#m4e26108eb5" y="299.76"/>
      </g>
     </g>
     <g id="text_25">
      <!-- 0 -->
      <g transform="translate(43.8075 303.559219)scale(0.1 -0.1)">
       <use xlink:href="#DejaVuSans-48"/>
      </g>
     </g>
    </g>
    <g id="ytick_12">
     <g id="line2d_25">
      <g>
       <use style="stroke:#000000;stroke-width:0.8;" x="57.17" xlink:href="#m4e26108eb5" y="261.583485"/>
      </g>
     </g>
     <g id="text_26">
      <!-- 200 -->
      <g transform="translate(31.0825 265.382704)scale(0.1 -0.1)">
       <use xlink:href="#DejaVuSans-50"/>
       <use x="63.623047" xlink:href="#DejaVuSans-48"/>
       <use x="127.246094" xlink:href="#DejaVuSans-48"/>
      </g>
     </g>
    </g>
    <g id="ytick_13">
     <g id="line2d_26">
      <g>
       <use style="stroke:#000000;stroke-width:0.8;" x="57.17" xlink:href="#m4e26108eb5" y="223.406971"/>
      </g>
     </g>
     <g id="text_27">
      <!-- 400 -->
      <g transform="translate(31.0825 227.20619)scale(0.1 -0.1)">
       <use xlink:href="#DejaVuSans-52"/>
       <use x="63.623047" xlink:href="#DejaVuSans-48"/>
       <use x="127.246094" xlink:href="#DejaVuSans-48"/>
      </g>
     </g>
    </g>
    <g id="text_28">
     <!-- Duplication events -->
     <g transform="translate(25.002813 290.771443)rotate(-90)scale(0.1 -0.1)">
      <use xlink:href="#DejaVuSans-68"/>
      <use x="77.001953" xlink:href="#DejaVuSans-117"/>
      <use x="140.380859" xlink:href="#DejaVuSans-112"/>
      <use x="203.857422" xlink:href="#DejaVuSans-108"/>
      <use x="231.640625" xlink:href="#DejaVuSans-105"/>
      <use x="259.423828" xlink:href="#DejaVuSans-99"/>
      <use x="314.404297" xlink:href="#DejaVuSans-97"/>
      <use x="375.683594" xlink:href="#DejaVuSans-116"/>
      <use x="414.892578" xlink:href="#DejaVuSans-105"/>
      <use x="442.675781" xlink:href="#DejaVuSans-111"/>
      <use x="503.857422" xlink:href="#DejaVuSans-110"/>
      <use x="567.236328" xlink:href="#DejaVuSans-32"/>
      <use x="599.023438" xlink:href="#DejaVuSans-101"/>
      <use x="660.546875" xlink:href="#DejaVuSans-118"/>
      <use x="719.726562" xlink:href="#DejaVuSans-101"/>
      <use x="781.25" xlink:href="#DejaVuSans-110"/>
      <use x="844.628906" xlink:href="#DejaVuSans-116"/>
      <use x="883.837891" xlink:href="#DejaVuSans-115"/>
     </g>
    </g>
   </g>
   <g id="patch_201">
    <path d="M 57.17 299.76 
L 57.17 188.189136 
" style="fill:none;stroke:#000000;stroke-linecap:square;stroke-linejoin:miter;stroke-width:0.8;"/>
   </g>
   <g id="patch_202">
    <path d="M 58.17 300.76 
L 230.465 300.76 
" style="fill:none;stroke:#000000;stroke-linecap:square;stroke-linejoin:miter;stroke-width:0.8;"/>
   </g>
   <g id="legend_3">
    <g id="patch_203">
     <path d="M 62.67 196.488355 
L 72.67 196.488355 
L 72.67 192.988355 
L 62.67 192.988355 
z
" style="fill:#440154;opacity:0.2;"/>
    </g>
    <g id="text_29">
     <!-- component 0 -->
     <g transform="translate(73.17 196.488355)scale(0.05 -0.05)">
      <use xlink:href="#DejaVuSans-99"/>
      <use x="54.980469" xlink:href="#DejaVuSans-111"/>
      <use x="116.162109" xlink:href="#DejaVuSans-109"/>
      <use x="213.574219" xlink:href="#DejaVuSans-112"/>
      <use x="277.050781" xlink:href="#DejaVuSans-111"/>
      <use x="338.232422" xlink:href="#DejaVuSans-110"/>
      <use x="401.611328" xlink:href="#DejaVuSans-101"/>
      <use x="463.134766" xlink:href="#DejaVuSans-110"/>
      <use x="526.513672" xlink:href="#DejaVuSans-116"/>
      <use x="565.722656" xlink:href="#DejaVuSans-32"/>
      <use x="597.509766" xlink:href="#DejaVuSans-48"/>
     </g>
    </g>
   </g>
  </g>
  <g id="axes_4">
   <g id="patch_204">
    <path d="M 277.705 299.76 
L 450 299.76 
L 450 188.189136 
L 277.705 188.189136 
z
" style="fill:#ffffff;"/>
   </g>
   <g id="patch_205">
    <path clip-path="url(#p80a44bb6a6)" d="M 285.536591 299.76 
L 287.331798 299.76 
L 287.331798 299.76 
L 285.536591 299.76 
z
" style="fill:#440154;opacity:0.2;"/>
   </g>
   <g id="patch_206">
    <path clip-path="url(#p80a44bb6a6)" d="M 287.7806 299.76 
L 289.575807 299.76 
L 289.575807 299.76 
L 287.7806 299.76 
z
" style="fill:#440154;opacity:0.2;"/>
   </g>
   <g id="patch_207">
    <path clip-path="url(#p80a44bb6a6)" d="M 290.024609 299.76 
L 291.819816 299.76 
L 291.819816 299.76 
L 290.024609 299.76 
z
" style="fill:#440154;opacity:0.2;"/>
   </g>
   <g id="patch_208">
    <path clip-path="url(#p80a44bb6a6)" d="M 292.268617 299.76 
L 294.063825 299.76 
L 294.063825 299.76 
L 292.268617 299.76 
z
" style="fill:#440154;opacity:0.2;"/>
   </g>
   <g id="patch_209">
    <path clip-path="url(#p80a44bb6a6)" d="M 294.512626 299.76 
L 296.307833 299.76 
L 296.307833 299.76 
L 294.512626 299.76 
z
" style="fill:#440154;opacity:0.2;"/>
   </g>
   <g id="patch_210">
    <path clip-path="url(#p80a44bb6a6)" d="M 296.756635 299.76 
L 298.551842 299.76 
L 298.551842 299.76 
L 296.756635 299.76 
z
" style="fill:#440154;opacity:0.2;"/>
   </g>
   <g id="patch_211">
    <path clip-path="url(#p80a44bb6a6)" d="M 299.000644 299.76 
L 300.795851 299.76 
L 300.795851 299.76 
L 299.000644 299.76 
z
" style="fill:#440154;opacity:0.2;"/>
   </g>
   <g id="patch_212">
    <path clip-path="url(#p80a44bb6a6)" d="M 301.244653 299.76 
L 303.03986 299.76 
L 303.03986 299.76 
L 301.244653 299.76 
z
" style="fill:#440154;opacity:0.2;"/>
   </g>
   <g id="patch_213">
    <path clip-path="url(#p80a44bb6a6)" d="M 303.488662 299.76 
L 305.283869 299.76 
L 305.283869 299.76 
L 303.488662 299.76 
z
" style="fill:#440154;opacity:0.2;"/>
   </g>
   <g id="patch_214">
    <path clip-path="url(#p80a44bb6a6)" d="M 305.732671 299.76 
L 307.527878 299.76 
L 307.527878 299.76 
L 305.732671 299.76 
z
" style="fill:#440154;opacity:0.2;"/>
   </g>
   <g id="patch_215">
    <path clip-path="url(#p80a44bb6a6)" d="M 307.976679 299.76 
L 309.771887 299.76 
L 309.771887 299.76 
L 307.976679 299.76 
z
" style="fill:#440154;opacity:0.2;"/>
   </g>
   <g id="patch_216">
    <path clip-path="url(#p80a44bb6a6)" d="M 310.220688 299.76 
L 312.015895 299.76 
L 312.015895 299.76 
L 310.220688 299.76 
z
" style="fill:#440154;opacity:0.2;"/>
   </g>
   <g id="patch_217">
    <path clip-path="url(#p80a44bb6a6)" d="M 312.464697 299.76 
L 314.259904 299.76 
L 314.259904 299.76 
L 312.464697 299.76 
z
" style="fill:#440154;opacity:0.2;"/>
   </g>
   <g id="patch_218">
    <path clip-path="url(#p80a44bb6a6)" d="M 314.708706 299.76 
L 316.503913 299.76 
L 316.503913 299.76 
L 314.708706 299.76 
z
" style="fill:#440154;opacity:0.2;"/>
   </g>
   <g id="patch_219">
    <path clip-path="url(#p80a44bb6a6)" d="M 316.952715 299.76 
L 318.747922 299.76 
L 318.747922 299.76 
L 316.952715 299.76 
z
" style="fill:#440154;opacity:0.2;"/>
   </g>
   <g id="patch_220">
    <path clip-path="url(#p80a44bb6a6)" d="M 319.196724 299.76 
L 320.991931 299.76 
L 320.991931 299.76 
L 319.196724 299.76 
z
" style="fill:#440154;opacity:0.2;"/>
   </g>
   <g id="patch_221">
    <path clip-path="url(#p80a44bb6a6)" d="M 321.440733 299.76 
L 323.23594 299.76 
L 323.23594 299.76 
L 321.440733 299.76 
z
" style="fill:#440154;opacity:0.2;"/>
   </g>
   <g id="patch_222">
    <path clip-path="url(#p80a44bb6a6)" d="M 323.684741 299.76 
L 325.479949 299.76 
L 325.479949 299.76 
L 323.684741 299.76 
z
" style="fill:#440154;opacity:0.2;"/>
   </g>
   <g id="patch_223">
    <path clip-path="url(#p80a44bb6a6)" d="M 325.92875 299.76 
L 327.723957 299.76 
L 327.723957 299.76 
L 325.92875 299.76 
z
" style="fill:#440154;opacity:0.2;"/>
   </g>
   <g id="patch_224">
    <path clip-path="url(#p80a44bb6a6)" d="M 328.172759 299.76 
L 329.967966 299.76 
L 329.967966 299.76 
L 328.172759 299.76 
z
" style="fill:#440154;opacity:0.2;"/>
   </g>
   <g id="patch_225">
    <path clip-path="url(#p80a44bb6a6)" d="M 330.416768 299.76 
L 332.211975 299.76 
L 332.211975 248.669661 
L 330.416768 248.669661 
z
" style="fill:#440154;opacity:0.2;"/>
   </g>
   <g id="patch_226">
    <path clip-path="url(#p80a44bb6a6)" d="M 332.660777 299.76 
L 334.455984 299.76 
L 334.455984 299.76 
L 332.660777 299.76 
z
" style="fill:#440154;opacity:0.2;"/>
   </g>
   <g id="patch_227">
    <path clip-path="url(#p80a44bb6a6)" d="M 334.904786 299.76 
L 336.699993 299.76 
L 336.699993 299.76 
L 334.904786 299.76 
z
" style="fill:#440154;opacity:0.2;"/>
   </g>
   <g id="patch_228">
    <path clip-path="url(#p80a44bb6a6)" d="M 337.148795 299.76 
L 338.944002 299.76 
L 338.944002 299.401157 
L 337.148795 299.401157 
z
" style="fill:#440154;opacity:0.2;"/>
   </g>
   <g id="patch_229">
    <path clip-path="url(#p80a44bb6a6)" d="M 339.392803 299.76 
L 341.188011 299.76 
L 341.188011 299.580578 
L 339.392803 299.580578 
z
" style="fill:#440154;opacity:0.2;"/>
   </g>
   <g id="patch_230">
    <path clip-path="url(#p80a44bb6a6)" d="M 341.636812 299.76 
L 343.432019 299.76 
L 343.432019 298.862891 
L 341.636812 298.862891 
z
" style="fill:#440154;opacity:0.2;"/>
   </g>
   <g id="patch_231">
    <path clip-path="url(#p80a44bb6a6)" d="M 343.880821 299.76 
L 345.676028 299.76 
L 345.676028 297.786361 
L 343.880821 297.786361 
z
" style="fill:#440154;opacity:0.2;"/>
   </g>
   <g id="patch_232">
    <path clip-path="url(#p80a44bb6a6)" d="M 346.12483 299.76 
L 347.920037 299.76 
L 347.920037 295.453878 
L 346.12483 295.453878 
z
" style="fill:#440154;opacity:0.2;"/>
   </g>
   <g id="patch_233">
    <path clip-path="url(#p80a44bb6a6)" d="M 348.368839 299.76 
L 350.164046 299.76 
L 350.164046 293.480239 
L 348.368839 293.480239 
z
" style="fill:#440154;opacity:0.2;"/>
   </g>
   <g id="patch_234">
    <path clip-path="url(#p80a44bb6a6)" d="M 350.612848 299.76 
L 352.408055 299.76 
L 352.408055 291.686022 
L 350.612848 291.686022 
z
" style="fill:#440154;opacity:0.2;"/>
   </g>
   <g id="patch_235">
    <path clip-path="url(#p80a44bb6a6)" d="M 352.856857 299.76 
L 354.652064 299.76 
L 354.652064 290.071226 
L 352.856857 290.071226 
z
" style="fill:#440154;opacity:0.2;"/>
   </g>
   <g id="patch_236">
    <path clip-path="url(#p80a44bb6a6)" d="M 355.100865 299.76 
L 356.896073 299.76 
L 356.896073 283.970887 
L 355.100865 283.970887 
z
" style="fill:#440154;opacity:0.2;"/>
   </g>
   <g id="patch_237">
    <path clip-path="url(#p80a44bb6a6)" d="M 357.344874 299.76 
L 359.140081 299.76 
L 359.140081 276.97344 
L 357.344874 276.97344 
z
" style="fill:#440154;opacity:0.2;"/>
   </g>
   <g id="patch_238">
    <path clip-path="url(#p80a44bb6a6)" d="M 359.588883 299.76 
L 361.38409 299.76 
L 361.38409 266.716497 
L 359.588883 266.716497 
z
" style="fill:#440154;opacity:0.2;"/>
   </g>
   <g id="patch_239">
    <path clip-path="url(#p80a44bb6a6)" d="M 361.832892 299.76 
L 363.628099 299.76 
L 363.628099 255.37181 
L 361.832892 255.37181 
z
" style="fill:#440154;opacity:0.2;"/>
   </g>
   <g id="patch_240">
    <path clip-path="url(#p80a44bb6a6)" d="M 364.076901 299.76 
L 365.872108 299.76 
L 365.872108 242.154409 
L 364.076901 242.154409 
z
" style="fill:#440154;opacity:0.2;"/>
   </g>
   <g id="patch_241">
    <path clip-path="url(#p80a44bb6a6)" d="M 366.32091 299.76 
L 368.116117 299.76 
L 368.116117 236.314979 
L 366.32091 236.314979 
z
" style="fill:#440154;opacity:0.2;"/>
   </g>
   <g id="patch_242">
    <path clip-path="url(#p80a44bb6a6)" d="M 368.564919 299.76 
L 370.360126 299.76 
L 370.360126 218.998289 
L 368.564919 218.998289 
z
" style="fill:#440154;opacity:0.2;"/>
   </g>
   <g id="patch_243">
    <path clip-path="url(#p80a44bb6a6)" d="M 370.808927 299.76 
L 372.604135 299.76 
L 372.604135 208.493147 
L 370.808927 208.493147 
z
" style="fill:#440154;opacity:0.2;"/>
   </g>
   <g id="patch_244">
    <path clip-path="url(#p80a44bb6a6)" d="M 373.052936 299.76 
L 374.848143 299.76 
L 374.848143 204.487536 
L 373.052936 204.487536 
z
" style="fill:#440154;opacity:0.2;"/>
   </g>
   <g id="patch_245">
    <path clip-path="url(#p80a44bb6a6)" d="M 375.296945 299.76 
L 377.092152 299.76 
L 377.092152 195.175864 
L 375.296945 195.175864 
z
" style="fill:#440154;opacity:0.2;"/>
   </g>
   <g id="patch_246">
    <path clip-path="url(#p80a44bb6a6)" d="M 377.540954 299.76 
L 379.336161 299.76 
L 379.336161 194.341414 
L 377.540954 194.341414 
z
" style="fill:#440154;opacity:0.2;"/>
   </g>
   <g id="patch_247">
    <path clip-path="url(#p80a44bb6a6)" d="M 379.784963 299.76 
L 381.58017 299.76 
L 381.58017 193.502034 
L 379.784963 193.502034 
z
" style="fill:#440154;opacity:0.2;"/>
   </g>
   <g id="patch_248">
    <path clip-path="url(#p80a44bb6a6)" d="M 382.028972 299.76 
L 383.824179 299.76 
L 383.824179 214.552984 
L 382.028972 214.552984 
z
" style="fill:#440154;opacity:0.2;"/>
   </g>
   <g id="patch_249">
    <path clip-path="url(#p80a44bb6a6)" d="M 384.272981 299.76 
L 386.068188 299.76 
L 386.068188 239.6902 
L 384.272981 239.6902 
z
" style="fill:#440154;opacity:0.2;"/>
   </g>
   <g id="patch_250">
    <path clip-path="url(#p80a44bb6a6)" d="M 386.516989 299.76 
L 388.312197 299.76 
L 388.312197 253.123309 
L 386.516989 253.123309 
z
" style="fill:#440154;opacity:0.2;"/>
   </g>
   <g id="patch_251">
    <path clip-path="url(#p80a44bb6a6)" d="M 388.760998 299.76 
L 390.556205 299.76 
L 390.556205 272.889366 
L 388.760998 272.889366 
z
" style="fill:#440154;opacity:0.2;"/>
   </g>
   <g id="patch_252">
    <path clip-path="url(#p80a44bb6a6)" d="M 391.005007 299.76 
L 392.800214 299.76 
L 392.800214 287.885244 
L 391.005007 287.885244 
z
" style="fill:#440154;opacity:0.2;"/>
   </g>
   <g id="patch_253">
    <path clip-path="url(#p80a44bb6a6)" d="M 393.249016 299.76 
L 395.044223 299.76 
L 395.044223 296.368545 
L 393.249016 296.368545 
z
" style="fill:#440154;opacity:0.2;"/>
   </g>
   <g id="patch_254">
    <path clip-path="url(#p80a44bb6a6)" d="M 395.493025 299.76 
L 397.288232 299.76 
L 397.288232 297.878485 
L 395.493025 297.878485 
z
" style="fill:#440154;opacity:0.2;"/>
   </g>
   <g id="patch_255">
    <path clip-path="url(#p80a44bb6a6)" d="M 397.737034 299.76 
L 399.532241 299.76 
L 399.532241 298.267987 
L 397.737034 298.267987 
z
" style="fill:#440154;opacity:0.2;"/>
   </g>
   <g id="patch_256">
    <path clip-path="url(#p80a44bb6a6)" d="M 399.981043 299.76 
L 401.77625 299.76 
L 401.77625 298.626711 
L 399.981043 298.626711 
z
" style="fill:#440154;opacity:0.2;"/>
   </g>
   <g id="patch_257">
    <path clip-path="url(#p80a44bb6a6)" d="M 402.225051 299.76 
L 404.020259 299.76 
L 404.020259 298.828004 
L 402.225051 298.828004 
z
" style="fill:#440154;opacity:0.2;"/>
   </g>
   <g id="patch_258">
    <path clip-path="url(#p80a44bb6a6)" d="M 404.46906 299.76 
L 406.264267 299.76 
L 406.264267 298.950718 
L 404.46906 298.950718 
z
" style="fill:#440154;opacity:0.2;"/>
   </g>
   <g id="patch_259">
    <path clip-path="url(#p80a44bb6a6)" d="M 406.713069 299.76 
L 408.508276 299.76 
L 408.508276 299.475262 
L 406.713069 299.475262 
z
" style="fill:#440154;opacity:0.2;"/>
   </g>
   <g id="patch_260">
    <path clip-path="url(#p80a44bb6a6)" d="M 408.957078 299.76 
L 410.752285 299.76 
L 410.752285 299.672551 
L 408.957078 299.672551 
z
" style="fill:#440154;opacity:0.2;"/>
   </g>
   <g id="patch_261">
    <path clip-path="url(#p80a44bb6a6)" d="M 411.201087 299.76 
L 412.996294 299.76 
L 412.996294 299.391796 
L 411.201087 299.391796 
z
" style="fill:#440154;opacity:0.2;"/>
   </g>
   <g id="patch_262">
    <path clip-path="url(#p80a44bb6a6)" d="M 413.445096 299.76 
L 415.240303 299.76 
L 415.240303 299.419099 
L 413.445096 299.419099 
z
" style="fill:#440154;opacity:0.2;"/>
   </g>
   <g id="patch_263">
    <path clip-path="url(#p80a44bb6a6)" d="M 415.689105 299.76 
L 417.484312 299.76 
L 417.484312 299.393817 
L 415.689105 299.393817 
z
" style="fill:#440154;opacity:0.2;"/>
   </g>
   <g id="patch_264">
    <path clip-path="url(#p80a44bb6a6)" d="M 417.933113 299.76 
L 419.728321 299.76 
L 419.728321 299.340234 
L 417.933113 299.340234 
z
" style="fill:#440154;opacity:0.2;"/>
   </g>
   <g id="patch_265">
    <path clip-path="url(#p80a44bb6a6)" d="M 420.177122 299.76 
L 421.972329 299.76 
L 421.972329 299.20917 
L 420.177122 299.20917 
z
" style="fill:#440154;opacity:0.2;"/>
   </g>
   <g id="patch_266">
    <path clip-path="url(#p80a44bb6a6)" d="M 422.421131 299.76 
L 424.216338 299.76 
L 424.216338 299.472925 
L 422.421131 299.472925 
z
" style="fill:#440154;opacity:0.2;"/>
   </g>
   <g id="patch_267">
    <path clip-path="url(#p80a44bb6a6)" d="M 424.66514 299.76 
L 426.460347 299.76 
L 426.460347 299.713561 
L 424.66514 299.713561 
z
" style="fill:#440154;opacity:0.2;"/>
   </g>
   <g id="patch_268">
    <path clip-path="url(#p80a44bb6a6)" d="M 426.909149 299.76 
L 428.704356 299.76 
L 428.704356 299.555516 
L 426.909149 299.555516 
z
" style="fill:#440154;opacity:0.2;"/>
   </g>
   <g id="patch_269">
    <path clip-path="url(#p80a44bb6a6)" d="M 429.153158 299.76 
L 430.948365 299.76 
L 430.948365 299.544392 
L 429.153158 299.544392 
z
" style="fill:#440154;opacity:0.2;"/>
   </g>
   <g id="patch_270">
    <path clip-path="url(#p80a44bb6a6)" d="M 431.397167 299.76 
L 433.192374 299.76 
L 433.192374 299.519062 
L 431.397167 299.519062 
z
" style="fill:#440154;opacity:0.2;"/>
   </g>
   <g id="patch_271">
    <path clip-path="url(#p80a44bb6a6)" d="M 433.641175 299.76 
L 435.436383 299.76 
L 435.436383 299.435332 
L 433.641175 299.435332 
z
" style="fill:#440154;opacity:0.2;"/>
   </g>
   <g id="patch_272">
    <path clip-path="url(#p80a44bb6a6)" d="M 435.885184 299.76 
L 437.680391 299.76 
L 437.680391 299.373246 
L 435.885184 299.373246 
z
" style="fill:#440154;opacity:0.2;"/>
   </g>
   <g id="patch_273">
    <path clip-path="url(#p80a44bb6a6)" d="M 438.129193 299.76 
L 439.9244 299.76 
L 439.9244 299.630418 
L 438.129193 299.630418 
z
" style="fill:#440154;opacity:0.2;"/>
   </g>
   <g id="patch_274">
    <path clip-path="url(#p80a44bb6a6)" d="M 440.373202 299.76 
L 442.168409 299.76 
L 442.168409 291.944921 
L 440.373202 291.944921 
z
" style="fill:#440154;opacity:0.2;"/>
   </g>
   <g id="matplotlib.axis_7">
    <g id="xtick_12">
     <g id="line2d_27">
      <g>
       <use style="stroke:#000000;stroke-width:0.8;" x="307.752279" xlink:href="#mb6e2578e4a" y="300.76"/>
      </g>
     </g>
     <g id="text_30">
      <!-- −4 -->
      <g transform="translate(300.381185 315.358437)scale(0.1 -0.1)">
       <use xlink:href="#DejaVuSans-8722"/>
       <use x="83.789062" xlink:href="#DejaVuSans-52"/>
      </g>
     </g>
    </g>
    <g id="xtick_13">
     <g id="line2d_28">
      <g>
       <use style="stroke:#000000;stroke-width:0.8;" x="352.632456" xlink:href="#mb6e2578e4a" y="300.76"/>
      </g>
     </g>
     <g id="text_31">
      <!-- −2 -->
      <g transform="translate(345.261362 315.358437)scale(0.1 -0.1)">
       <use xlink:href="#DejaVuSans-8722"/>
       <use x="83.789062" xlink:href="#DejaVuSans-50"/>
      </g>
     </g>
    </g>
    <g id="xtick_14">
     <g id="line2d_29">
      <g>
       <use style="stroke:#000000;stroke-width:0.8;" x="397.512633" xlink:href="#mb6e2578e4a" y="300.76"/>
      </g>
     </g>
     <g id="text_32">
      <!-- 0 -->
      <g transform="translate(394.331383 315.358437)scale(0.1 -0.1)">
       <use xlink:href="#DejaVuSans-48"/>
      </g>
     </g>
    </g>
    <g id="xtick_15">
     <g id="line2d_30">
      <g>
       <use style="stroke:#000000;stroke-width:0.8;" x="442.39281" xlink:href="#mb6e2578e4a" y="300.76"/>
      </g>
     </g>
     <g id="text_33">
      <!-- 2 -->
      <g transform="translate(439.21156 315.358437)scale(0.1 -0.1)">
       <use xlink:href="#DejaVuSans-50"/>
      </g>
     </g>
    </g>
    <g id="text_34">
     <!-- $\log_{10}\omega$ -->
     <defs>
      <path d="M 45.40625 27.984375 
Q 45.40625 37.75 41.375 43.109375 
Q 37.359375 48.484375 30.078125 48.484375 
Q 22.859375 48.484375 18.828125 43.109375 
Q 14.796875 37.75 14.796875 27.984375 
Q 14.796875 18.265625 18.828125 12.890625 
Q 22.859375 7.515625 30.078125 7.515625 
Q 37.359375 7.515625 41.375 12.890625 
Q 45.40625 18.265625 45.40625 27.984375 
z
M 54.390625 6.78125 
Q 54.390625 -7.171875 48.1875 -13.984375 
Q 42 -20.796875 29.203125 -20.796875 
Q 24.46875 -20.796875 20.265625 -20.09375 
Q 16.0625 -19.390625 12.109375 -17.921875 
L 12.109375 -9.1875 
Q 16.0625 -11.328125 19.921875 -12.34375 
Q 23.78125 -13.375 27.78125 -13.375 
Q 36.625 -13.375 41.015625 -8.765625 
Q 45.40625 -4.15625 45.40625 5.171875 
L 45.40625 9.625 
Q 42.625 4.78125 38.28125 2.390625 
Q 33.9375 0 27.875 0 
Q 17.828125 0 11.671875 7.65625 
Q 5.515625 15.328125 5.515625 27.984375 
Q 5.515625 40.671875 11.671875 48.328125 
Q 17.828125 56 27.875 56 
Q 33.9375 56 38.28125 53.609375 
Q 42.625 51.21875 45.40625 46.390625 
L 45.40625 54.6875 
L 54.390625 54.6875 
z
" id="DejaVuSans-103"/>
      <path d="M 21.390625 -1.421875 
Q 1.125 -1.421875 6.78125 27.59375 
Q 8.984375 39.0625 19.625 54.6875 
L 29.296875 54.6875 
Q 19.234375 39.0625 17 27.34375 
Q 12.796875 6.203125 23.734375 6.203125 
Q 33.84375 6.203125 38.71875 32.46875 
L 47.015625 32.46875 
Q 41.703125 6.0625 51.8125 6.203125 
Q 62.703125 6.296875 66.796875 27.34375 
Q 69.046875 39.0625 65.140625 54.6875 
L 74.8125 54.6875 
Q 79.296875 39.0625 77.09375 27.59375 
Q 71.53125 -1.46875 51.21875 -1.421875 
Q 37.9375 -1.375 39.109375 13.1875 
Q 34.28125 -1.421875 21.390625 -1.421875 
z
" id="DejaVuSans-Oblique-969"/>
     </defs>
     <g transform="translate(347.4025 329.038125)scale(0.1 -0.1)">
      <use transform="translate(0 0.015625)" xlink:href="#DejaVuSans-108"/>
      <use transform="translate(27.783203 0.015625)" xlink:href="#DejaVuSans-111"/>
      <use transform="translate(88.964844 0.015625)" xlink:href="#DejaVuSans-103"/>
      <use transform="translate(153.398438 -16.390625)scale(0.7)" xlink:href="#DejaVuSans-49"/>
      <use transform="translate(197.93457 -16.390625)scale(0.7)" xlink:href="#DejaVuSans-48"/>
      <use transform="translate(245.205078 0.015625)" xlink:href="#DejaVuSans-Oblique-969"/>
     </g>
    </g>
   </g>
   <g id="matplotlib.axis_8">
    <g id="ytick_14">
     <g id="line2d_31">
      <g>
       <use style="stroke:#000000;stroke-width:0.8;" x="276.705" xlink:href="#m4e26108eb5" y="299.76"/>
      </g>
     </g>
     <g id="text_35">
      <!-- 0 -->
      <g transform="translate(263.3425 303.559219)scale(0.1 -0.1)">
       <use xlink:href="#DejaVuSans-48"/>
      </g>
     </g>
    </g>
    <g id="ytick_15">
     <g id="line2d_32">
      <g>
       <use style="stroke:#000000;stroke-width:0.8;" x="276.705" xlink:href="#m4e26108eb5" y="263.875653"/>
      </g>
     </g>
     <g id="text_36">
      <!-- 200 -->
      <g transform="translate(250.6175 267.674872)scale(0.1 -0.1)">
       <use xlink:href="#DejaVuSans-50"/>
       <use x="63.623047" xlink:href="#DejaVuSans-48"/>
       <use x="127.246094" xlink:href="#DejaVuSans-48"/>
      </g>
     </g>
    </g>
    <g id="ytick_16">
     <g id="line2d_33">
      <g>
       <use style="stroke:#000000;stroke-width:0.8;" x="276.705" xlink:href="#m4e26108eb5" y="227.991306"/>
      </g>
     </g>
     <g id="text_37">
      <!-- 400 -->
      <g transform="translate(250.6175 231.790524)scale(0.1 -0.1)">
       <use xlink:href="#DejaVuSans-52"/>
       <use x="63.623047" xlink:href="#DejaVuSans-48"/>
       <use x="127.246094" xlink:href="#DejaVuSans-48"/>
      </g>
     </g>
    </g>
    <g id="ytick_17">
     <g id="line2d_34">
      <g>
       <use style="stroke:#000000;stroke-width:0.8;" x="276.705" xlink:href="#m4e26108eb5" y="192.106958"/>
      </g>
     </g>
     <g id="text_38">
      <!-- 600 -->
      <defs>
       <path d="M 33.015625 40.375 
Q 26.375 40.375 22.484375 35.828125 
Q 18.609375 31.296875 18.609375 23.390625 
Q 18.609375 15.53125 22.484375 10.953125 
Q 26.375 6.390625 33.015625 6.390625 
Q 39.65625 6.390625 43.53125 10.953125 
Q 47.40625 15.53125 47.40625 23.390625 
Q 47.40625 31.296875 43.53125 35.828125 
Q 39.65625 40.375 33.015625 40.375 
z
M 52.59375 71.296875 
L 52.59375 62.3125 
Q 48.875 64.0625 45.09375 64.984375 
Q 41.3125 65.921875 37.59375 65.921875 
Q 27.828125 65.921875 22.671875 59.328125 
Q 17.53125 52.734375 16.796875 39.40625 
Q 19.671875 43.65625 24.015625 45.921875 
Q 28.375 48.1875 33.59375 48.1875 
Q 44.578125 48.1875 50.953125 41.515625 
Q 57.328125 34.859375 57.328125 23.390625 
Q 57.328125 12.15625 50.6875 5.359375 
Q 44.046875 -1.421875 33.015625 -1.421875 
Q 20.359375 -1.421875 13.671875 8.265625 
Q 6.984375 17.96875 6.984375 36.375 
Q 6.984375 53.65625 15.1875 63.9375 
Q 23.390625 74.21875 37.203125 74.21875 
Q 40.921875 74.21875 44.703125 73.484375 
Q 48.484375 72.75 52.59375 71.296875 
z
" id="DejaVuSans-54"/>
      </defs>
      <g transform="translate(250.6175 195.906177)scale(0.1 -0.1)">
       <use xlink:href="#DejaVuSans-54"/>
       <use x="63.623047" xlink:href="#DejaVuSans-48"/>
       <use x="127.246094" xlink:href="#DejaVuSans-48"/>
      </g>
     </g>
    </g>
   </g>
   <g id="patch_275">
    <path d="M 276.705 299.76 
L 276.705 188.189136 
" style="fill:none;stroke:#000000;stroke-linecap:square;stroke-linejoin:miter;stroke-width:0.8;"/>
   </g>
   <g id="patch_276">
    <path d="M 277.705 300.76 
L 450 300.76 
" style="fill:none;stroke:#000000;stroke-linecap:square;stroke-linejoin:miter;stroke-width:0.8;"/>
   </g>
   <g id="legend_4">
    <g id="patch_277">
     <path d="M 282.205 196.488355 
L 292.205 196.488355 
L 292.205 192.988355 
L 282.205 192.988355 
z
" style="fill:#440154;opacity:0.2;"/>
    </g>
    <g id="text_39">
     <!-- component 0 -->
     <g transform="translate(292.705 196.488355)scale(0.05 -0.05)">
      <use xlink:href="#DejaVuSans-99"/>
      <use x="54.980469" xlink:href="#DejaVuSans-111"/>
      <use x="116.162109" xlink:href="#DejaVuSans-109"/>
      <use x="213.574219" xlink:href="#DejaVuSans-112"/>
      <use x="277.050781" xlink:href="#DejaVuSans-111"/>
      <use x="338.232422" xlink:href="#DejaVuSans-110"/>
      <use x="401.611328" xlink:href="#DejaVuSans-101"/>
      <use x="463.134766" xlink:href="#DejaVuSans-110"/>
      <use x="526.513672" xlink:href="#DejaVuSans-116"/>
      <use x="565.722656" xlink:href="#DejaVuSans-32"/>
      <use x="597.509766" xlink:href="#DejaVuSans-48"/>
     </g>
    </g>
   </g>
  </g>
  <g id="text_40">
   <!-- Ks_gmm_1components_prediction.tsv -->
   <defs>
    <path d="M 9.8125 72.90625 
L 19.671875 72.90625 
L 19.671875 42.09375 
L 52.390625 72.90625 
L 65.09375 72.90625 
L 28.90625 38.921875 
L 67.671875 0 
L 54.6875 0 
L 19.671875 35.109375 
L 19.671875 0 
L 9.8125 0 
z
" id="DejaVuSans-75"/>
    <path d="M 50.984375 -16.609375 
L 50.984375 -23.578125 
L -0.984375 -23.578125 
L -0.984375 -16.609375 
z
" id="DejaVuSans-95"/>
    <path d="M 41.109375 46.296875 
Q 39.59375 47.171875 37.8125 47.578125 
Q 36.03125 48 33.890625 48 
Q 26.265625 48 22.1875 43.046875 
Q 18.109375 38.09375 18.109375 28.8125 
L 18.109375 0 
L 9.078125 0 
L 9.078125 54.6875 
L 18.109375 54.6875 
L 18.109375 46.1875 
Q 20.953125 51.171875 25.484375 53.578125 
Q 30.03125 56 36.53125 56 
Q 37.453125 56 38.578125 55.875 
Q 39.703125 55.765625 41.0625 55.515625 
z
" id="DejaVuSans-114"/>
    <path d="M 45.40625 46.390625 
L 45.40625 75.984375 
L 54.390625 75.984375 
L 54.390625 0 
L 45.40625 0 
L 45.40625 8.203125 
Q 42.578125 3.328125 38.25 0.953125 
Q 33.9375 -1.421875 27.875 -1.421875 
Q 17.96875 -1.421875 11.734375 6.484375 
Q 5.515625 14.40625 5.515625 27.296875 
Q 5.515625 40.1875 11.734375 48.09375 
Q 17.96875 56 27.875 56 
Q 33.9375 56 38.25 53.625 
Q 42.578125 51.265625 45.40625 46.390625 
z
M 14.796875 27.296875 
Q 14.796875 17.390625 18.875 11.75 
Q 22.953125 6.109375 30.078125 6.109375 
Q 37.203125 6.109375 41.296875 11.75 
Q 45.40625 17.390625 45.40625 27.296875 
Q 45.40625 37.203125 41.296875 42.84375 
Q 37.203125 48.484375 30.078125 48.484375 
Q 22.953125 48.484375 18.875 42.84375 
Q 14.796875 37.203125 14.796875 27.296875 
z
" id="DejaVuSans-100"/>
    <path d="M 10.6875 12.40625 
L 21 12.40625 
L 21 0 
L 10.6875 0 
z
" id="DejaVuSans-46"/>
   </defs>
   <g transform="translate(57.6 43.678125)scale(0.12 -0.12)">
    <use xlink:href="#DejaVuSans-75"/>
    <use x="65.576172" xlink:href="#DejaVuSans-115"/>
    <use x="117.675781" xlink:href="#DejaVuSans-95"/>
    <use x="167.675781" xlink:href="#DejaVuSans-103"/>
    <use x="231.152344" xlink:href="#DejaVuSans-109"/>
    <use x="328.564453" xlink:href="#DejaVuSans-109"/>
    <use x="425.976562" xlink:href="#DejaVuSans-95"/>
    <use x="475.976562" xlink:href="#DejaVuSans-49"/>
    <use x="539.599609" xlink:href="#DejaVuSans-99"/>
    <use x="594.580078" xlink:href="#DejaVuSans-111"/>
    <use x="655.761719" xlink:href="#DejaVuSans-109"/>
    <use x="753.173828" xlink:href="#DejaVuSans-112"/>
    <use x="816.650391" xlink:href="#DejaVuSans-111"/>
    <use x="877.832031" xlink:href="#DejaVuSans-110"/>
    <use x="941.210938" xlink:href="#DejaVuSans-101"/>
    <use x="1002.734375" xlink:href="#DejaVuSans-110"/>
    <use x="1066.113281" xlink:href="#DejaVuSans-116"/>
    <use x="1105.322266" xlink:href="#DejaVuSans-115"/>
    <use x="1157.421875" xlink:href="#DejaVuSans-95"/>
    <use x="1207.421875" xlink:href="#DejaVuSans-112"/>
    <use x="1270.898438" xlink:href="#DejaVuSans-114"/>
    <use x="1309.761719" xlink:href="#DejaVuSans-101"/>
    <use x="1371.285156" xlink:href="#DejaVuSans-100"/>
    <use x="1434.761719" xlink:href="#DejaVuSans-105"/>
    <use x="1462.544922" xlink:href="#DejaVuSans-99"/>
    <use x="1517.525391" xlink:href="#DejaVuSans-116"/>
    <use x="1556.734375" xlink:href="#DejaVuSans-105"/>
    <use x="1584.517578" xlink:href="#DejaVuSans-111"/>
    <use x="1645.699219" xlink:href="#DejaVuSans-110"/>
    <use x="1709.078125" xlink:href="#DejaVuSans-46"/>
    <use x="1740.865234" xlink:href="#DejaVuSans-116"/>
    <use x="1780.074219" xlink:href="#DejaVuSans-115"/>
    <use x="1832.173828" xlink:href="#DejaVuSans-118"/>
   </g>
  </g>
 </g>
 <defs>
  <clipPath id="p6b1f6a87df">
   <rect height="111.570864" width="172.295" x="58.17" y="51.84"/>
  </clipPath>
  <clipPath id="p38d133f331">
   <rect height="111.570864" width="172.295" x="277.705" y="51.84"/>
  </clipPath>
  <clipPath id="p274825fa77">
   <rect height="111.570864" width="172.295" x="58.17" y="188.189136"/>
  </clipPath>
  <clipPath id="p80a44bb6a6">
   <rect height="111.570864" width="172.295" x="277.705" y="188.189136"/>
  </clipPath>
 </defs>
</svg>
